<?xml version="1.0" encoding="utf-8"?>
<!-- Generator: Adobe Illustrator 16.0.0, SVG Export Plug-In . SVG Version: 6.00 Build 0)  -->
<!DOCTYPE svg PUBLIC "-//W3C//DTD SVG 1.1//EN" "http://www.w3.org/Graphics/SVG/1.1/DTD/svg11.dtd">
<svg version="1.1" xmlns="http://www.w3.org/2000/svg" xmlns:xlink="http://www.w3.org/1999/xlink" x="0px" y="0px"
	 width="574.896px" height="810.548px" viewBox="0 0 574.896 810.548" enable-background="new 0 0 574.896 810.548"
	 xml:space="preserve">
<g id="Layer_2" display="none">
	<rect x="-121.104" y="-71.78" display="inline" fill="#6EFF29" width="894" height="1003"/>
</g>
<g id="Layer_1">
	<g>
		<defs>
			<rect id="SVGID_1_" width="574.896" height="810.548"/>
		</defs>
		<clipPath id="SVGID_2_">
			<use xlink:href="#SVGID_1_"  overflow="visible"/>
		</clipPath>
		<path clip-path="url(#SVGID_2_)" fill="#EF919B" d="M229.486,31.16C126.212,8.52,81.809-24.498,64.852-67.564
			c-4.158-10.561-5.139-8.123-6.459-19.888l4.119,36.705C69.217,8.993,106.53,53.275,235.133,81.469
			C363.735,109.663,358.089,59.354,229.486,31.16"/>
		<path clip-path="url(#SVGID_2_)" fill="none" stroke="#201C1D" stroke-linecap="round" stroke-miterlimit="10" d="M229.486,31.16
			C126.212,8.52,81.809-24.498,64.852-67.564c-4.158-10.561-5.139-8.123-6.459-19.888l4.119,36.705
			C69.217,8.993,106.53,53.275,235.133,81.469C363.735,109.663,358.089,59.354,229.486,31.16z"/>
		<path clip-path="url(#SVGID_2_)" fill="#C7535F" d="M412.355,173.907c-6.582-58.64-51.665-114.039-180.349-142.958
			C103.323,2.029,65.917-43.079,59.096-103.852l5.744,51.177c0.668,5.951,1.388,11.649,2.699,17.299
			c10.106,49.371,54.129,91.413,170.212,117.501c128.683,28.92,173.767,84.319,180.349,142.959L412.355,173.907z"/>
		<path clip-path="url(#SVGID_2_)" fill="none" stroke="#201C1D" stroke-linecap="round" stroke-miterlimit="10" d="
			M412.355,173.907c-6.582-58.64-51.665-114.039-180.349-142.958C103.323,2.029,65.917-43.079,59.096-103.852l5.744,51.177
			c0.668,5.951,1.388,11.649,2.699,17.299c10.106,49.371,54.129,91.413,170.212,117.501
			c128.683,28.92,173.767,84.319,180.349,142.959L412.355,173.907z"/>
		<g opacity="0.18" clip-path="url(#SVGID_2_)">
			<g>
				<defs>
					<rect id="SVGID_3_" x="58.599" y="-103.91" width="179.324" height="186.52"/>
				</defs>
				<clipPath id="SVGID_4_">
					<use xlink:href="#SVGID_3_"  overflow="visible"/>
				</clipPath>
				<path clip-path="url(#SVGID_4_)" fill="#201C1D" d="M232.007,30.949c-128.684-28.92-166.09-74.028-172.911-134.8l5.744,51.176
					c0.668,5.952,1.388,11.649,2.699,17.3c10.106,49.37,54.199,91.105,170.212,117.501
					C197.606,67.464,211.443,34.308,232.007,30.949"/>
				<path clip-path="url(#SVGID_4_)" fill="none" stroke="#201C1D" stroke-linecap="round" stroke-miterlimit="10" d="
					M232.007,30.949c-128.684-28.92-166.09-74.028-172.911-134.8l5.744,51.176c0.668,5.952,1.388,11.649,2.699,17.3
					c10.106,49.37,54.199,91.105,170.212,117.501C197.606,67.464,211.443,34.308,232.007,30.949z"/>
			</g>
		</g>
		<path clip-path="url(#SVGID_2_)" fill="#2CC0F0" d="M256.229,269.439C127.628,241.247,90.313,196.965,83.608,137.223l5.646,50.309
			c6.705,59.741,44.019,104.023,172.621,132.217C390.479,347.942,384.832,297.634,256.229,269.439"/>
		<path clip-path="url(#SVGID_2_)" fill="none" stroke="#201C1D" stroke-linecap="round" stroke-miterlimit="10" d="
			M256.229,269.439C127.628,241.247,90.313,196.965,83.608,137.223l5.646,50.309c6.705,59.741,44.019,104.023,172.621,132.217
			C390.479,347.942,384.832,297.634,256.229,269.439z"/>
		<path clip-path="url(#SVGID_2_)" fill="#2AABD6" d="M439.1,412.187c-6.582-58.64-51.665-114.039-180.35-142.958
			c-128.684-28.92-166.09-74.028-172.911-134.801l5.744,51.177c0.668,5.951,1.389,11.649,2.699,17.299
			c10.107,49.371,54.13,91.413,170.212,117.501c128.683,28.92,173.768,84.319,180.349,142.959L439.1,412.187z"/>
		<path clip-path="url(#SVGID_2_)" fill="none" stroke="#201C1D" stroke-linecap="round" stroke-miterlimit="10" d="M439.1,412.187
			c-6.582-58.64-51.665-114.039-180.35-142.958c-128.684-28.92-166.09-74.028-172.911-134.801l5.744,51.177
			c0.668,5.951,1.389,11.649,2.699,17.299c10.107,49.371,54.13,91.413,170.212,117.501
			c128.683,28.92,173.768,84.319,180.349,142.959L439.1,412.187z"/>
		<g opacity="0.18" clip-path="url(#SVGID_2_)">
			<g>
				<defs>
					<rect id="SVGID_5_" x="258.566" y="268.74" width="186.77" height="194.68"/>
				</defs>
				<clipPath id="SVGID_6_">
					<use xlink:href="#SVGID_5_"  overflow="visible"/>
				</clipPath>
				<path clip-path="url(#SVGID_6_)" fill="#201C1D" d="M439.1,412.187c-6.582-58.64-51.665-114.039-180.35-142.958
					c40.239,16.165,17.954,50.082,5.744,51.176c128.683,28.92,173.768,84.319,180.349,142.959L439.1,412.187z"/>
				<path clip-path="url(#SVGID_6_)" fill="none" stroke="#201C1D" stroke-linecap="round" stroke-miterlimit="10" d="
					M439.1,412.187c-6.582-58.64-51.665-114.039-180.35-142.958c40.239,16.165,17.954,50.082,5.744,51.176
					c128.683,28.92,173.768,84.319,180.349,142.959L439.1,412.187z"/>
			</g>
		</g>
		<path clip-path="url(#SVGID_2_)" fill="#68BA78" d="M370.255,131.796l-270.57,30.367c-5.56,0.624-10.574-3.377-11.198-8.938
			c-0.624-5.56,3.378-10.574,8.938-11.198l270.569-30.368c5.562-0.624,10.574,3.378,11.198,8.939
			C379.816,126.158,375.815,131.171,370.255,131.796"/>
		<path clip-path="url(#SVGID_2_)" fill="none" stroke="#201C1D" stroke-linecap="round" stroke-miterlimit="10" d="
			M370.255,131.796l-270.57,30.367c-5.56,0.624-10.574-3.377-11.198-8.938c-0.624-5.56,3.378-10.574,8.938-11.198l270.569-30.368
			c5.562-0.624,10.574,3.378,11.198,8.939C379.816,126.158,375.815,131.171,370.255,131.796z"/>
		<path clip-path="url(#SVGID_2_)" fill="#FBE750" d="M237.236,146.725L99.686,162.164c-5.562,0.624-10.574-3.377-11.198-8.938
			c-0.625-5.561,3.377-10.574,8.938-11.198l137.552-15.438c5.56-0.624,10.573,3.377,11.197,8.938
			C246.798,141.087,242.796,146.102,237.236,146.725"/>
		<path clip-path="url(#SVGID_2_)" fill="none" stroke="#201C1D" stroke-linecap="round" stroke-miterlimit="10" d="
			M237.236,146.725L99.686,162.164c-5.562,0.624-10.574-3.377-11.198-8.938c-0.625-5.561,3.377-10.574,8.938-11.198l137.552-15.438
			c5.56-0.624,10.573,3.377,11.197,8.938C246.798,141.087,242.796,146.102,237.236,146.725z"/>
		<path clip-path="url(#SVGID_2_)" fill="#FBE750" d="M229.33,147.612L99.685,162.164c-5.56,0.624-10.574-3.378-11.198-8.938
			c-0.624-5.561,3.378-10.574,8.938-11.198l129.645-14.551c5.561-0.624,10.574,3.378,11.198,8.938S234.89,146.989,229.33,147.612"/>
		<path clip-path="url(#SVGID_2_)" fill="none" stroke="#201C1D" stroke-linecap="round" stroke-miterlimit="10" d="M229.33,147.612
			L99.685,162.164c-5.56,0.624-10.574-3.378-11.198-8.938c-0.624-5.561,3.378-10.574,8.938-11.198l129.645-14.551
			c5.561-0.624,10.574,3.378,11.198,8.938S234.89,146.989,229.33,147.612z"/>
		<path clip-path="url(#SVGID_2_)" fill="#2CC0F0" d="M405.031,214.68l-275.594,30.641c-5.562,0.619-10.57-3.389-11.188-8.95
			c-0.619-5.561,3.388-10.57,8.949-11.189l275.594-30.641c5.562-0.618,10.57,3.389,11.189,8.95
			C414.6,209.052,410.592,214.062,405.031,214.68"/>
		<path clip-path="url(#SVGID_2_)" fill="none" stroke="#201C1D" stroke-linecap="round" stroke-miterlimit="10" d="M405.031,214.68
			l-275.594,30.641c-5.562,0.619-10.57-3.389-11.188-8.95c-0.619-5.561,3.388-10.57,8.949-11.189l275.594-30.641
			c5.562-0.618,10.57,3.389,11.189,8.95C414.6,209.052,410.592,214.062,405.031,214.68z"/>
		<path clip-path="url(#SVGID_2_)" fill="#E8606E" d="M267.02,230.025l-137.582,15.296c-5.562,0.619-10.57-3.388-11.189-8.949
			c-0.617-5.561,3.39-10.571,8.95-11.189l137.582-15.297c5.562-0.618,10.57,3.389,11.189,8.95
			C276.588,224.397,272.58,229.407,267.02,230.025"/>
		<path clip-path="url(#SVGID_2_)" fill="none" stroke="#201C1D" stroke-linecap="round" stroke-miterlimit="10" d="M267.02,230.025
			l-137.582,15.296c-5.562,0.619-10.57-3.388-11.189-8.949c-0.617-5.561,3.39-10.571,8.95-11.189l137.582-15.297
			c5.562-0.618,10.57,3.389,11.189,8.95C276.588,224.397,272.58,229.407,267.02,230.025z"/>
		<path clip-path="url(#SVGID_2_)" fill="#E8606E" d="M259.398,230.873l-129.961,14.449c-5.562,0.619-10.57-3.388-11.189-8.949
			c-0.617-5.562,3.39-10.571,8.95-11.189l129.961-14.45c5.562-0.618,10.57,3.389,11.189,8.95
			C268.967,225.245,264.959,230.255,259.398,230.873"/>
		<path clip-path="url(#SVGID_2_)" fill="none" stroke="#201C1D" stroke-linecap="round" stroke-miterlimit="10" d="
			M259.398,230.873l-129.961,14.449c-5.562,0.619-10.57-3.388-11.189-8.949c-0.617-5.562,3.39-10.571,8.95-11.189l129.961-14.45
			c5.562-0.618,10.57,3.389,11.189,8.95C268.967,225.245,264.959,230.255,259.398,230.873z"/>
		<path clip-path="url(#SVGID_2_)" fill="#68BA78" d="M435.918,489.876L145.78,522.135c-5.562,0.618-10.571-3.39-11.189-8.95
			s3.39-10.57,8.95-11.189l290.138-32.258c5.562-0.619,10.57,3.389,11.189,8.949C445.486,484.248,441.479,489.257,435.918,489.876"
			/>
		<path clip-path="url(#SVGID_2_)" fill="none" stroke="#201C1D" stroke-linecap="round" stroke-miterlimit="10" d="
			M435.918,489.876L145.78,522.135c-5.562,0.618-10.571-3.39-11.189-8.95s3.39-10.57,8.95-11.189l290.138-32.258
			c5.562-0.619,10.57,3.389,11.189,8.949C445.486,484.248,441.479,489.257,435.918,489.876z"/>
		<path clip-path="url(#SVGID_2_)" fill="#FBE750" d="M286.079,506.537L145.78,522.135c-5.562,0.618-10.571-3.389-11.189-8.95
			c-0.618-5.561,3.39-10.57,8.95-11.188l140.299-15.599c5.562-0.619,10.57,3.389,11.189,8.949
			C295.647,500.91,291.64,505.918,286.079,506.537"/>
		<path clip-path="url(#SVGID_2_)" fill="none" stroke="#201C1D" stroke-linecap="round" stroke-miterlimit="10" d="
			M286.079,506.537L145.78,522.135c-5.562,0.618-10.571-3.389-11.189-8.95c-0.618-5.561,3.39-10.57,8.95-11.188l140.299-15.599
			c5.562-0.619,10.57,3.389,11.189,8.949C295.647,500.91,291.64,505.918,286.079,506.537z"/>
		<path clip-path="url(#SVGID_2_)" fill="#FBE750" d="M280.139,507.197L145.78,522.135c-5.562,0.618-10.571-3.389-11.189-8.949
			c-0.618-5.562,3.389-10.571,8.95-11.188l134.358-14.939c5.561-0.618,10.569,3.389,11.188,8.949
			C289.706,501.569,285.699,506.58,280.139,507.197"/>
		<path clip-path="url(#SVGID_2_)" fill="none" stroke="#201C1D" stroke-linecap="round" stroke-miterlimit="10" d="
			M280.139,507.197L145.78,522.135c-5.562,0.618-10.571-3.389-11.189-8.949c-0.618-5.562,3.389-10.571,8.95-11.188l134.358-14.939
			c5.561-0.618,10.569,3.389,11.188,8.949C289.706,501.569,285.699,506.58,280.139,507.197z"/>
		<path clip-path="url(#SVGID_2_)" fill="#2CC0F0" d="M433.599,423.275l-254.795,28.362c-5.562,0.618-10.571-3.388-11.188-8.949
			c-0.619-5.562,3.388-10.571,8.949-11.188l254.795-28.363C436.921,402.518,439.16,422.658,433.599,423.275"/>
		<path clip-path="url(#SVGID_2_)" fill="none" stroke="#201C1D" stroke-linecap="round" stroke-miterlimit="10" d="
			M433.599,423.275l-254.795,28.362c-5.562,0.618-10.571-3.388-11.188-8.949c-0.619-5.562,3.388-10.571,8.949-11.188l254.795-28.363
			C436.921,402.518,439.16,422.658,433.599,423.275z"/>
		<path clip-path="url(#SVGID_2_)" fill="#E8606E" d="M302.381,437.898l-123.578,13.74c-5.561,0.618-10.569-3.389-11.188-8.95
			c-0.619-5.562,3.388-10.569,8.949-11.188l123.577-13.74c5.562-0.618,10.57,3.389,11.189,8.949v0.002
			C311.949,432.271,307.941,437.281,302.381,437.898"/>
		<path clip-path="url(#SVGID_2_)" fill="none" stroke="#201C1D" stroke-linecap="round" stroke-miterlimit="10" d="
			M302.381,437.898l-123.578,13.74c-5.561,0.618-10.569-3.389-11.188-8.95c-0.619-5.562,3.388-10.569,8.949-11.188l123.577-13.74
			c5.562-0.618,10.57,3.389,11.189,8.949v0.002C311.949,432.271,307.941,437.281,302.381,437.898z"/>
		<path clip-path="url(#SVGID_2_)" fill="#E8606E" d="M292.908,438.951l-114.105,12.688c-5.561,0.618-10.569-3.389-11.188-8.949
			c-0.618-5.562,3.389-10.57,8.95-11.189l114.104-12.688c5.562-0.617,10.571,3.389,11.189,8.95v0.001
			C302.477,433.324,298.469,438.333,292.908,438.951"/>
		<path clip-path="url(#SVGID_2_)" fill="none" stroke="#201C1D" stroke-linecap="round" stroke-miterlimit="10" d="
			M292.908,438.951l-114.105,12.688c-5.561,0.618-10.569-3.389-11.188-8.949c-0.618-5.562,3.389-10.57,8.95-11.189l114.104-12.688
			c5.562-0.617,10.571,3.389,11.189,8.95v0.001C302.477,433.324,298.469,438.333,292.908,438.951z"/>
		<path clip-path="url(#SVGID_2_)" fill="#E8606E" d="M389.926,285.857l-144.319,16.046c-5.562,0.618-10.57-3.389-11.189-8.95
			c-0.617-5.561,3.39-10.571,8.95-11.189l144.319-16.046c5.561-0.618,10.569,3.389,11.188,8.95
			C399.493,280.229,395.486,285.24,389.926,285.857"/>
		<path clip-path="url(#SVGID_2_)" fill="none" stroke="#201C1D" stroke-linecap="round" stroke-miterlimit="10" d="
			M389.926,285.857l-144.319,16.046c-5.562,0.618-10.57-3.389-11.189-8.95c-0.617-5.561,3.39-10.571,8.95-11.189l144.319-16.046
			c5.561-0.618,10.569,3.389,11.188,8.95C399.493,280.229,395.486,285.24,389.926,285.857z"/>
		<path clip-path="url(#SVGID_2_)" fill="#2CC0F0" d="M316.9,293.977l-71.293,7.927c-5.562,0.618-10.571-3.389-11.189-8.95
			c-0.619-5.561,3.388-10.571,8.95-11.189l71.293-7.927c5.561-0.618,10.571,3.389,11.188,8.95
			C326.468,288.35,322.461,293.359,316.9,293.977"/>
		<path clip-path="url(#SVGID_2_)" fill="none" stroke="#201C1D" stroke-linecap="round" stroke-miterlimit="10" d="M316.9,293.977
			l-71.293,7.927c-5.562,0.618-10.571-3.389-11.189-8.95c-0.619-5.561,3.388-10.571,8.95-11.189l71.293-7.927
			c5.561-0.618,10.571,3.389,11.188,8.95C326.468,288.35,322.461,293.359,316.9,293.977z"/>
		<path clip-path="url(#SVGID_2_)" fill="#2CC0F0" d="M308.764,294.882l-63.157,7.022c-5.561,0.618-10.57-3.389-11.188-8.95
			s3.389-10.571,8.95-11.189l63.156-7.022c5.562-0.618,10.57,3.389,11.189,8.95C318.332,289.254,314.324,294.264,308.764,294.882"/>
		<path clip-path="url(#SVGID_2_)" fill="none" stroke="#201C1D" stroke-linecap="round" stroke-miterlimit="10" d="
			M308.764,294.882l-63.157,7.022c-5.561,0.618-10.57-3.389-11.188-8.95s3.389-10.571,8.95-11.189l63.156-7.022
			c5.562-0.618,10.57,3.389,11.189,8.95C318.332,289.254,314.324,294.264,308.764,294.882z"/>
		<path clip-path="url(#SVGID_2_)" fill="#2CC0F0" d="M399.541,371.535l-123.16,13.693c-5.562,0.619-10.571-3.388-11.189-8.949
			c-0.619-5.561,3.388-10.571,8.949-11.189l123.162-13.694c5.561-0.618,10.569,3.389,11.188,8.95
			C409.109,365.907,405.103,370.916,399.541,371.535"/>
		<path clip-path="url(#SVGID_2_)" fill="none" stroke="#201C1D" stroke-linecap="round" stroke-miterlimit="10" d="
			M399.541,371.535l-123.16,13.693c-5.562,0.619-10.571-3.388-11.189-8.949c-0.619-5.561,3.388-10.571,8.949-11.189l123.162-13.694
			c5.561-0.618,10.569,3.389,11.188,8.95C409.109,365.907,405.103,370.916,399.541,371.535z"/>
		<path clip-path="url(#SVGID_2_)" fill="#68BA78" d="M284.475,74.005L117.724,92.721c-5.561,0.624-10.574-3.378-11.198-8.938
			s3.378-10.574,8.938-11.198L282.215,53.87c5.56-0.624,10.573,3.377,11.197,8.938C294.036,68.368,290.034,73.382,284.475,74.005"/>
		<path clip-path="url(#SVGID_2_)" fill="none" stroke="#201C1D" stroke-linecap="round" stroke-miterlimit="10" d="M284.475,74.005
			L117.724,92.721c-5.561,0.624-10.574-3.378-11.198-8.938s3.378-10.574,8.938-11.198L282.215,53.87
			c5.56-0.624,10.573,3.377,11.197,8.938C294.036,68.368,290.034,73.382,284.475,74.005z"/>
		<path clip-path="url(#SVGID_2_)" fill="#FBE750" d="M284.475,74.005l-78.516,8.812c-5.56,0.624-10.573-3.377-11.197-8.938
			c-0.624-5.561,3.378-10.574,8.938-11.198l78.516-8.812c5.56-0.624,10.573,3.377,11.197,8.938
			C294.036,68.368,290.034,73.382,284.475,74.005"/>
		<path clip-path="url(#SVGID_2_)" fill="none" stroke="#201C1D" stroke-linecap="round" stroke-miterlimit="10" d="M284.475,74.005
			l-78.516,8.812c-5.56,0.624-10.573-3.377-11.197-8.938c-0.624-5.561,3.378-10.574,8.938-11.198l78.516-8.812
			c5.56-0.624,10.573,3.377,11.197,8.938C294.036,68.368,290.034,73.382,284.475,74.005z"/>
		<path clip-path="url(#SVGID_2_)" fill="#FBE750" d="M284.475,74.005l-71.97,8.077c-5.561,0.625-10.573-3.377-11.197-8.938
			c-0.624-5.56,3.377-10.574,8.938-11.198l71.97-8.077c5.56-0.624,10.573,3.377,11.197,8.938
			C294.036,68.368,290.034,73.382,284.475,74.005"/>
		<path clip-path="url(#SVGID_2_)" fill="none" stroke="#201C1D" stroke-linecap="round" stroke-miterlimit="10" d="M284.475,74.005
			l-71.97,8.077c-5.561,0.625-10.573-3.377-11.197-8.938c-0.624-5.56,3.377-10.574,8.938-11.198l71.97-8.077
			c5.56-0.624,10.573,3.377,11.197,8.938C294.036,68.368,290.034,73.382,284.475,74.005z"/>
		<path clip-path="url(#SVGID_2_)" fill="#6DD4F5" d="M88.21,147.604c-5.16-45.971,21.016-130.17,139.733-190.053
			C342.638-100.303,371.577-168.5,371.577-168.5c7.323,65.251-18.75,121.117-137.467,181
			C115.393,72.382,86.324,131.995,94.282,202.904l-2.387,0.285c-1.704-9.21-2.692-18.425-3.552-28.079L88.21,147.604z"/>
		<path clip-path="url(#SVGID_2_)" fill="none" stroke="#201C1D" stroke-linecap="round" stroke-miterlimit="10" d="M88.21,147.604
			c-5.16-45.971,21.016-130.17,139.733-190.053C342.638-100.303,371.577-168.5,371.577-168.5
			c7.323,65.251-18.75,121.117-137.467,181C115.393,72.382,86.324,131.995,94.282,202.904l-2.387,0.285
			c-1.704-9.21-2.692-18.425-3.552-28.079L88.21,147.604z"/>
		<path clip-path="url(#SVGID_2_)" fill="#6DD4F5" d="M86.662,127.104C81.856,84.29,108.041,8.522,227.354-47.692
			c122.045-57.501,138.711-110.219,134.367-168.391c-1.969-17.541-9.318-40.672-9.318-40.672s11.021,15.599,14.311,44.912
			l4.746,42.293c6.82,60.773-19.655,113.051-138.727,169.777C113.662,56.954,81.979,120.968,88.562,179.608L86.662,127.104z"/>
		<path clip-path="url(#SVGID_2_)" fill="none" stroke="#201C1D" stroke-linecap="round" stroke-miterlimit="10" d="M86.662,127.104
			C81.856,84.29,108.041,8.522,227.354-47.692c122.045-57.501,138.711-110.219,134.367-168.391
			c-1.969-17.541-9.318-40.672-9.318-40.672s11.021,15.599,14.311,44.912l4.746,42.293c6.82,60.773-19.655,113.051-138.727,169.777
			C113.662,56.954,81.979,120.968,88.562,179.608L86.662,127.104z"/>
		<path clip-path="url(#SVGID_2_)" fill="#2CC0F0" d="M83.947,138.499c-6.582-58.64,25.101-122.654,144.172-179.381
			c119.07-56.727,145.547-109.005,138.727-169.777l5.743,51.177c6.821,60.773-19.655,113.05-138.727,169.777
			C114.792,67.021,83.109,131.036,89.691,189.676L83.947,138.499z"/>
		<path clip-path="url(#SVGID_2_)" fill="none" stroke="#201C1D" stroke-linecap="round" stroke-miterlimit="10" d="M83.947,138.499
			c-6.582-58.64,25.101-122.654,144.172-179.381c119.07-56.727,145.547-109.005,138.727-169.777l5.743,51.177
			c6.821,60.773-19.655,113.05-138.727,169.777C114.792,67.021,83.109,131.036,89.691,189.676L83.947,138.499z"/>
		<path clip-path="url(#SVGID_2_)" fill="none" stroke="#201C1D" stroke-linecap="round" stroke-miterlimit="10" d="M331.061-99.066
			c0,0-7.095,9.793-15.889,16.012"/>
		<path clip-path="url(#SVGID_2_)" fill="none" stroke="#201C1D" stroke-linecap="round" stroke-miterlimit="10" d="M331.508-91.016
			c0,0-7.095,9.793-15.889,16.012"/>
		<path clip-path="url(#SVGID_2_)" fill="none" stroke="#201C1D" stroke-linecap="round" stroke-miterlimit="10" d="M331.955-82.965
			c0,0-7.096,9.793-15.889,16.012"/>
		<path clip-path="url(#SVGID_2_)" fill="none" stroke="#201C1D" stroke-linecap="round" stroke-miterlimit="10" d="M332.402-74.914
			c0,0-7.096,9.793-15.89,16.012"/>
		<path clip-path="url(#SVGID_2_)" fill="none" stroke="#201C1D" stroke-linecap="round" stroke-miterlimit="10" d="M332.849-66.864
			c0,0-7.095,9.793-15.889,16.013"/>
		<path clip-path="url(#SVGID_2_)" fill="none" stroke="#201C1D" stroke-linecap="round" stroke-miterlimit="10" d="M129.833,69.23
			c0,0,7.095-9.793,15.89-16.012"/>
		<path clip-path="url(#SVGID_2_)" fill="none" stroke="#201C1D" stroke-linecap="round" stroke-miterlimit="10" d="M129.386,61.179
			c0,0,7.096-9.793,15.89-16.012"/>
		<path clip-path="url(#SVGID_2_)" fill="none" stroke="#201C1D" stroke-linecap="round" stroke-miterlimit="10" d="M128.939,53.128
			c0,0,7.095-9.793,15.889-16.012"/>
		<path clip-path="url(#SVGID_2_)" fill="none" stroke="#201C1D" stroke-linecap="round" stroke-miterlimit="10" d="M128.492,45.078
			c0,0,7.095-9.793,15.889-16.013"/>
		<path clip-path="url(#SVGID_2_)" fill="none" stroke="#201C1D" stroke-linecap="round" stroke-miterlimit="10" d="M128.045,37.027
			c0,0,7.095-9.793,15.889-16.012"/>
		
			<line clip-path="url(#SVGID_2_)" fill="none" stroke="#201C1D" stroke-linecap="round" stroke-miterlimit="10" x1="250.019" y1="-39.991" x2="238.697" y2="-34.287"/>
		
			<line clip-path="url(#SVGID_2_)" fill="none" stroke="#201C1D" stroke-linecap="round" stroke-miterlimit="10" x1="250.019" y1="-32.074" x2="238.697" y2="-26.37"/>
		
			<line clip-path="url(#SVGID_2_)" fill="none" stroke="#201C1D" stroke-linecap="round" stroke-miterlimit="10" x1="250.019" y1="-24.156" x2="238.697" y2="-18.452"/>
		
			<line clip-path="url(#SVGID_2_)" fill="none" stroke="#201C1D" stroke-linecap="round" stroke-miterlimit="10" x1="250.019" y1="-16.238" x2="238.697" y2="-10.534"/>
		
			<line clip-path="url(#SVGID_2_)" fill="none" stroke="#201C1D" stroke-linecap="round" stroke-miterlimit="10" x1="250.019" y1="-8.321" x2="238.697" y2="-2.617"/>
		<path clip-path="url(#SVGID_2_)" fill="#EF919B" d="M61.467-90.675c-5.16-45.971,21.016-130.17,139.732-190.053
			c114.695-57.854,143.635-126.051,143.635-126.051c7.323,65.251-18.75,121.117-137.468,181
			C91.491-167.33,60.736-111.701,66.743-43.012c0.148,1.685,0.605,5.939,0.796,7.637l-2.387,0.285
			c-1.706-9.21-2.692-18.425-3.552-28.079L61.467-90.675z"/>
		<path clip-path="url(#SVGID_2_)" fill="none" stroke="#201C1D" stroke-linecap="round" stroke-miterlimit="10" d="M61.467-90.675
			c-5.16-45.971,21.016-130.17,139.732-190.053c114.695-57.854,143.635-126.051,143.635-126.051
			c7.323,65.251-18.75,121.117-137.468,181C91.491-167.33,60.736-111.701,66.743-43.012c0.148,1.685,0.605,5.939,0.796,7.637
			l-2.387,0.285c-1.706-9.21-2.692-18.425-3.552-28.079L61.467-90.675z"/>
		<path clip-path="url(#SVGID_2_)" fill="#EF919B" d="M302.204,654.709c-103.275-22.642-147.679-55.658-164.636-98.726
			c-4.157-10.561-5.139-8.123-6.459-19.888l4.119,36.705c6.705,59.741,44.02,104.023,172.621,132.217
			C436.452,733.212,430.806,682.904,302.204,654.709"/>
		<path clip-path="url(#SVGID_2_)" fill="none" stroke="#201C1D" stroke-linecap="round" stroke-miterlimit="10" d="
			M302.204,654.709c-103.275-22.642-147.679-55.658-164.636-98.726c-4.157-10.561-5.139-8.123-6.459-19.888l4.119,36.705
			c6.705,59.741,44.02,104.023,172.621,132.217C436.452,733.212,430.806,682.904,302.204,654.709z"/>
		<path clip-path="url(#SVGID_2_)" fill="#C7535F" d="M485.073,797.457c-6.581-58.64-51.665-114.039-180.349-142.959
			s-166.091-74.027-172.911-134.8l5.743,51.177c0.668,5.951,1.389,11.649,2.699,17.299c10.107,49.371,54.13,91.413,170.212,117.501
			c128.684,28.921,173.768,84.319,180.35,142.959L485.073,797.457z"/>
		<path clip-path="url(#SVGID_2_)" fill="none" stroke="#201C1D" stroke-linecap="round" stroke-miterlimit="10" d="
			M485.073,797.457c-6.581-58.64-51.665-114.039-180.349-142.959s-166.091-74.027-172.911-134.8l5.743,51.177
			c0.668,5.951,1.389,11.649,2.699,17.299c10.107,49.371,54.13,91.413,170.212,117.501
			c128.684,28.921,173.768,84.319,180.35,142.959L485.073,797.457z"/>
		<g opacity="0.18" clip-path="url(#SVGID_2_)">
			<g>
				<defs>
					<rect id="SVGID_7_" x="131.316" y="519.64" width="182.55" height="187.311"/>
				</defs>
				<clipPath id="SVGID_8_">
					<use xlink:href="#SVGID_7_"  overflow="visible"/>
				</clipPath>
				<path clip-path="url(#SVGID_8_)" fill="#201C1D" d="M304.725,654.498c-41.879-9.41-74.088-20.537-98.725-33.358
					c-51.066-26.579-69.586-60.446-74.187-101.441l5.744,51.177c0.668,5.951,1.388,11.648,2.698,17.299
					c6.128,29.935,24.725,57.175,64.29,79.799c25.691,14.688,60.226,27.421,105.922,37.703
					C285.12,691.897,284.086,664.583,304.725,654.498"/>
				<path clip-path="url(#SVGID_8_)" fill="none" stroke="#201C1D" stroke-linecap="round" stroke-miterlimit="10" d="
					M304.725,654.498c-41.879-9.41-74.088-20.537-98.725-33.358c-51.066-26.579-69.586-60.446-74.187-101.441l5.744,51.177
					c0.668,5.951,1.388,11.648,2.698,17.299c6.128,29.935,24.725,57.175,64.29,79.799c25.691,14.688,60.226,27.421,105.922,37.703
					C285.12,691.897,284.086,664.583,304.725,654.498z"/>
			</g>
		</g>
		<path clip-path="url(#SVGID_2_)" fill="#2CC0F0" d="M330.19,696.431L187.281,712.47c-5.56,0.625-10.574-3.377-11.198-8.938
			s3.378-10.574,8.938-11.198l142.909-16.039c5.561-0.624,10.573,3.377,11.198,8.938
			C339.752,690.793,335.751,695.808,330.19,696.431"/>
		<path clip-path="url(#SVGID_2_)" fill="none" stroke="#201C1D" stroke-linecap="round" stroke-miterlimit="10" d="M330.19,696.431
			L187.281,712.47c-5.56,0.625-10.574-3.377-11.198-8.938s3.378-10.574,8.938-11.198l142.909-16.039
			c5.561-0.624,10.573,3.377,11.198,8.938C339.752,690.793,335.751,695.808,330.19,696.431z"/>
		<path clip-path="url(#SVGID_2_)" fill="#68BA78" d="M439.561,754.388L170.9,784.542c-5.561,0.624-10.573-3.378-11.197-8.938
			c-0.624-5.56,3.377-10.574,8.938-11.197l268.66-30.153c5.561-0.624,10.574,3.377,11.198,8.938S445.121,753.764,439.561,754.388"/>
		<path clip-path="url(#SVGID_2_)" fill="none" stroke="#201C1D" stroke-linecap="round" stroke-miterlimit="10" d="
			M439.561,754.388L170.9,784.542c-5.561,0.624-10.573-3.378-11.197-8.938c-0.624-5.56,3.377-10.574,8.938-11.197l268.66-30.153
			c5.561-0.624,10.574,3.377,11.198,8.938S445.121,753.764,439.561,754.388z"/>
		<path clip-path="url(#SVGID_2_)" fill="#FBE750" d="M439.561,754.388l-140.111,15.726c-5.562,0.624-10.574-3.378-11.198-8.938
			c-0.624-5.562,3.377-10.575,8.938-11.199l140.112-15.726c5.561-0.623,10.574,3.378,11.198,8.938
			C449.123,748.751,445.121,753.764,439.561,754.388"/>
		<path clip-path="url(#SVGID_2_)" fill="none" stroke="#201C1D" stroke-linecap="round" stroke-miterlimit="10" d="
			M439.561,754.388l-140.111,15.726c-5.562,0.624-10.574-3.378-11.198-8.938c-0.624-5.562,3.377-10.575,8.938-11.199l140.112-15.726
			c5.561-0.623,10.574,3.378,11.198,8.938C449.123,748.751,445.121,753.764,439.561,754.388z"/>
		<path clip-path="url(#SVGID_2_)" fill="#FBE750" d="M439.561,754.388L305.81,769.4c-5.56,0.624-10.573-3.378-11.198-8.938
			c-0.623-5.561,3.379-10.573,8.938-11.198l133.751-15.012c5.561-0.623,10.574,3.378,11.198,8.938
			C449.123,748.751,445.121,753.764,439.561,754.388"/>
		<path clip-path="url(#SVGID_2_)" fill="none" stroke="#201C1D" stroke-linecap="round" stroke-miterlimit="10" d="
			M439.561,754.388L305.81,769.4c-5.56,0.624-10.573-3.378-11.198-8.938c-0.623-5.561,3.379-10.573,8.938-11.198l133.751-15.012
			c5.561-0.623,10.574,3.378,11.198,8.938C449.123,748.751,445.121,753.764,439.561,754.388z"/>
		<path clip-path="url(#SVGID_2_)" fill="#2CC0F0" d="M380.82,577.62l-224.529,24.964c-5.562,0.618-10.571-3.389-11.189-8.949
			c-0.617-5.562,3.39-10.57,8.95-11.189l224.529-24.964c5.561-0.618,10.571,3.389,11.188,8.95
			C390.388,571.992,386.381,577.001,380.82,577.62"/>
		<path clip-path="url(#SVGID_2_)" fill="none" stroke="#201C1D" stroke-linecap="round" stroke-miterlimit="10" d="M380.82,577.62
			l-224.529,24.964c-5.562,0.618-10.571-3.389-11.189-8.949c-0.617-5.562,3.39-10.57,8.95-11.189l224.529-24.964
			c5.561-0.618,10.571,3.389,11.188,8.95C390.388,571.992,386.381,577.001,380.82,577.62z"/>
		<path clip-path="url(#SVGID_2_)" fill="#E8606E" d="M380.82,577.621l-116.658,12.971c-5.562,0.618-10.571-3.389-11.189-8.949
			c-0.618-5.562,3.389-10.571,8.95-11.189l116.658-12.97c5.561-0.619,10.57,3.388,11.188,8.948
			C390.388,571.993,386.381,577.002,380.82,577.621"/>
		<path clip-path="url(#SVGID_2_)" fill="none" stroke="#201C1D" stroke-linecap="round" stroke-miterlimit="10" d="M380.82,577.621
			l-116.658,12.971c-5.562,0.618-10.571-3.389-11.189-8.949c-0.618-5.562,3.389-10.571,8.95-11.189l116.658-12.97
			c5.561-0.619,10.57,3.388,11.188,8.948C390.388,571.993,386.381,577.002,380.82,577.621z"/>
		<path clip-path="url(#SVGID_2_)" fill="#E8606E" d="M380.82,577.621l-109.505,12.175c-5.562,0.618-10.57-3.388-11.188-8.95
			c-0.619-5.561,3.388-10.569,8.949-11.188l109.505-12.175c5.561-0.619,10.57,3.388,11.188,8.948
			C390.388,571.993,386.381,577.002,380.82,577.621"/>
		<path clip-path="url(#SVGID_2_)" fill="none" stroke="#201C1D" stroke-linecap="round" stroke-miterlimit="10" d="M380.82,577.621
			l-109.505,12.175c-5.562,0.618-10.57-3.388-11.188-8.95c-0.619-5.561,3.388-10.569,8.949-11.188l109.505-12.175
			c5.561-0.619,10.57,3.388,11.188,8.948C390.388,571.993,386.381,577.002,380.82,577.621z"/>
		<path clip-path="url(#SVGID_2_)" fill="#2AABD6" d="M328.947,892.989c-110.523-24.229-153.621-60.343-167.81-107.94
			c-2.321-7.785-1.631-16.09-2.573-24.488l3.408,50.521c6.705,59.741,44.019,104.023,172.621,132.218
			C463.196,971.491,457.549,921.183,328.947,892.989"/>
		<path clip-path="url(#SVGID_2_)" fill="none" stroke="#201C1D" stroke-linecap="round" stroke-miterlimit="10" d="
			M328.947,892.989c-110.523-24.229-153.621-60.343-167.81-107.94c-2.321-7.785-1.631-16.09-2.573-24.488l3.408,50.521
			c6.705,59.741,44.019,104.023,172.621,132.218C463.196,971.491,457.549,921.183,328.947,892.989z"/>
		<path clip-path="url(#SVGID_2_)" fill="#2AABD6" d="M511.816,1035.736c-6.582-58.64-51.665-114.039-180.349-142.959
			c-128.685-28.92-166.09-74.027-172.911-134.8l5.744,51.177c0.668,5.951,1.388,11.649,2.699,17.299
			c10.106,49.371,54.129,91.413,170.212,117.501c128.683,28.921,173.767,84.319,180.349,142.959L511.816,1035.736z"/>
		<path clip-path="url(#SVGID_2_)" fill="none" stroke="#201C1D" stroke-linecap="round" stroke-miterlimit="10" d="
			M511.816,1035.736c-6.582-58.64-51.665-114.039-180.349-142.959c-128.685-28.92-166.09-74.027-172.911-134.8l5.744,51.177
			c0.668,5.951,1.388,11.649,2.699,17.299c10.106,49.371,54.129,91.413,170.212,117.501
			c128.683,28.921,173.767,84.319,180.349,142.959L511.816,1035.736z"/>
		<path clip-path="url(#SVGID_2_)" fill="#6DD4F5" d="M160.928,771.154c-5.16-45.972,21.016-130.17,139.732-190.054
			c114.695-57.854,143.634-126.051,143.634-126.051c7.324,65.251-18.959,117.843-137.676,177.726
			c-118.717,59.884-147.577,122.77-139.619,193.679l-2.386,0.285c-1.706-9.21-2.693-18.425-3.552-28.079L160.928,771.154z"/>
		<path clip-path="url(#SVGID_2_)" fill="none" stroke="#201C1D" stroke-linecap="round" stroke-miterlimit="10" d="
			M160.928,771.154c-5.16-45.972,21.016-130.17,139.732-190.054c114.695-57.854,143.634-126.051,143.634-126.051
			c7.324,65.251-18.959,117.843-137.676,177.726c-118.717,59.884-147.577,122.77-139.619,193.679l-2.386,0.285
			c-1.706-9.21-2.693-18.425-3.552-28.079L160.928,771.154z"/>
		<path clip-path="url(#SVGID_2_)" fill="#6DD4F5" d="M159.379,750.654c-4.805-42.816,21.379-118.584,140.692-174.798
			c122.045-57.5,138.711-110.218,134.367-168.39c-0.91-8.102-2.968-17.396-4.917-25.052c-2.273-8.922-4.401-15.621-4.401-15.621
			s11.021,15.6,14.31,44.914L444.176,454c6.821,60.771-19.654,113.049-138.726,169.776S154.697,744.517,161.279,803.157
			L159.379,750.654z"/>
		<path clip-path="url(#SVGID_2_)" fill="none" stroke="#201C1D" stroke-linecap="round" stroke-miterlimit="10" d="
			M159.379,750.654c-4.805-42.816,21.379-118.584,140.692-174.798c122.045-57.5,138.711-110.218,134.367-168.39
			c-0.91-8.102-2.968-17.396-4.917-25.052c-2.273-8.922-4.401-15.621-4.401-15.621s11.021,15.6,14.31,44.914L444.176,454
			c6.821,60.771-19.654,113.049-138.726,169.776S154.697,744.517,161.279,803.157L159.379,750.654z"/>
		<path clip-path="url(#SVGID_2_)" fill="#2CC0F0" d="M156.665,762.048c-6.582-58.64,25.1-122.654,144.171-179.381
			S446.383,473.663,439.563,412.89l5.742,51.178c6.821,60.771-19.654,113.05-138.726,169.776S155.827,754.585,162.409,813.225
			L156.665,762.048z"/>
		<path clip-path="url(#SVGID_2_)" fill="none" stroke="#201C1D" stroke-linecap="round" stroke-miterlimit="10" d="
			M156.665,762.048c-6.582-58.64,25.1-122.654,144.171-179.381S446.383,473.663,439.563,412.89l5.742,51.178
			c6.821,60.771-19.654,113.05-138.726,169.776S155.827,754.585,162.409,813.225L156.665,762.048z"/>
		<path clip-path="url(#SVGID_2_)" fill="#EF919B" d="M134.184,532.874c-5.16-45.971,21.017-130.169,139.733-190.053
			C388.612,284.967,417.551,216.77,417.551,216.77c7.324,65.251-20.107,117.831-138.825,177.713
			c-115.875,58.449-145.272,117.365-139.265,186.054c0.148,1.686,0.605,5.939,0.795,7.637l-2.386,0.285
			c-1.706-9.21-2.693-18.425-3.552-28.078L134.184,532.874z"/>
		<path clip-path="url(#SVGID_2_)" fill="none" stroke="#201C1D" stroke-linecap="round" stroke-miterlimit="10" d="
			M134.184,532.874c-5.16-45.971,21.017-130.169,139.733-190.053C388.612,284.967,417.551,216.77,417.551,216.77
			c7.324,65.251-20.107,117.831-138.825,177.713c-115.875,58.449-145.272,117.365-139.265,186.054
			c0.148,1.686,0.605,5.939,0.795,7.637l-2.386,0.285c-1.706-9.21-2.693-18.425-3.552-28.078L134.184,532.874z"/>
		<path clip-path="url(#SVGID_2_)" fill="#EF919B" d="M132.636,512.375c-4.805-42.816,21.379-118.584,140.692-174.798
			c122.045-57.5,138.711-110.218,134.366-168.39c-0.882-17.547-6.492-36.388-9.317-40.673c0,0,11.02,15.6,14.31,44.913l4.746,42.293
			c6.821,60.772-19.655,113.05-138.726,169.777c-119.071,56.728-150.753,120.741-144.171,179.381L132.636,512.375z"/>
		<path clip-path="url(#SVGID_2_)" fill="none" stroke="#201C1D" stroke-linecap="round" stroke-miterlimit="10" d="
			M132.636,512.375c-4.805-42.816,21.379-118.584,140.692-174.798c122.045-57.5,138.711-110.218,134.366-168.39
			c-0.882-17.547-6.492-36.388-9.317-40.673c0,0,11.02,15.6,14.31,44.913l4.746,42.293c6.821,60.772-19.655,113.05-138.726,169.777
			c-119.071,56.728-150.753,120.741-144.171,179.381L132.636,512.375z"/>
		<path clip-path="url(#SVGID_2_)" fill="#E8606E" d="M129.922,523.769c-6.581-58.64,25.1-122.655,144.171-179.381
			c119.071-56.727,145.548-109.005,138.727-169.778l5.743,51.178c6.821,60.772-19.655,113.05-138.726,169.776
			c-119.071,56.727-150.753,120.742-144.171,179.381L129.922,523.769z"/>
		<path clip-path="url(#SVGID_2_)" fill="none" stroke="#201C1D" stroke-linecap="round" stroke-miterlimit="10" d="
			M129.922,523.769c-6.581-58.64,25.1-122.655,144.171-179.381c119.071-56.727,145.548-109.005,138.727-169.778l5.743,51.178
			c6.821,60.772-19.655,113.05-138.726,169.776c-119.071,56.727-150.753,120.742-144.171,179.381L129.922,523.769z"/>
		<path clip-path="url(#SVGID_2_)" fill="#EF919B" d="M206.238,1155.338c-5.16-45.971,21.016-130.17,139.733-190.053
			c114.694-57.854,143.634-126.052,143.634-126.052c7.323,65.252-18.75,121.117-137.467,181
			c-115.875,58.449-146.631,114.078-140.623,182.768c0.147,1.686,0.604,5.939,0.795,7.637l-2.386,0.285
			c-1.706-9.21-2.693-18.425-3.553-28.079L206.238,1155.338z"/>
		<path clip-path="url(#SVGID_2_)" fill="none" stroke="#201C1D" stroke-linecap="round" stroke-miterlimit="10" d="
			M206.238,1155.338c-5.16-45.971,21.016-130.17,139.733-190.053c114.694-57.854,143.634-126.052,143.634-126.052
			c7.323,65.252-18.75,121.117-137.467,181c-115.875,58.449-146.631,114.078-140.623,182.768c0.147,1.686,0.604,5.939,0.795,7.637
			l-2.386,0.285c-1.706-9.21-2.693-18.425-3.553-28.079L206.238,1155.338z"/>
		<path clip-path="url(#SVGID_2_)" fill="#EF919B" d="M204.69,1134.839c-4.806-42.815,21.379-118.584,140.691-174.799
			c122.045-57.5,138.711-110.218,134.367-168.39c-1.969-17.542-9.318-40.673-9.318-40.673s11.021,15.6,14.311,44.913l4.746,42.293
			c6.82,60.772-19.655,113.05-138.727,169.776c-119.07,56.728-150.753,120.741-144.171,179.382L204.69,1134.839z"/>
		<path clip-path="url(#SVGID_2_)" fill="none" stroke="#201C1D" stroke-linecap="round" stroke-miterlimit="10" d="
			M204.69,1134.839c-4.806-42.815,21.379-118.584,140.691-174.799c122.045-57.5,138.711-110.218,134.367-168.39
			c-1.969-17.542-9.318-40.673-9.318-40.673s11.021,15.6,14.311,44.913l4.746,42.293c6.82,60.772-19.655,113.05-138.727,169.776
			c-119.07,56.728-150.753,120.741-144.171,179.382L204.69,1134.839z"/>
		<path clip-path="url(#SVGID_2_)" fill="#E8606E" d="M201.977,1146.234c-6.582-58.641,25.1-122.655,144.17-179.381
			c119.071-56.728,145.548-109.006,138.728-169.777l5.743,51.177c6.82,60.772-19.655,113.05-138.727,169.777
			c-119.07,56.726-150.753,120.741-144.171,179.381L201.977,1146.234z"/>
		<path clip-path="url(#SVGID_2_)" fill="none" stroke="#201C1D" stroke-linecap="round" stroke-miterlimit="10" d="
			M201.977,1146.234c-6.582-58.641,25.1-122.655,144.17-179.381c119.071-56.728,145.548-109.006,138.728-169.777l5.743,51.177
			c6.82,60.772-19.655,113.05-138.727,169.777c-119.07,56.726-150.753,120.741-144.171,179.381L201.977,1146.234z"/>
		<path clip-path="url(#SVGID_2_)" fill="none" stroke="#201C1D" stroke-linecap="round" stroke-miterlimit="10" d="
			M415.665,200.509c0,0,4.089,26.455-13.949,53.632"/>
		<path clip-path="url(#SVGID_2_)" fill="none" stroke="#201C1D" stroke-linecap="round" stroke-miterlimit="10" d="
			M416.696,209.053c0,0,3.169,11.632-9.172,42.012"/>
		<path clip-path="url(#SVGID_2_)" fill="none" stroke="#201C1D" stroke-linecap="round" stroke-miterlimit="10" d="
			M414.798,194.338c0,0,4.593,12.819-7.748,43.198"/>
		<path clip-path="url(#SVGID_2_)" fill="none" stroke="#201C1D" stroke-linecap="round" stroke-miterlimit="10" d="M418.12,221.157
			c0,0,3.169,13.531-7.748,42.961"/>
		<path clip-path="url(#SVGID_2_)" fill="none" stroke="#201C1D" stroke-linecap="round" stroke-miterlimit="10" d="
			M417.108,213.256c0,0,4.089,26.455-13.949,53.632"/>
		<path clip-path="url(#SVGID_2_)" fill="none" stroke="#201C1D" stroke-linecap="round" stroke-miterlimit="10" d="
			M418.551,226.002c0,0,4.089,30.062-13.949,57.239"/>
		<path clip-path="url(#SVGID_2_)" fill="none" stroke="#201C1D" stroke-linecap="round" stroke-miterlimit="10" d="
			M443.269,442.113c0,0,4.089,26.455-13.949,53.633"/>
		<path clip-path="url(#SVGID_2_)" fill="none" stroke="#201C1D" stroke-linecap="round" stroke-miterlimit="10" d="M444.3,450.658
			c0,0,3.169,11.632-9.172,42.011"/>
		<path clip-path="url(#SVGID_2_)" fill="none" stroke="#201C1D" stroke-linecap="round" stroke-miterlimit="10" d="
			M442.401,435.942c0,0,4.593,12.819-7.748,43.199"/>
		<path clip-path="url(#SVGID_2_)" fill="none" stroke="#201C1D" stroke-linecap="round" stroke-miterlimit="10" d="
			M445.725,462.761c0,0,3.169,13.531-7.749,42.961"/>
		<path clip-path="url(#SVGID_2_)" fill="none" stroke="#201C1D" stroke-linecap="round" stroke-miterlimit="10" d="
			M444.712,454.859c0,0,4.089,26.455-13.949,53.633"/>
		<path clip-path="url(#SVGID_2_)" fill="none" stroke="#201C1D" stroke-linecap="round" stroke-miterlimit="10" d="
			M446.154,467.606c0,0,4.09,30.062-13.948,57.24"/>
		<path clip-path="url(#SVGID_2_)" fill="none" stroke="#201C1D" stroke-linecap="round" stroke-miterlimit="10" d="
			M158.736,782.741c0,0-3.554-26.878,17.533-53.568"/>
		<path clip-path="url(#SVGID_2_)" fill="none" stroke="#201C1D" stroke-linecap="round" stroke-miterlimit="10" d="M157.91,774.072
			c0,0-3.088-11.875,11.783-42.035"/>
		<path clip-path="url(#SVGID_2_)" fill="none" stroke="#201C1D" stroke-linecap="round" stroke-miterlimit="10" d="M159.47,789.007
			c0,0-4.628-13.133,10.242-43.292"/>
		<path clip-path="url(#SVGID_2_)" fill="none" stroke="#201C1D" stroke-linecap="round" stroke-miterlimit="10" d="M156.78,761.792
			c0,0-3.017-13.792,10.234-43.053"/>
		<path clip-path="url(#SVGID_2_)" fill="none" stroke="#201C1D" stroke-linecap="round" stroke-miterlimit="10" d="M157.61,769.812
			c0,0-3.555-26.878,17.532-53.568"/>
		<path clip-path="url(#SVGID_2_)" fill="none" stroke="#201C1D" stroke-linecap="round" stroke-miterlimit="10" d="
			M156.483,756.883c0,0-3.419-30.521,17.669-57.211"/>
		<path clip-path="url(#SVGID_2_)" fill="none" stroke="#201C1D" stroke-linecap="round" stroke-miterlimit="10" d="
			M132.129,541.943c0,0-3.554-26.879,17.533-53.568"/>
		<path clip-path="url(#SVGID_2_)" fill="none" stroke="#201C1D" stroke-linecap="round" stroke-miterlimit="10" d="
			M131.303,533.275c0,0-3.088-11.875,11.783-42.036"/>
		<path clip-path="url(#SVGID_2_)" fill="none" stroke="#201C1D" stroke-linecap="round" stroke-miterlimit="10" d="
			M132.862,548.209c0,0-4.629-13.132,10.242-43.292"/>
		<path clip-path="url(#SVGID_2_)" fill="none" stroke="#201C1D" stroke-linecap="round" stroke-miterlimit="10" d="
			M130.173,520.995c0,0-3.017-13.792,10.234-43.053"/>
		<path clip-path="url(#SVGID_2_)" fill="none" stroke="#201C1D" stroke-linecap="round" stroke-miterlimit="10" d="
			M131.003,529.015c0,0-3.555-26.879,17.532-53.569"/>
		<path clip-path="url(#SVGID_2_)" fill="none" stroke="#201C1D" stroke-linecap="round" stroke-miterlimit="10" d="
			M129.876,516.085c0,0-3.419-30.521,17.669-57.211"/>
		<path clip-path="url(#SVGID_2_)" fill="none" stroke="#201C1D" stroke-linecap="round" stroke-miterlimit="10" d="M86.348,156.933
			c0,0-3.554-26.879,17.533-53.569"/>
		<path clip-path="url(#SVGID_2_)" fill="none" stroke="#201C1D" stroke-linecap="round" stroke-miterlimit="10" d="M85.521,148.264
			c0,0-3.088-11.875,11.783-42.036"/>
		<path clip-path="url(#SVGID_2_)" fill="none" stroke="#201C1D" stroke-linecap="round" stroke-miterlimit="10" d="M87.081,163.198
			c0,0-4.628-13.132,10.243-43.292"/>
		<path clip-path="url(#SVGID_2_)" fill="none" stroke="#201C1D" stroke-linecap="round" stroke-miterlimit="10" d="M84.393,135.984
			c0,0-3.018-13.792,10.233-43.053"/>
		<path clip-path="url(#SVGID_2_)" fill="none" stroke="#201C1D" stroke-linecap="round" stroke-miterlimit="10" d="M85.222,144.004
			c0,0-3.554-26.879,17.533-53.569"/>
		<path clip-path="url(#SVGID_2_)" fill="none" stroke="#201C1D" stroke-linecap="round" stroke-miterlimit="10" d="M84.096,131.075
			c0,0-3.42-30.521,17.668-57.211"/>
		<path clip-path="url(#SVGID_2_)" fill="none" stroke="#201C1D" stroke-linecap="round" stroke-miterlimit="10" d="M409.39,520.454
			c0,0-7.095,9.793-15.889,16.013"/>
		<path clip-path="url(#SVGID_2_)" fill="none" stroke="#201C1D" stroke-linecap="round" stroke-miterlimit="10" d="
			M409.837,528.504c0,0-7.095,9.793-15.889,16.013"/>
		<path clip-path="url(#SVGID_2_)" fill="none" stroke="#201C1D" stroke-linecap="round" stroke-miterlimit="10" d="
			M410.284,536.555c0,0-7.096,9.793-15.89,16.012"/>
		<path clip-path="url(#SVGID_2_)" fill="none" stroke="#201C1D" stroke-linecap="round" stroke-miterlimit="10" d="M410.73,544.606
			c0,0-7.095,9.793-15.889,16.012"/>
		<path clip-path="url(#SVGID_2_)" fill="none" stroke="#201C1D" stroke-linecap="round" stroke-miterlimit="10" d="
			M411.178,552.657c0,0-7.095,9.793-15.889,16.012"/>
		<path clip-path="url(#SVGID_2_)" fill="none" stroke="#201C1D" stroke-linecap="round" stroke-miterlimit="10" d="M208.162,688.75
			c0,0,7.095-9.793,15.889-16.012"/>
		<path clip-path="url(#SVGID_2_)" fill="none" stroke="#201C1D" stroke-linecap="round" stroke-miterlimit="10" d="M207.715,680.7
			c0,0,7.096-9.793,15.89-16.013"/>
		<path clip-path="url(#SVGID_2_)" fill="none" stroke="#201C1D" stroke-linecap="round" stroke-miterlimit="10" d="
			M207.268,672.649c0,0,7.096-9.793,15.89-16.013"/>
		<path clip-path="url(#SVGID_2_)" fill="none" stroke="#201C1D" stroke-linecap="round" stroke-miterlimit="10" d="
			M206.821,664.598c0,0,7.095-9.793,15.889-16.013"/>
		<path clip-path="url(#SVGID_2_)" fill="none" stroke="#201C1D" stroke-linecap="round" stroke-miterlimit="10" d="
			M206.374,656.547c0,0,7.095-9.793,15.889-16.013"/>
		
			<line clip-path="url(#SVGID_2_)" fill="none" stroke="#201C1D" stroke-linecap="round" stroke-miterlimit="10" x1="328.348" y1="579.529" x2="317.025" y2="585.233"/>
		
			<line clip-path="url(#SVGID_2_)" fill="none" stroke="#201C1D" stroke-linecap="round" stroke-miterlimit="10" x1="328.348" y1="587.447" x2="317.025" y2="593.151"/>
		
			<line clip-path="url(#SVGID_2_)" fill="none" stroke="#201C1D" stroke-linecap="round" stroke-miterlimit="10" x1="328.348" y1="595.364" x2="317.025" y2="601.068"/>
		
			<line clip-path="url(#SVGID_2_)" fill="none" stroke="#201C1D" stroke-linecap="round" stroke-miterlimit="10" x1="328.348" y1="603.282" x2="317.025" y2="608.986"/>
		
			<line clip-path="url(#SVGID_2_)" fill="none" stroke="#201C1D" stroke-linecap="round" stroke-miterlimit="10" x1="328.348" y1="611.199" x2="317.025" y2="616.903"/>
		<path clip-path="url(#SVGID_2_)" fill="none" stroke="#201C1D" stroke-linecap="round" stroke-miterlimit="10" d="M380.12,282.917
			c0,0-7.095,9.793-15.89,16.012"/>
		<path clip-path="url(#SVGID_2_)" fill="none" stroke="#201C1D" stroke-linecap="round" stroke-miterlimit="10" d="
			M380.567,290.968c0,0-7.096,9.793-15.89,16.012"/>
		<path clip-path="url(#SVGID_2_)" fill="none" stroke="#201C1D" stroke-linecap="round" stroke-miterlimit="10" d="
			M381.014,299.019c0,0-7.095,9.793-15.889,16.012"/>
		<path clip-path="url(#SVGID_2_)" fill="none" stroke="#201C1D" stroke-linecap="round" stroke-miterlimit="10" d="M381.461,307.07
			c0,0-7.095,9.793-15.889,16.012"/>
		<path clip-path="url(#SVGID_2_)" fill="none" stroke="#201C1D" stroke-linecap="round" stroke-miterlimit="10" d="
			M381.908,315.121c0,0-7.096,9.793-15.889,16.012"/>
		<path clip-path="url(#SVGID_2_)" fill="none" stroke="#201C1D" stroke-linecap="round" stroke-miterlimit="10" d="
			M178.893,451.214c0,0,7.095-9.793,15.889-16.012"/>
		<path clip-path="url(#SVGID_2_)" fill="none" stroke="#201C1D" stroke-linecap="round" stroke-miterlimit="10" d="
			M178.445,443.164c0,0,7.095-9.793,15.889-16.012"/>
		<path clip-path="url(#SVGID_2_)" fill="none" stroke="#201C1D" stroke-linecap="round" stroke-miterlimit="10" d="
			M177.998,435.113c0,0,7.096-9.793,15.89-16.012"/>
		<path clip-path="url(#SVGID_2_)" fill="none" stroke="#201C1D" stroke-linecap="round" stroke-miterlimit="10" d="
			M177.551,427.062c0,0,7.096-9.793,15.89-16.012"/>
		<path clip-path="url(#SVGID_2_)" fill="none" stroke="#201C1D" stroke-linecap="round" stroke-miterlimit="10" d="
			M177.104,419.011c0,0,7.095-9.793,15.889-16.012"/>
		
			<line clip-path="url(#SVGID_2_)" fill="none" stroke="#201C1D" stroke-linecap="round" stroke-miterlimit="10" x1="299.078" y1="341.993" x2="287.756" y2="347.697"/>
		
			<line clip-path="url(#SVGID_2_)" fill="none" stroke="#201C1D" stroke-linecap="round" stroke-miterlimit="10" x1="299.078" y1="349.911" x2="287.756" y2="355.615"/>
		
			<line clip-path="url(#SVGID_2_)" fill="none" stroke="#201C1D" stroke-linecap="round" stroke-miterlimit="10" x1="299.078" y1="357.828" x2="287.756" y2="363.532"/>
		
			<line clip-path="url(#SVGID_2_)" fill="none" stroke="#201C1D" stroke-linecap="round" stroke-miterlimit="10" x1="299.078" y1="365.746" x2="287.756" y2="371.45"/>
		
			<line clip-path="url(#SVGID_2_)" fill="none" stroke="#201C1D" stroke-linecap="round" stroke-miterlimit="10" x1="299.078" y1="373.663" x2="287.756" y2="379.367"/>
		<path clip-path="url(#SVGID_2_)" fill="none" stroke="#201C1D" stroke-linecap="round" stroke-miterlimit="10" d="
			M166.152,246.545c0,0,7.135,3.737,12.23,5.096"/>
		<path clip-path="url(#SVGID_2_)" fill="none" stroke="#201C1D" stroke-linecap="round" stroke-miterlimit="10" d="M166.152,253
			c0,0,7.135,3.737,12.23,5.096"/>
		<path clip-path="url(#SVGID_2_)" fill="none" stroke="#201C1D" stroke-linecap="round" stroke-miterlimit="10" d="
			M166.152,259.455c0,0,7.135,3.737,12.23,5.096"/>
		<path clip-path="url(#SVGID_2_)" fill="none" stroke="#201C1D" stroke-linecap="round" stroke-miterlimit="10" d="
			M166.152,265.909c0,0,7.135,3.737,12.23,5.096"/>
		<path clip-path="url(#SVGID_2_)" fill="none" stroke="#201C1D" stroke-linecap="round" stroke-miterlimit="10" d="
			M166.152,272.364c0,0,7.135,3.737,12.23,5.096"/>
		<path clip-path="url(#SVGID_2_)" fill="none" stroke="#201C1D" stroke-linecap="round" stroke-miterlimit="10" d="
			M166.152,278.818c0,0,7.135,3.737,12.23,5.096"/>
		<path clip-path="url(#SVGID_2_)" fill="none" stroke="#201C1D" stroke-linecap="round" stroke-miterlimit="10" d="
			M199.785,260.813c0,0,7.134,3.737,12.229,5.096"/>
		<path clip-path="url(#SVGID_2_)" fill="none" stroke="#201C1D" stroke-linecap="round" stroke-miterlimit="10" d="
			M199.785,267.268c0,0,7.134,3.737,12.229,5.096"/>
		<path clip-path="url(#SVGID_2_)" fill="none" stroke="#201C1D" stroke-linecap="round" stroke-miterlimit="10" d="
			M199.785,273.723c0,0,7.134,3.737,12.229,5.096"/>
		<path clip-path="url(#SVGID_2_)" fill="none" stroke="#201C1D" stroke-linecap="round" stroke-miterlimit="10" d="
			M199.785,280.177c0,0,7.134,3.737,12.229,5.096"/>
		<path clip-path="url(#SVGID_2_)" fill="none" stroke="#201C1D" stroke-linecap="round" stroke-miterlimit="10" d="
			M199.785,286.632c0,0,7.134,3.737,12.229,5.096"/>
		<path clip-path="url(#SVGID_2_)" fill="none" stroke="#201C1D" stroke-linecap="round" stroke-miterlimit="10" d="
			M199.785,293.087c0,0,7.134,3.737,12.229,5.096"/>
		<path clip-path="url(#SVGID_2_)" fill="none" stroke="#201C1D" stroke-linecap="round" stroke-miterlimit="10" d="M302.354,60.678
			c0,0,7.134,3.737,12.229,5.096"/>
		<path clip-path="url(#SVGID_2_)" fill="none" stroke="#201C1D" stroke-linecap="round" stroke-miterlimit="10" d="M302.354,67.132
			c0,0,7.134,3.737,12.229,5.096"/>
		<path clip-path="url(#SVGID_2_)" fill="none" stroke="#201C1D" stroke-linecap="round" stroke-miterlimit="10" d="M302.354,73.587
			c0,0,7.134,3.737,12.229,5.096"/>
		<path clip-path="url(#SVGID_2_)" fill="none" stroke="#201C1D" stroke-linecap="round" stroke-miterlimit="10" d="M302.354,80.042
			c0,0,7.134,3.737,12.229,5.096"/>
		<path clip-path="url(#SVGID_2_)" fill="none" stroke="#201C1D" stroke-linecap="round" stroke-miterlimit="10" d="M302.354,86.497
			c0,0,7.134,3.737,12.229,5.096"/>
		<path clip-path="url(#SVGID_2_)" fill="none" stroke="#201C1D" stroke-linecap="round" stroke-miterlimit="10" d="M302.354,92.951
			c0,0,7.134,3.737,12.229,5.096"/>
		<path clip-path="url(#SVGID_2_)" fill="none" stroke="#201C1D" stroke-linecap="round" stroke-miterlimit="10" d="M331.374,74.687
			c0,0,7.134,3.737,12.229,5.096"/>
		<path clip-path="url(#SVGID_2_)" fill="none" stroke="#201C1D" stroke-linecap="round" stroke-miterlimit="10" d="M331.374,81.142
			c0,0,7.134,3.737,12.229,5.096"/>
		<path clip-path="url(#SVGID_2_)" fill="none" stroke="#201C1D" stroke-linecap="round" stroke-miterlimit="10" d="M331.374,87.597
			c0,0,7.134,3.737,12.229,5.096"/>
		<path clip-path="url(#SVGID_2_)" fill="none" stroke="#201C1D" stroke-linecap="round" stroke-miterlimit="10" d="M331.374,94.051
			c0,0,7.134,3.737,12.229,5.096"/>
		<path clip-path="url(#SVGID_2_)" fill="none" stroke="#201C1D" stroke-linecap="round" stroke-miterlimit="10" d="
			M331.374,100.506c0,0,7.134,3.737,12.229,5.096"/>
		<path clip-path="url(#SVGID_2_)" fill="none" stroke="#201C1D" stroke-linecap="round" stroke-miterlimit="10" d="M331.374,106.96
			c0,0,7.134,3.737,12.229,5.096"/>
		<path clip-path="url(#SVGID_2_)" fill="none" stroke="#201C1D" stroke-linecap="round" stroke-miterlimit="10" d="
			M364.487,680.476c0,0,7.134,3.737,12.23,5.097"/>
		<path clip-path="url(#SVGID_2_)" fill="none" stroke="#201C1D" stroke-linecap="round" stroke-miterlimit="10" d="
			M364.487,686.931c0,0,7.134,3.736,12.23,5.096"/>
		<path clip-path="url(#SVGID_2_)" fill="none" stroke="#201C1D" stroke-linecap="round" stroke-miterlimit="10" d="
			M364.487,693.385c0,0,7.134,3.737,12.23,5.097"/>
		<path clip-path="url(#SVGID_2_)" fill="none" stroke="#201C1D" stroke-linecap="round" stroke-miterlimit="10" d="M364.487,699.84
			c0,0,7.134,3.737,12.23,5.097"/>
		<path clip-path="url(#SVGID_2_)" fill="none" stroke="#201C1D" stroke-linecap="round" stroke-miterlimit="10" d="
			M364.487,706.294c0,0,7.134,3.737,12.23,5.097"/>
		<path clip-path="url(#SVGID_2_)" fill="none" stroke="#201C1D" stroke-linecap="round" stroke-miterlimit="10" d="M364.487,712.75
			c0,0,7.134,3.737,12.23,5.096"/>
		<path clip-path="url(#SVGID_2_)" fill="none" stroke="#201C1D" stroke-linecap="round" stroke-miterlimit="10" d="
			M393.508,694.486c0,0,7.134,3.737,12.229,5.096"/>
		<path clip-path="url(#SVGID_2_)" fill="none" stroke="#201C1D" stroke-linecap="round" stroke-miterlimit="10" d="
			M393.508,700.941c0,0,7.134,3.736,12.229,5.096"/>
		<path clip-path="url(#SVGID_2_)" fill="none" stroke="#201C1D" stroke-linecap="round" stroke-miterlimit="10" d="
			M393.508,707.395c0,0,7.134,3.737,12.229,5.097"/>
		<path clip-path="url(#SVGID_2_)" fill="none" stroke="#201C1D" stroke-linecap="round" stroke-miterlimit="10" d="M393.508,713.85
			c0,0,7.134,3.737,12.229,5.096"/>
		<path clip-path="url(#SVGID_2_)" fill="none" stroke="#201C1D" stroke-linecap="round" stroke-miterlimit="10" d="
			M393.508,720.304c0,0,7.134,3.737,12.229,5.097"/>
		<path clip-path="url(#SVGID_2_)" fill="none" stroke="#201C1D" stroke-linecap="round" stroke-miterlimit="10" d="
			M393.508,726.759c0,0,7.134,3.736,12.229,5.096"/>
	</g>
	<line fill="none" stroke="#F5F1D8" stroke-miterlimit="10" x1="163" y1="346" x2="189" y2="376"/>
	<text transform="matrix(1 0 0 1 30.3335 337.6665)"><tspan x="0" y="0" fill="#F5F1D8" font-family="'Omnes-Medium'" font-size="13.6349">F</tspan><tspan x="7.268" y="0" fill="#F5F1D8" font-family="'Omnes-Medium'" font-size="13.6349">ig </tspan><tspan x="19.389" y="0" fill="#F5F1D8" font-family="'Omnes-Medium'" font-size="13.6349">1</tspan><tspan x="24.406" y="0" fill="#F5F1D8" font-family="'Omnes-Medium'" font-size="13.6349">. (G</tspan><tspan x="44.572" y="0" fill="#F5F1D8" font-family="'Omnes-Medium'" font-size="13.6349">r</tspan><tspan x="49.562" y="0" fill="#F5F1D8" font-family="'Omnes-Medium'" font-size="13.6349">a</tspan><tspan x="56.557" y="0" fill="#F5F1D8" font-family="'Omnes-Medium'" font-size="13.6349">tui</tspan><tspan x="72.4" y="0" fill="#F5F1D8" font-family="'Omnes-Medium'" font-size="13.6349">t</tspan><tspan x="77.377" y="0" fill="#F5F1D8" font-family="'Omnes-Medium'" font-size="13.6349">ous Science illust</tspan><tspan x="179.31" y="0" fill="#F5F1D8" font-family="'Omnes-Medium'" font-size="13.6349">r</tspan><tspan x="184.313" y="0" fill="#F5F1D8" font-family="'Omnes-Medium'" font-size="13.6349">a</tspan><tspan x="191.308" y="0" fill="#F5F1D8" font-family="'Omnes-Medium'" font-size="13.6349">tion)</tspan></text>
</g>
</svg>
