<?xml version="1.0" encoding="utf-8"?>
<!-- Generator: Adobe Illustrator 16.0.0, SVG Export Plug-In . SVG Version: 6.00 Build 0)  -->
<!DOCTYPE svg PUBLIC "-//W3C//DTD SVG 1.0//EN" "http://www.w3.org/TR/2001/REC-SVG-20010904/DTD/svg10.dtd">
<svg version="1.0" id="Layer_1" xmlns="http://www.w3.org/2000/svg" xmlns:xlink="http://www.w3.org/1999/xlink" x="0px" y="0px"
	 width="548px" height="450px" viewBox="0 0 548 450" enable-background="new 0 0 548 450" xml:space="preserve">
<g>
	<g>
		<g>
			<g>
				<path fill="#E8606E" stroke="#201C1D" stroke-linecap="round" stroke-linejoin="round" stroke-miterlimit="10" d="
					M434.238,159.487c13.036-66.85-67.404-145.374-165.847-149.189C169.95,6.482,107.614,100.79,111.478,157.042
					c56.663,20.254,154.205-34.011,213.522-29.523c26.564,2.01,52.863,8.236,79.488,8.343l0.729-0.277c0.482,0,0.965,0,1.447,0
					L434.238,159.487z"/>
				<g>
					<defs>
						<path id="SVGID_1_" d="M370.292,137.044c-1.157-6.95,23.714-0.785,29.376-4.979c28.581-21.173,117.282-56.705,134.056-35.587
							c26.383,33.216-23.844,100.509-55.55,169.14c-3.291,7.124-4.102-20.171-10.46-24.769
							C445.884,225.066,379.52,192.52,370.292,137.044z"/>
					</defs>
					<clipPath id="SVGID_2_">
						<use xlink:href="#SVGID_1_"  overflow="visible"/>
					</clipPath>
					<path clip-path="url(#SVGID_2_)" fill="#575C63" d="M620.887,67.281L486.906,269.795c0,0-82.792-46.735-97.765-92.085
						c-14.972-45.35-6.754-70.314-6.754-70.314S583.086,34.954,620.887,67.281z"/>
					
						<path clip-path="url(#SVGID_2_)" fill="#F5F1D8" stroke="#201C1D" stroke-linecap="round" stroke-linejoin="round" stroke-miterlimit="10" d="
						M403.469,147.499c0,0,85.356-52.357,105.02-30.118c19.664,22.239-42.878,115.335-42.878,115.335
						S412.708,196.923,403.469,147.499z"/>
					
						<path clip-path="url(#SVGID_2_)" fill="#4794A6" stroke="#201C1D" stroke-linecap="round" stroke-linejoin="round" stroke-miterlimit="10" d="
						M442.86,139.609c2.116-1.291,17.709-10.585,20.373-7.102c2.664,3.484-4.15,10.366-4.15,10.366s16.446-13.85,19.931-10.571
						c3.483,3.279-5.738,14.346-5.738,14.346s12.291-9.416,14.346-7.583c2.056,1.833-7.373,13.149-7.373,13.149
						s4.094-2.492,6.144-1.058c2.049,1.435-10.042,17.215-10.042,17.215s7.173-2.459,9.222,1.229
						c2.05,3.688-18.221,10.049-18.221,10.049s5.816,11.821,3.493,14.154"/>
					
						<use xlink:href="#SVGID_1_"  overflow="visible" fill="none" stroke="#201C1D" stroke-linecap="round" stroke-linejoin="round" stroke-miterlimit="10"/>
				</g>
				<g>
					<defs>
						<path id="SVGID_3_" d="M183.67,131.609c1.156-6.95-23.715-0.785-29.376-4.979C125.713,105.458,37.012,69.926,20.239,91.044
							c-26.383,33.216,18.431,90.455,55.55,169.14c3.348,7.097,4.101-20.171,10.46-24.769
							C108.079,219.631,174.442,187.084,183.67,131.609z"/>
					</defs>
					<clipPath id="SVGID_4_">
						<use xlink:href="#SVGID_3_"  overflow="visible"/>
					</clipPath>
					<path clip-path="url(#SVGID_4_)" fill="#575C63" d="M-66.924,61.846L67.057,264.36c0,0,82.792-46.734,97.764-92.085
						c14.973-45.351,6.756-70.314,6.756-70.314S-29.124,29.519-66.924,61.846z"/>
					
						<path clip-path="url(#SVGID_4_)" fill="#F5F1D8" stroke="#201C1D" stroke-linecap="round" stroke-linejoin="round" stroke-miterlimit="10" d="
						M150.494,142.063c0,0-85.356-52.358-105.02-30.119C25.81,134.184,88.352,227.28,88.352,227.28S141.254,191.488,150.494,142.063
						z"/>
					
						<path clip-path="url(#SVGID_4_)" fill="#4794A6" stroke="#201C1D" stroke-linecap="round" stroke-linejoin="round" stroke-miterlimit="10" d="
						M106.877,137.979c-2.116-1.291-17.709-10.586-20.373-7.102c-2.664,3.484,4.15,10.366,4.15,10.366s-16.446-13.85-19.931-10.571
						c-3.483,3.279,5.738,14.346,5.738,14.346s-12.29-9.415-14.346-7.583c-2.056,1.833,7.373,13.149,7.373,13.149
						s-4.094-2.492-6.144-1.058c-2.049,1.435,10.042,17.215,10.042,17.215s-7.173-2.459-9.222,1.229
						c-2.05,3.689,21.116,9.286,21.116,9.286s-8.712,12.584-6.389,14.918"/>
					
						<use xlink:href="#SVGID_3_"  overflow="visible" fill="none" stroke="#201C1D" stroke-linecap="round" stroke-linejoin="round" stroke-miterlimit="10"/>
				</g>
				<path fill="#E8606E" stroke="#201C1D" stroke-linecap="round" stroke-linejoin="round" stroke-miterlimit="10" d="
					M77.259,298.894c0,0-20.021-79.75,11.413-142.668c23.238-46.514,103.548-89.015,190.768-81.524
					c65.112,5.592,171.725,28.397,196.474,118.21c8.402,30.493,6.909,83.969-6.522,128.809
					C423.039,476.467,77.259,298.894,77.259,298.894z"/>
				<path fill="none" stroke="#201C1D" stroke-linecap="round" stroke-linejoin="round" stroke-miterlimit="10" d="M362.016,90.245
					c0,0,14.014,18.166-8.823,64.359"/>
				<path fill="none" stroke="#201C1D" stroke-linecap="round" stroke-linejoin="round" stroke-miterlimit="10" d="M307.121,78.288
					c0,0,13.728,20.738-5.179,65.122"/>
				<path fill="none" stroke="#201C1D" stroke-linecap="round" stroke-linejoin="round" stroke-miterlimit="10" d="M406.653,108.93
					c0,0,14.014,18.166-8.824,64.359"/>
				<path fill="none" stroke="#201C1D" stroke-linecap="round" stroke-linejoin="round" stroke-miterlimit="10" d="M156.412,96.972
					c0,0-14.014,18.166,8.823,64.359"/>
				<path fill="none" stroke="#201C1D" stroke-linecap="round" stroke-linejoin="round" stroke-miterlimit="10" d="M108.817,129.155
					c0,0-14.014,18.166,8.823,64.359"/>
				<path fill="none" stroke="#201C1D" stroke-linecap="round" stroke-linejoin="round" stroke-miterlimit="10" d="M83.534,167.651
					c0,0-11.92,19.603,15.882,62.989"/>
				<path fill="none" stroke="#201C1D" stroke-linecap="round" stroke-linejoin="round" stroke-miterlimit="10" d="M71.539,223.188
					c0,0-2.798,27.111,32.345,55.975"/>
				<path fill="none" stroke="#201C1D" stroke-linecap="round" stroke-linejoin="round" stroke-miterlimit="10" d="M448.174,141.628
					c0,0,14.014,18.166-8.823,64.359"/>
				<path fill="none" stroke="#201C1D" stroke-linecap="round" stroke-linejoin="round" stroke-miterlimit="10" d="M472.049,182.112
					c0,0,8.824,29.065-8.823,64.359"/>
				<g>
					<defs>
						<path id="SVGID_5_" d="M114.062,171.52c-23.21,39.956-34.024,82.746-36.803,127.374c0,0-63.047,8.968-63.047,26.087
							c0,17.121,76.633,11.414,76.633,11.414S6.06,335.58,5.245,361.667C4.667,380.138,88.4,383.679,88.4,383.679
							s-54.622,4.076-52.176,19.565c2.445,15.49,118.21,31.795,244.573,31.795c126.362,0,231.529-2.445,236.42-18.751
							c4.892-16.305-48.479-18.895-48.479-18.895c42.416,4.833,72.752-2.856,74.004-19.874
							c1.253-17.016-73.624-16.668-73.624-16.668c26.181,2.27,70.926-5.707,70.11-19.565c-0.814-13.859-56.381-22.994-56.381-22.994
							C450.641,85.3,198.223,100.28,114.062,171.52z"/>
					</defs>
					<clipPath id="SVGID_6_">
						<use xlink:href="#SVGID_5_"  overflow="visible"/>
					</clipPath>
					
						<path clip-path="url(#SVGID_6_)" fill="#CDBAAB" stroke="#201C1D" stroke-linecap="round" stroke-linejoin="round" stroke-miterlimit="10" d="
						M-3.897,165.559c0,0-4.821-1.934-5.539,21.95c-27.223,72.927-3.608,112.652-3.608,112.652
						C-61.753,375.148,43.1,428.137,43.1,428.137s61.992,90.941,104.203,97.171s62.801-26.078,62.801-26.078
						s187.887,6.546,222.121,8.024c34.234,1.479,154.436,1.481,158.693-35.15S551.8,438.003,551.8,438.003
						c64.503,7.35,110.635-4.345,112.54-30.223c1.904-25.877-92.039-29.149-92.039-29.149c39.814,3.451,82.383-2.262,86.686-25.361
						c3.303-17.733-32.212-29.395-49.703-33.057C577.813,275.344,508.78,184.207,409.02,157.679
						C309.258,131.151,156.251,92.644-3.897,165.559z"/>
					<path clip-path="url(#SVGID_6_)" fill="#CDBAAB" d="M328.507,257.046c0,0,186.815,60.949,204.706,65.435
						c0,0-42.55-205.031-121.826-247.612c-79.276-42.581-273.276-6.63-303.261,3.292c-29.984,9.923-22,129-22,129l-17.474,59.813
						l173.928,13.044l4.348,34.786l47.83,1.087L328.507,257.046z"/>
					<path clip-path="url(#SVGID_6_)" fill="#F5F1D8" d="M256.712,230.014c0,0-9.784,7.609-3.261,21.741
						c6.521,14.132-20.109,47.614,5.707,50.983s43.209,15.326,43.209-15.111c0-30.437,1.088-54.352-16.306-57.613
						C268.669,226.753,256.712,230.014,256.712,230.014z"/>
					<path clip-path="url(#SVGID_6_)" fill="#CDBAAB" d="M85.024,254.45c0,0-2.87,10.834,3.295-12.365
						c16.207-60.988,111.867-49.03,132.521-82.729c6.096-9.946,42.045,16.227,54.161,16.328c15.011,0.125,36.225-38.89,37.15-23.937
						c2.057,33.224,109.791,31.524,140.849,72.844c19.262,25.627,24.645,47.53,15.425,48.298
						c-4.541,0.379-78.845-33.768-172.139-38.399c-2.169-0.108-27.179-2.354-29.349-2.446
						C172.945,228.091,85.024,254.45,85.024,254.45z"/>
					<path clip-path="url(#SVGID_6_)" fill="#575C63" d="M79.309,254.542c0,0,8.198-36.888,81.743-43.008
						c33.635-2.799,80.441,11.958,91.312,27.176c10.871,15.218,25.622,49.918-1.087,84.79s30.958,38.436,14.846,65.07
						c-27.374,45.251-115.07,30.738-144.553,4.36c-10.396-9.301,2.329-36.661-3.472-50.862
						c-4.498-11.011-28.816-8.453-28.521-19.379c0.247-9.124,2.476-17.758,7.2-25.129c0,0-18.191,1.386-19.519,1.333
						C62.505,274.215,79.309,254.542,79.309,254.542z"/>
					<path clip-path="url(#SVGID_6_)" fill="#575C63" d="M471.487,266.916c0,0-24.762-46.986-78.465-55.381
						c-33.346-5.213-80.441,11.958-91.312,27.176c-10.87,15.218-25.622,49.918,1.087,84.79s-52.083,58.898-24.446,73.223
						c133.7,69.296,162.303-24.456,179.354-83.155c7.337,1.631,25.143,4.725,25.143,4.725s2.479-15.741,1.76-21.029
						C482.009,278.135,483.445,275.612,471.487,266.916z"/>
					<path clip-path="url(#SVGID_6_)" fill="#575C63" d="M194.714,405.827c0,0,15.678,27.491,85.318,25.422
						c69.64-2.069,83.858-27.49,83.858-27.49L194.714,405.827z"/>
					
						<path clip-path="url(#SVGID_6_)" fill="#575C63" stroke="#201C1D" stroke-linecap="round" stroke-linejoin="round" stroke-miterlimit="10" d="
						M263.192,295.477c19.14-47.141-14.156-93.179-66.604-99.725l-2.087,4.325c-3.592,0.413-26.597,0.399-26.597,0.399l2.173,4.671
						l-30.444,0.526l0.044,4.732l-16.675,0.65l-12.206,23.382"/>
					
						<use xlink:href="#SVGID_5_"  overflow="visible" fill="none" stroke="#201C1D" stroke-linecap="round" stroke-linejoin="round" stroke-miterlimit="10"/>
				</g>
				<path fill="#575C63" stroke="#201C1D" stroke-linecap="round" stroke-linejoin="round" stroke-miterlimit="10" d="
					M405.125,399.807c0,0,68.135,9.908,67.399-8.078c-0.735-17.987-39.829-17.802-39.829-17.802s42.948,4.771,43.498-11.565
					c0.55-16.334-32.119-12.662-32.119-12.662s35.055-1.286,33.402-14.317s-35.79-7.156-35.79-7.156"/>
				
					<line fill="none" stroke="#201C1D" stroke-linecap="round" stroke-linejoin="round" stroke-miterlimit="10" x1="482.848" y1="318.292" x2="449.833" y2="312.12"/>
				
					<line fill="none" stroke="#201C1D" stroke-linecap="round" stroke-linejoin="round" stroke-miterlimit="10" x1="102.397" y1="296.331" x2="77.259" y2="298.894"/>
				<path fill="none" stroke="#201C1D" stroke-linecap="round" stroke-linejoin="round" stroke-miterlimit="10" d="M102.442,191.057
					c0,0,1.793-9.406,11.62-19.537"/>
				<path fill="#CDBAAB" stroke="#201C1D" stroke-linecap="round" stroke-linejoin="round" stroke-miterlimit="10" d="
					M425.095,192.097c10.3-4.711,8.63-12.163,5.811-15.732c-4.433-5.611-10.021,0.047-10.021,0.047s12.209-14.227,2.674-22.088
					c-9.536-7.862-20.674,11.306-20.674,11.306s8.397-14.945,0.265-22.327c-8.133-7.383-19.184,7.347-19.184,7.347
					s2.094-7.637-6.531-13.878s-24.001,14.956-24.001,14.956"/>
				<path fill="#575C63" stroke="#201C1D" stroke-linecap="round" stroke-linejoin="round" stroke-miterlimit="10" d="
					M287.454,284.462c0,0-12.626-81.824,80.066-91.887l-1.105,6.675c10.856-0.476,42.816,0.83,42.816,0.83l1.511,3.77l13.376-0.623
					l-0.674,4.083l13.085,4.547l6.931,23.294"/>
				<path fill="#CDBAAB" stroke="#201C1D" stroke-linecap="round" stroke-linejoin="round" stroke-miterlimit="10" d="
					M102.806,205.043c0,0-8.171-11.259-4.153-16.842s10.449,0.354,10.449,0.354s-13.537-10.688-7.786-18.299
					c5.751-7.611,19.137,4.25,19.137,4.25s-12.667-11.614-6.443-18.795s17.706,0.652,17.706,0.652s-1.625-7.747,3.674-11.837
					c5.297-4.09,19.281,12.177,19.281,12.177"/>
				<g>
					<path fill="#4794A6" stroke="#201C1D" stroke-linecap="round" stroke-linejoin="round" stroke-miterlimit="10" d="
						M343.063,137.539c0,0-27.734,70.598-95.812,57.991c-68.077-12.606-82.133-87.159-70.757-94.666
						c11.377-7.508,36.114,31.443,36.114,31.443s-6.604-9.876-12.847-21.854c-8.341-16.007-16.031-35.767-6.438-40.72
						c16.773-8.659,35.945,20.88,35.945,20.88s-10.932-18.433,5.378-26.09c16.311-7.657,32.334,49.66,48.156,61.743
						C308.766,126.906,331.086,133.542,343.063,137.539z"/>
					
						<line fill="none" stroke="#201C1D" stroke-linecap="round" stroke-linejoin="round" stroke-miterlimit="10" x1="229.27" y1="90.613" x2="236.486" y2="102.583"/>
					<path fill="none" stroke="#201C1D" stroke-linecap="round" stroke-linejoin="round" stroke-miterlimit="10" d="
						M262.967,135.796c2.958,3.085,6.37,5.036,10.251,5.814"/>
					<path fill="none" stroke="#201C1D" stroke-linecap="round" stroke-linejoin="round" stroke-miterlimit="10" d="M269.186,164.06
						c4.238,0.554,8.119-0.062,11.634-1.884"/>
					<path fill="none" stroke="#201C1D" stroke-linecap="round" stroke-linejoin="round" stroke-miterlimit="10" d="
						M279.778,142.588c1.456,1.008,3.472,1.52,6.219,1.382"/>
					<path fill="none" stroke="#201C1D" stroke-linecap="round" stroke-linejoin="round" stroke-miterlimit="10" d="
						M236.486,102.583c4.827,8.681,20.613,28.408,24.175,30.792"/>
					<path fill="none" stroke="#201C1D" stroke-linecap="round" stroke-linejoin="round" stroke-miterlimit="10" d="
						M212.609,132.307c9.127,13.967,30.086,34.005,50.125,32.393"/>
					<path fill="none" stroke="#201C1D" stroke-linecap="round" stroke-linejoin="round" stroke-miterlimit="10" d="
						M282.804,126.266c0,0,11.944,13.098,24.152,9.085"/>
					<path fill="#4794A6" stroke="#201C1D" stroke-linecap="round" stroke-linejoin="round" stroke-miterlimit="10" d="
						M251.909,82.243c0,0,15.104-2.162,16.583,3.455c1.479,5.616-8.536,8.877-8.536,8.877s16.598-1.967,18.439,2.64
						c1.844,4.606-7.296,10.678-7.296,10.678s7.622-0.179,8.679,3.833s-7.53,8.354-7.53,8.354"/>
					<path fill="#4794A6" stroke="#201C1D" stroke-linecap="round" stroke-linejoin="round" stroke-miterlimit="10" d="
						M177.689,125.525c0,0-8.636,4.243-7.627,8.267c1.011,4.024,8.634,3.933,8.634,3.933s-9.209,5.965-7.42,10.593
						c1.79,4.627,18.409,2.853,18.409,2.853s-10.052,3.144-8.639,8.777c1.414,5.633,16.543,3.646,16.543,3.646"/>
				</g>
				<path fill="#575C63" stroke="#201C1D" stroke-linecap="round" stroke-linejoin="round" stroke-miterlimit="10" d="
					M145.724,401.743c0,0-70.396,3.064-67.794-15.174c2.604-18.238,42.389-14.02,42.389-14.02s-58.105-2.438-56.98-19.128
					c1.124-16.688,46.078-12.021,46.078-12.021s-39.088-3.597-36.062-16.695c3.026-13.098,33.39-12.688,33.39-12.688"/>
				<g>
					<defs>
						<path id="SVGID_7_" d="M88.135,277.601c0,0,22.727,57.915,83.499,53.86c77.245-5.154,88.803-54.661,88.803-54.661
							s-12.674-57.925-92.14-58.003C98.913,218.729,88.135,277.601,88.135,277.601z"/>
					</defs>
					<clipPath id="SVGID_8_">
						<use xlink:href="#SVGID_7_"  overflow="visible"/>
					</clipPath>
					<path clip-path="url(#SVGID_8_)" fill="#FFFFFF" d="M73.432,276.294c0,0,27.625,68.747,97.818,64.063
						c89.22-5.953,108.056-50.7,108.056-50.7s-20.126-79.339-111.909-79.429C87.256,210.15,73.432,276.294,73.432,276.294z"/>
					<g clip-path="url(#SVGID_8_)">
						
							<ellipse transform="matrix(0.9989 0.0465 -0.0465 0.9989 13.1159 -7.5454)" fill="#EF984A" cx="168.808" cy="278.257" rx="102.005" ry="66.316"/>
						
							<ellipse transform="matrix(0.9989 0.0465 -0.0465 0.9989 13.1183 -7.5468)" fill="#68BA78" cx="168.808" cy="278.258" rx="76.558" ry="66.315"/>
						
							<ellipse transform="matrix(0.9989 0.0465 -0.0465 0.9989 13.118 -7.5466)" fill="#FBE750" cx="168.808" cy="278.257" rx="58.463" ry="57.068"/>
						
							<ellipse transform="matrix(0.9989 0.0465 -0.0465 0.9989 13.1159 -7.5455)" fill="#E8606E" cx="168.808" cy="278.258" rx="44.321" ry="46.805"/>
						
							<ellipse transform="matrix(0.9989 0.0465 -0.0465 0.9989 13.1127 -7.5437)" fill="#2CC0F0" cx="168.808" cy="278.258" rx="32.143" ry="38.239"/>
						
							<ellipse transform="matrix(0.9989 0.0465 -0.0465 0.9989 13.0743 -7.5073)" fill="#201C1D" cx="167.952" cy="277.358" rx="13.393" ry="17.435"/>
						
							<ellipse transform="matrix(0.9989 0.0466 -0.0466 0.9989 12.9294 -7.7907)" fill="#FFFFFF" cx="173.616" cy="273.508" rx="2.977" ry="3.875"/>
					</g>
					
						<path clip-path="url(#SVGID_8_)" fill="#2CC0F0" stroke="#201C1D" stroke-linecap="round" stroke-linejoin="round" stroke-miterlimit="10" d="
						M84.68,279.395c0,0,18.038-57.498,85.683-56.371c53.571,0.893,74.973,31.004,91.32,55.807
						c3.946-15.783-23.676-72.718-72.718-71.026C139.923,209.495,85.807,233.734,84.68,279.395z"/>
					
						<path clip-path="url(#SVGID_8_)" fill="#65D1F4" stroke="#201C1D" stroke-linecap="round" stroke-linejoin="round" stroke-miterlimit="10" d="
						M87.877,274.409c0,0,25.723,20.821,84.703,20.136c58.982-0.687,87.856-17.744,87.856-17.744s0.271,5.152-1.787,11.325
						c-2.058,6.172-30.177,50.065-85.729,52.809C117.368,343.678,88.563,293.612,87.877,274.409z"/>
					
						<use xlink:href="#SVGID_7_"  overflow="visible" fill="none" stroke="#201C1D" stroke-linecap="round" stroke-linejoin="round" stroke-miterlimit="10"/>
				</g>
				<path fill="#F5F1D8" stroke="#201C1D" stroke-linecap="round" stroke-linejoin="round" stroke-miterlimit="10" d="
					M263.938,296.87c18.375-2.786,24.803-1.691,24.803-1.691c52.614,30.065,85.372,80.5,62.545,108.764
					c-22.828,28.264-140.229,27.176-155.448-6.522C180.62,363.721,216.208,308.976,263.938,296.87z"/>
				<g>
					<g>
						<defs>
							<path id="SVGID_9_" d="M289.723,276.012c0,0,24.41,60.747,86.434,56.608c78.838-5.261,95.482-44.8,95.482-44.8
								s-17.783-70.107-98.887-70.187C301.938,217.565,289.723,276.012,289.723,276.012z"/>
						</defs>
						<clipPath id="SVGID_10_">
							<use xlink:href="#SVGID_9_"  overflow="visible"/>
						</clipPath>
						<path clip-path="url(#SVGID_10_)" fill="#FFFFFF" d="M275.931,276.317c0,0,28.194,70.164,99.834,65.384
							c91.06-6.075,110.283-51.745,110.283-51.745s-20.54-80.975-114.216-81.066C290.04,208.81,275.931,276.317,275.931,276.317z"/>
						<g clip-path="url(#SVGID_10_)">
							
								<ellipse transform="matrix(0.9989 0.0465 -0.0465 0.9989 13.3911 -17.1497)" fill="#EF984A" cx="375.426" cy="279.342" rx="102.005" ry="66.315"/>
							
								<ellipse transform="matrix(0.9989 0.0465 -0.0465 0.9989 13.3902 -17.1487)" fill="#68BA78" cx="375.426" cy="279.342" rx="76.558" ry="66.315"/>
							
								<ellipse transform="matrix(0.9989 0.0465 -0.0465 0.9989 13.3894 -17.1477)" fill="#E8606E" cx="375.426" cy="279.342" rx="58.462" ry="57.067"/>
							
								<ellipse transform="matrix(0.9989 0.0465 -0.0465 0.9989 13.3896 -17.1479)" fill="#2CC0F0" cx="375.426" cy="279.342" rx="44.321" ry="46.805"/>
							
								<ellipse transform="matrix(0.9989 0.0465 -0.0465 0.9989 13.3907 -17.1493)" fill="#FBE750" cx="375.426" cy="279.342" rx="32.143" ry="38.239"/>
							
								<ellipse transform="matrix(0.9989 0.0465 -0.0465 0.9989 13.3476 -17.11)" fill="#201C1D" cx="374.571" cy="278.443" rx="13.393" ry="17.434"/>
							
								<ellipse transform="matrix(0.9989 0.0464 -0.0464 0.9989 13.1541 -17.3515)" fill="#FFFFFF" cx="380.234" cy="274.593" rx="2.977" ry="3.876"/>
						</g>
						
							<path clip-path="url(#SVGID_10_)" fill="#2CC0F0" stroke="#201C1D" stroke-linecap="round" stroke-linejoin="round" stroke-miterlimit="10" d="
							M288.834,280.157c0,0,19.261-32.712,86.905-31.584c53.571,0.893,82.777,11.399,95.899,39.248
							c3.945-15.784-29.478-80.946-78.52-79.255S289.961,234.497,288.834,280.157z"/>
						
							<path clip-path="url(#SVGID_10_)" fill="#65D1F4" stroke="#201C1D" stroke-linecap="round" stroke-linejoin="round" stroke-miterlimit="10" d="
							M289.723,276.012c0,0,10.957,45.395,77.068,47.398c66.113,2.003,103.237-34.766,104.848-35.59
							c3.734,9.221-2.438,22.938-15.47,33.225c-13.03,10.287-55.552,22.633-86.415,22.633
							C338.892,343.678,294.734,313.965,289.723,276.012z"/>
						
							<use xlink:href="#SVGID_9_"  overflow="visible" fill="none" stroke="#201C1D" stroke-linecap="round" stroke-linejoin="round" stroke-miterlimit="10"/>
					</g>
				</g>
				<path fill="#F5F1D8" stroke="#201C1D" stroke-linecap="round" stroke-linejoin="round" stroke-miterlimit="10" d="
					M262.489,307.743c0,0-3.33-2.014-3.33-5.004s4.596-3.119,4.596-3.119s-3.599-2.861-3.1-4.357
					c0.498-1.495,4.631-2.235,4.631-2.235s-4.689-3.365-2.197-4.86c2.492-1.496,5.042-2.374,5.042-2.374"/>
				<path fill="#F5F1D8" stroke="#201C1D" stroke-linecap="round" stroke-linejoin="round" stroke-miterlimit="10" d="
					M194.564,369.579c0,0-3.04-2.429-2.652-5.394c0.389-2.966,3.822-3.052,3.822-3.052s-2.058-2.75-1.369-4.168
					s4.001-1.934,4.001-1.934s-2.102-3.829-1.196-5.863c0.905-2.033,3.948,2.154,3.948,2.154"/>
				<path fill="#F5F1D8" stroke="#201C1D" stroke-linecap="round" stroke-linejoin="round" stroke-miterlimit="10" d="
					M284.191,286.602c0,0,7.304-1.956,8.308,0.861c1.004,2.816-3.281,4.48-3.281,4.48s4.35,1.488,4.383,3.063
					c0.032,1.576-3.612,3.661-3.612,3.661s5.547,1.596,3.701,3.841s-3.953,3.929-3.953,3.929"/>
				<path fill="#575C63" stroke="#201C1D" stroke-linecap="round" stroke-linejoin="round" stroke-miterlimit="10" d="
					M371.045,418.387c1.609,1.178,2.803,2.972,4.66,3.696c2.734,1.066,6.193-1.121,6.402-4.049
					c-0.518,2.038,1.843,3.954,3.914,3.592c2.07-0.362,3.562-2.278,4.196-4.282c-0.19,1.765,2.452,2.574,3.947,1.616
					c1.494-0.958,3.004-7.976,3.327-9.722"/>
				<path fill="#575C63" stroke="#201C1D" stroke-linecap="round" stroke-linejoin="round" stroke-miterlimit="10" d="
					M134.946,397.3c-2.499,2.021-4.115,5.099-4.362,8.304c-0.026,0.346-0.031,0.721,0.163,1.008c0.188,0.278,0.522,0.416,0.848,0.5
					c1.724,0.441,3.691-0.369,4.604-1.896c0.006,1.706-2.508,3.302,0.02,5.116c2.526,1.815,3.104,0.016,4.197-1.062
					c1.092-1.076,1.705-2.534,2.293-3.951c-0.747,1.899,0.113,4.289,1.9,5.276c1.085,0.601,2.996,0.126,2.744-1.089
					c0.246,0.319,0.492,0.64,0.774,0.929c1.37,1.407,3.569,1.936,5.429,1.305c0.754-0.256,1.438-0.679,2.148-1.038
					c3.327-1.68,7.355-1.907,10.851-0.613"/>
				<path fill="none" stroke="#201C1D" stroke-linecap="round" stroke-linejoin="round" stroke-miterlimit="10" d="M318.89,130.922
					c0,0-2.081,9.812-16.948,12.488"/>
				<path fill="none" stroke="#201C1D" stroke-linecap="round" stroke-linejoin="round" stroke-miterlimit="10" d="M325.432,132.409
					c0,0-0.595,5.055-5.649,8.028"/>
				<path fill="none" stroke="#201C1D" stroke-linecap="round" stroke-linejoin="round" stroke-miterlimit="10" d="M331.811,134.101
					c0,0-1.027,7.525-13.516,16.445"/>
				<path fill="none" stroke="#201C1D" stroke-linecap="round" stroke-linejoin="round" stroke-miterlimit="10" d="M338.489,136.152
					c0,0-1.758,6.069-8.598,13.799"/>
				<path fill="none" stroke="#201C1D" stroke-linecap="round" stroke-linejoin="round" stroke-miterlimit="10" d="M325.729,154.412
					c0,0-12.488,17.245-24.679,22.894"/>
				<path fill="none" stroke="#201C1D" stroke-linecap="round" stroke-linejoin="round" stroke-miterlimit="10" d="M195.871,80.557
					c-1.472,4.622-0.134,10.021,3.325,13.421"/>
				<path fill="none" stroke="#201C1D" stroke-linecap="round" stroke-linejoin="round" stroke-miterlimit="10" d="M202.156,80.927
					c2,4.527,4.926,8.643,8.544,12.02"/>
				<path fill="none" stroke="#201C1D" stroke-linecap="round" stroke-linejoin="round" stroke-miterlimit="10" d="M205.06,105.887
					c1.383,4.842,4.125,9.288,7.832,12.696"/>
				<path fill="none" stroke="#201C1D" stroke-linecap="round" stroke-linejoin="round" stroke-miterlimit="10" d="M219.605,107.843
					c4.231,5.32,8.463,10.641,12.694,15.962"/>
				<path fill="none" stroke="#201C1D" stroke-linecap="round" stroke-linejoin="round" stroke-miterlimit="10" d="M221.69,131.33
					c2.953,4.172,15.193,13.868,20.139,15.159"/>
				<path fill="none" stroke="#201C1D" stroke-linecap="round" stroke-linejoin="round" stroke-miterlimit="10" d="M219.256,93.669
					c2.966,3.075,5.932,6.15,8.897,9.225"/>
				<path fill="none" stroke="#201C1D" stroke-linecap="round" stroke-linejoin="round" stroke-miterlimit="10" d="M241.137,121.708
					c2.726,4.281,6.641,7.795,11.191,10.042"/>
				<path fill="none" stroke="#201C1D" stroke-linecap="round" stroke-linejoin="round" stroke-miterlimit="10" d="M238.584,137.216
					c3.045,3.242,6.727,5.883,10.773,7.729"/>
				<path fill="none" stroke="#201C1D" stroke-linecap="round" stroke-linejoin="round" stroke-miterlimit="10" d="M239.879,152.985
					c8.879,5.847,21.857,7.497,30.102,6.28"/>
				<path fill="none" stroke="#201C1D" stroke-linecap="round" stroke-linejoin="round" stroke-miterlimit="10" d="M262.195,150.422
					c5.304,1.042,10.741,1.402,16.136,1.069"/>
				<path fill="none" stroke="#201C1D" stroke-linecap="round" stroke-linejoin="round" stroke-miterlimit="10" d="M233.974,79.714
					c0.695,3.959,2.062,7.798,4.025,11.306"/>
				<path fill="none" stroke="#201C1D" stroke-linecap="round" stroke-linejoin="round" stroke-miterlimit="10" d="M240.143,83.067
					c2.059,5.363,5.627,10.137,10.188,13.63c0.187,0.143,0.397,0.359,0.307,0.577c-0.09,0.217-0.508-0.077-0.285-0.155"/>
				<path fill="none" stroke="#201C1D" stroke-linecap="round" stroke-linejoin="round" stroke-miterlimit="10" d="M243.967,102.008
					c3.226,4.787,7.045,9.172,11.344,13.024c0.219,0.196,0.545,0.398,0.777,0.218c0.231-0.18-0.302-0.547-0.273-0.254"/>
				<path fill="none" stroke="#201C1D" stroke-linecap="round" stroke-linejoin="round" stroke-miterlimit="10" d="M259.007,107.516
					c2.608,1.894,4.94,4.697,5.708,7.828c0.045,0.184,0.086,0.369,0.128,0.554"/>
				<path fill="none" stroke="#201C1D" stroke-linecap="round" stroke-linejoin="round" stroke-miterlimit="10" d="M266.465,130.862
					"/>
				<path fill="none" stroke="#201C1D" stroke-linecap="round" stroke-linejoin="round" stroke-miterlimit="10" d="M257.864,120.325
					c1.69,1.444,2.6,3.57,3.682,5.512c1.083,1.942,2.567,3.89,4.72,4.446"/>
				<path fill="none" stroke="#201C1D" stroke-linecap="round" stroke-linejoin="round" stroke-miterlimit="10" d="M271.395,126.412
					c1.196,1.914,5.264,5.264,8.853,5.742"/>
				<path fill="none" stroke="#201C1D" stroke-linecap="round" stroke-linejoin="round" stroke-miterlimit="10" d="M270.334,133.257
					c2.607,2.129,5.868,3.447,9.223,3.727"/>
				<path fill="none" stroke="#201C1D" stroke-linecap="round" stroke-linejoin="round" stroke-miterlimit="10" d="M240.26,72.281
					c1.825,2,3.641,4.007,5.447,6.023C245.823,78.433,240.145,72.153,240.26,72.281z"/>
				<path fill="none" stroke="#201C1D" stroke-linecap="round" stroke-linejoin="round" stroke-miterlimit="10" d="M308.09,146.479
					c-4.472,2.983-9.854,4.582-15.229,4.524"/>
				<path fill="none" stroke="#201C1D" stroke-linecap="round" stroke-linejoin="round" stroke-miterlimit="10" d="M307.608,155.534
					c-5.24,2.512-10.961,4.017-16.759,4.411"/>
				<path fill="none" stroke="#201C1D" stroke-linecap="round" stroke-linejoin="round" stroke-miterlimit="10" d="M306.401,164.917
					c-6.367,4.495-14.225,6.836-22.014,6.561"/>
				<path fill="none" stroke="#201C1D" stroke-linecap="round" stroke-linejoin="round" stroke-miterlimit="10" d="M180.269,120.781
					c0.333,2.459,1.645,4.771,3.584,6.319"/>
				<path fill="none" stroke="#201C1D" stroke-linecap="round" stroke-linejoin="round" stroke-miterlimit="10" d="M187.621,120.036
					c1.227,5.897,3.833,10.54,8.165,14.989"/>
				<path fill="none" stroke="#201C1D" stroke-linecap="round" stroke-linejoin="round" stroke-miterlimit="10" d="M197.653,121.802
					c-0.25,2.802,6.315,12.02,9.961,13.426"/>
				<path fill="none" stroke="#201C1D" stroke-linecap="round" stroke-linejoin="round" stroke-miterlimit="10" d="M197.205,145.898
					c0.664,2.323,5.501,6.598,7.799,7.542"/>
				<path fill="none" stroke="#201C1D" stroke-linecap="round" stroke-linejoin="round" stroke-miterlimit="10" d="M208.283,145.758
					c3.075,3.865,7.084,6.981,11.587,9.01"/>
				<path fill="none" stroke="#201C1D" stroke-linecap="round" stroke-linejoin="round" stroke-miterlimit="10" d="M206.868,164.001
					c1.51,3.649,4.814,6.504,8.645,7.466"/>
				<path fill="none" stroke="#201C1D" stroke-linecap="round" stroke-linejoin="round" stroke-miterlimit="10" d="M225.214,179.168
					c4.306,3.094,9.549,4.862,14.848,5.008"/>
				<path fill="none" stroke="#201C1D" stroke-linecap="round" stroke-linejoin="round" stroke-miterlimit="10" d="M219.934,164.286
					c2.65,2.562,7.195,5.194,13.123,7.113"/>
				<path fill="none" stroke="#201C1D" stroke-linecap="round" stroke-linejoin="round" stroke-miterlimit="10" d="M232.34,161.229
					c5.254,3.204,11.284,5.126,17.424,5.555"/>
				<path fill="none" stroke="#201C1D" stroke-linecap="round" stroke-linejoin="round" stroke-miterlimit="10" d="M246.549,175.806
					c3.551,1.091,7.14,0.374,10.925-0.842"/>
				<path fill="none" stroke="#201C1D" stroke-linecap="round" stroke-linejoin="round" stroke-miterlimit="10" d="M248.569,184.771
					c7.119,1.13,14.915,1.13,21.412-1.252"/>
				<path fill="none" stroke="#201C1D" stroke-linecap="round" stroke-linejoin="round" stroke-miterlimit="10" d="M263.801,189.846
					c2.451,0.669,18.307-0.697,21.851-3.481"/>
				<path fill="none" stroke="#201C1D" stroke-linecap="round" stroke-linejoin="round" stroke-miterlimit="10" d="M267.463,178.071
					c4.213,1.275,8.814,1.232,13.004-0.122"/>
				<path fill="none" stroke="#201C1D" stroke-linecap="round" stroke-linejoin="round" stroke-miterlimit="10" d="M310.094,160.918
					c2.893-1.262,5.469-3.103,7.361-6.152"/>
				<path fill="none" stroke="#201C1D" stroke-linecap="round" stroke-linejoin="round" stroke-miterlimit="10" d="M290.87,141.176
					c2.535-0.287,5.07-0.574,7.605-0.862"/>
				<path fill="none" stroke="#201C1D" stroke-linecap="round" stroke-linejoin="round" stroke-miterlimit="10" d="M296.442,134.105
					c1.683,0.338,6.555-2.107,6.081-6.156"/>
				<path fill="none" stroke="#201C1D" stroke-linecap="round" stroke-linejoin="round" stroke-miterlimit="10" d="M292.907,131.416
					c1.77-0.654,3.127-2.313,3.418-4.177"/>
				<path fill="none" stroke="#201C1D" stroke-linecap="round" stroke-linejoin="round" stroke-miterlimit="10" d="M288.446,128.933
					c0.529-0.163,1.592-1.545,1.595-2.073"/>
				<path fill="#575C63" stroke="#201C1D" stroke-linecap="round" stroke-linejoin="round" stroke-miterlimit="10" d="M50.52,198.05
					c-0.144-0.153,0.273-0.281,0.325-0.077c0.052,0.203-0.146,0.377-0.32,0.493c-2.841,1.877-6.08,3.148-9.439,3.705
					c-1.457,0.242-3.081,0.313-4.276-0.554c-1.062-0.771-1.553-2.246-1.163-3.499c0.39-1.252,1.63-2.189,2.942-2.222
					c-1.331-0.762-2.921,0.389-4.446,0.544c-1.906,0.192-3.783-1.543-3.712-3.458c0.085-2.287,2.434-3.831,4.659-4.365
					c-0.7,0.817-2.028,1-2.923,0.403s-1.236-1.894-0.751-2.854c0.872-1.725,3.341-1.601,5.079-2.445
					c-0.993-0.039-1.985-0.078-2.979-0.117c-1.143-0.795-0.533-2.713,0.626-3.484s2.634-0.918,3.844-1.606
					c0.124-0.071,0.245-0.147,0.364-0.226"/>
				<path fill="#575C63" stroke="#201C1D" stroke-linecap="round" stroke-linejoin="round" stroke-miterlimit="10" d="
					M514.508,176.142c-0.021,0.208-0.392-0.023-0.271-0.195c0.121-0.172,0.381-0.137,0.583-0.08
					c3.278,0.922,6.357,2.541,8.976,4.718c1.137,0.944,2.252,2.126,2.378,3.598c0.112,1.307-0.684,2.643-1.886,3.168
					c-1.203,0.524-2.723,0.199-3.605-0.772c0.294,1.505,2.204,1.954,3.319,3.008c1.392,1.315,1.306,3.871-0.188,5.069
					c-1.786,1.432-4.489,0.664-6.349-0.67c1.075-0.005,2.083,0.881,2.216,1.948c0.134,1.067-0.625,2.173-1.668,2.434
					c-1.875,0.468-3.396-1.48-5.171-2.243c0.619,0.776,1.239,1.553,1.858,2.33c0.146,1.384-1.703,2.178-3.045,1.805
					c-1.342-0.372-2.416-1.392-3.729-1.856c-0.135-0.048-0.272-0.089-0.409-0.129"/>
				<path fill="#575C63" stroke="#201C1D" stroke-linecap="round" stroke-linejoin="round" stroke-miterlimit="10" d="
					M487.233,97.18c-0.087-1.661-2.318-6.787,0.154-8.034c2.474-1.247,3.576,1.059,4.051,2.016c0.137-1.139-0.049-3.711,1.3-4.161
					s3.218,1.277,3.729,2.436c0.17-1.784,0.792-3.523,1.791-5.011c0.296-0.44,0.656-0.883,1.164-1.039
					c0.906-0.278,1.853,0.537,2.076,1.458c0.225,0.921-0.062,1.88-0.347,2.785c1.36-1.416,3.185-3.865,4.804-3.416
					c1.618,0.45,0.446,3.304,0.414,4.296c0.898-1.412,2.756-4.838,4.902-4.252s0.946,5.315,2.03,7.778"/>
				<path fill="#F5F1D8" stroke="#201C1D" stroke-linecap="round" stroke-linejoin="round" stroke-miterlimit="10" d="
					M492.748,181.125c1.704,0.432,3.407,0.863,5.11,1.295c1.023,0.259,2.078,0.521,3.123,0.373c1.046-0.147,2.092-0.804,2.371-1.822
					s-0.543-2.277-1.593-2.171c-0.67,0.068-1.7,0.384-1.74-0.288c1.417,0.095,2.901,0.178,4.193-0.411
					c1.292-0.589,2.288-2.089,1.813-3.427c-1.293-0.015-2.585-0.029-3.877-0.044c1.463-0.434,2.873-1.047,4.189-1.821
					c0.861-0.507,1.781-1.278,1.691-2.273c-0.09-1.018-1.275-1.643-2.289-1.514c-1.015,0.129-1.874,0.782-2.68,1.411
					c1.242-0.849,2.484-1.698,3.727-2.547c0.336-0.229,0.685-0.474,0.873-0.834c0.545-1.042-0.676-2.274-1.852-2.281
					s-2.21,0.711-3.252,1.254c-1.043,0.543-2.37,0.913-3.345,0.254c0.076-0.283,0.134-0.633-0.081-0.831
					c-0.217-0.199-0.663,0.162-0.424,0.332"/>
				<path fill="#F5F1D8" stroke="#201C1D" stroke-linecap="round" stroke-linejoin="round" stroke-miterlimit="10" d="
					M96.729,118.751c0.837-2.177,2.229-6.851,1.213-7.868c-1.018-1.017-4.185,0.148-4.866,1.727
					c0.284-1.328,1.069-6.132-0.624-6.674c-1.695-0.543-4,3.524-4,3.524s0.746-5.22-1.355-5.287
					c-2.102-0.068-4.338,4.609-4.338,4.609s0.072-2.521-1.152-2.847c-1.225-0.326-3.118,3.457-6.778,4.134"/>
				<path fill="none" stroke="#201C1D" stroke-linecap="round" stroke-linejoin="round" stroke-miterlimit="10" d="M122.841,104.341
					c0,0,4.457-5.343,10.628-5.343"/>
				<path fill="none" stroke="#201C1D" stroke-linecap="round" stroke-linejoin="round" stroke-miterlimit="10" d="M127.909,94.34
					c0,0,3.847-4.942,10.018-4.942"/>
				<path fill="none" stroke="#201C1D" stroke-linecap="round" stroke-linejoin="round" stroke-miterlimit="10" d="M135.075,82.396
					c0,0,3.881-4.655,10.052-4.655"/>
				<path fill="none" stroke="#201C1D" stroke-linecap="round" stroke-linejoin="round" stroke-miterlimit="10" d="M138.75,76.791
					c0,0,2.376-2.851,6.156-2.851"/>
				<path fill="none" stroke="#201C1D" stroke-linecap="round" stroke-linejoin="round" stroke-miterlimit="10" d="M131.859,86.99
					c0,0,2.377-2.851,6.156-2.851"/>
				<path fill="none" stroke="#201C1D" stroke-linecap="round" stroke-linejoin="round" stroke-miterlimit="10" d="M125.427,98.842
					c0,0,2.377-2.851,6.156-2.851"/>
				<path fill="none" stroke="#201C1D" stroke-linecap="round" stroke-linejoin="round" stroke-miterlimit="10" d="M145.733,67.787
					c0,0,2.377-2.851,6.156-2.851"/>
				<path fill="none" stroke="#201C1D" stroke-linecap="round" stroke-linejoin="round" stroke-miterlimit="10" d="M154.737,57.68
					c0,0,2.377-2.851,6.156-2.851"/>
				<path fill="none" stroke="#201C1D" stroke-linecap="round" stroke-linejoin="round" stroke-miterlimit="10" d="M141.415,73.392
					c0,0,3.712-4.564,9.884-4.564"/>
				<path fill="none" stroke="#201C1D" stroke-linecap="round" stroke-linejoin="round" stroke-miterlimit="10" d="M149.684,63.376
					c0,0,4.356-4.835,10.528-4.835"/>
				<path fill="none" stroke="#201C1D" stroke-linecap="round" stroke-linejoin="round" stroke-miterlimit="10" d="M159.423,53.178
					c0,0,4.286-2.97,10.458-2.97"/>
				<path fill="none" stroke="#201C1D" stroke-linecap="round" stroke-linejoin="round" stroke-miterlimit="10" d="M165.155,47.91
					c0,0,2.353-1.533,6.132-1.533"/>
				<path fill="none" stroke="#201C1D" stroke-linecap="round" stroke-linejoin="round" stroke-miterlimit="10" d="M168.62,44.875
					c0,0,4.287-2.969,10.458-2.969"/>
				<path fill="none" stroke="#201C1D" stroke-linecap="round" stroke-linejoin="round" stroke-miterlimit="10" d="M174.991,39.735
					c0,0,2.561-1.638,6.34-1.638"/>
				<path fill="none" stroke="#201C1D" stroke-linecap="round" stroke-linejoin="round" stroke-miterlimit="10" d="M179.86,36.445
					c0,0,4.287-2.969,10.459-2.969"/>
				<g>
					<path fill="none" stroke="#201C1D" stroke-linecap="round" stroke-linejoin="round" stroke-miterlimit="10" d="
						M429.734,113.525c0,0-3.847-5.284-10.018-5.284"/>
					<path fill="none" stroke="#201C1D" stroke-linecap="round" stroke-linejoin="round" stroke-miterlimit="10" d="
						M425.278,103.583c0,0-3.848-4.942-10.019-4.942"/>
					<path fill="none" stroke="#201C1D" stroke-linecap="round" stroke-linejoin="round" stroke-miterlimit="10" d="M418.879,91.794
						c0,0-4.648-4.81-10.82-4.81"/>
					<path fill="none" stroke="#201C1D" stroke-linecap="round" stroke-linejoin="round" stroke-miterlimit="10" d="M414.934,85.892
						c0,0-2.875-2.708-6.654-2.708"/>
					<path fill="none" stroke="#201C1D" stroke-linecap="round" stroke-linejoin="round" stroke-miterlimit="10" d="M421.661,96.449
						c0,0-2.711-3.066-6.49-3.066"/>
					<path fill="none" stroke="#201C1D" stroke-linecap="round" stroke-linejoin="round" stroke-miterlimit="10" d="
						M427.665,108.557c0,0-2.283-3.322-6.062-3.322"/>
					<path fill="none" stroke="#201C1D" stroke-linecap="round" stroke-linejoin="round" stroke-miterlimit="10" d="M407.897,76.681
						c0,0-2.82-2.502-6.6-2.502"/>
					<path fill="none" stroke="#201C1D" stroke-linecap="round" stroke-linejoin="round" stroke-miterlimit="10" d="M398.997,66.85
						c0,0-2.924-2.777-6.704-2.777"/>
					<path fill="none" stroke="#201C1D" stroke-linecap="round" stroke-linejoin="round" stroke-miterlimit="10" d="M412.346,82.374
						c0,0-4.287-4.304-10.458-4.304"/>
					<path fill="none" stroke="#201C1D" stroke-linecap="round" stroke-linejoin="round" stroke-miterlimit="10" d="M403.964,72.231
						c0,0-4.819-4.446-10.991-4.446"/>
					<path fill="none" stroke="#201C1D" stroke-linecap="round" stroke-linejoin="round" stroke-miterlimit="10" d="M393.925,62.089
						c0,0-4.449-2.637-10.621-2.637"/>
					<path fill="none" stroke="#201C1D" stroke-linecap="round" stroke-linejoin="round" stroke-miterlimit="10" d="M389.475,58.053
						c0,0-3.797-2.433-7.576-2.433"/>
					<path fill="none" stroke="#201C1D" stroke-linecap="round" stroke-linejoin="round" stroke-miterlimit="10" d="M384.921,54.223
						c0,0-4.643-3.074-10.813-3.074"/>
					<path fill="none" stroke="#201C1D" stroke-linecap="round" stroke-linejoin="round" stroke-miterlimit="10" d="M378.195,48.978
						c0,0-2.56-1.638-6.339-1.638"/>
					<path fill="none" stroke="#201C1D" stroke-linecap="round" stroke-linejoin="round" stroke-miterlimit="10" d="M374.054,45.944
						c0,0-5.016-3.225-11.187-3.225"/>
				</g>
				<path fill="#EE8892" stroke="#201C1D" stroke-linecap="round" stroke-linejoin="round" stroke-miterlimit="10" d="
					M269.213,345.242l-2.174-16.85c0,0-15.763,1.631-20.654-3.805c-4.892-5.435,10.872-18.177,29.352-18.177
					c18.479,0,31.542,13.37,30.979,19.264c-0.562,5.895-20.654,2.718-20.654,2.718l-4.892,16.306
					C278.849,348.125,271.536,348.668,269.213,345.242z"/>
				
					<line fill="#F4B4BB" stroke="#201C1D" stroke-linecap="round" stroke-linejoin="round" stroke-miterlimit="10" x1="287.325" y1="320.386" x2="286.062" y2="328.392"/>
				<path fill="#201C1D" stroke="#201C1D" stroke-linecap="round" stroke-linejoin="round" stroke-miterlimit="10" d="
					M267.04,328.392l-0.462-4.14l-9.247,4.161C257.331,328.414,263.34,329.757,267.04,328.392z"/>
				<path fill="#201C1D" stroke="#201C1D" stroke-linecap="round" stroke-linejoin="round" stroke-miterlimit="10" d="
					M286.458,328.392l0.461-4.14l8.554,4.623C295.472,328.875,290.156,329.757,286.458,328.392z"/>
				<path fill="#F5F1D8" stroke="#201C1D" stroke-linecap="round" stroke-linejoin="round" stroke-miterlimit="10" d="
					M263.001,236.086c0,0-15.932-5.793-14.483-9.414c1.449-3.621,8.69-0.724,8.69-0.724s-6.518-8.69-1.448-10.862
					c5.068-2.172,8.689,5.069,8.689,5.069s-2.172-11.586,4.345-11.586c6.518,0,5.794,7.966,5.794,7.966s7.241-10.138,12.311-5.793
					c5.069,4.345,1.448,9.414,1.448,9.414s5.794-10.138,8.69-4.345s-2.173,9.414-2.173,9.414s7.241,0,7.241,4.345
					c0,4.345-11.586,7.966-11.586,7.966"/>
				<path fill="#CDBAAB" stroke="#201C1D" stroke-linecap="round" stroke-linejoin="round" stroke-miterlimit="10" d="
					M119.476,188.919c0,0-1.755-4.507-0.672-6.151c1.082-1.643,3.897-1.806,4.99-0.17c-0.1-1.73-0.901-4.047,0.748-4.871
					c1.649-0.825,3.438-0.196,4.851,0.987c0.248-1.521-0.214-3.162,1.709-4.254s4.471,0.203,5.276,2.082
					c-0.521-2.388,0.534-4.823,1.948-4.823c1.413,0,3.342,2.236,3.534,3.417c0.277-1.923,0.546-3.7,2.345-4.435
					c1.799-0.735,4.297,0.383,4.419,2.322c-0.329-1.531-0.659-3.115-0.349-4.65s1.439-3.02,2.991-3.232
					c2.465-0.338,4.127,2.378,5.095,4.67c-0.059-1.858,1.766-3.545,3.613-3.34c1.044,0.115,1.959,0.72,2.829,1.308
					c1.728,1.167,3.456,2.333,5.184,3.5"/>
				<path fill="#CDBAAB" stroke="#201C1D" stroke-linecap="round" stroke-linejoin="round" stroke-miterlimit="10" d="
					M348.902,182.799c0,0,0.81-4.769,2.583-5.623c1.772-0.854,4.271,0.453,4.369,2.417c0.803-1.535,1.305-3.935,3.144-3.794
					c1.839,0.14,3.051,1.598,3.655,3.339c0.993-1.178,1.44-2.822,3.651-2.772c2.21,0.05,3.731,2.471,3.458,4.497
					c0.778-2.316,2.936-3.864,4.148-3.138c1.213,0.727,1.719,3.635,1.277,4.747c1.227-1.507,2.369-2.895,4.29-2.601
					c1.921,0.293,3.489,2.536,2.599,4.263c0.504-1.483,1.034-3.012,2.09-4.169c1.055-1.157,2.786-1.851,4.227-1.236
					c2.288,0.976,2.318,4.16,1.973,6.624c0.903-1.625,3.336-2.135,4.815-1.01c0.836,0.635,1.311,1.624,1.755,2.575
					c0.883,1.889,0.008,6.627,0.891,8.516"/>
				<path fill="#F5F1D8" stroke="#201C1D" stroke-linecap="round" stroke-linejoin="round" stroke-miterlimit="10" d="
					M356.268,376.326c0,0,2.671-3.767,3.3-0.844c0.63,2.924-1.425,4.595-1.425,4.595s2.438,1.875,2.438,3.938
					c0,2.062-2.063,3.188-2.063,3.188s1.305,1.97,1.135,4.189c-0.172,2.22-4.697,0.312-4.697,0.312"/>
				<path fill="#575C63" stroke="#201C1D" stroke-linecap="round" stroke-linejoin="round" stroke-miterlimit="10" d="
					M298.032,428.489c-0.65,2.246-3.139,9.808-6.971,9.808c-1.617,0-2.303-1.399-2.754-2.216c-0.259,1.966-2.049,3.617-4.029,3.719
					c-1.98,0.1-3.928-1.362-4.384-3.293c-0.949,1.613-2.312,3.38-4.182,3.309c-1.219-0.047-2.283-0.924-2.89-1.981
					c-0.607-1.058-0.84-2.283-1.062-3.482c0.375,2.119-1.719,4.287-3.851,3.985c-2.024-0.287-3.354-2.27-4.067-4.186
					c-0.714-1.917-1.125-4.031-2.474-5.568"/>
				<path fill="#F5F1D8" stroke="#201C1D" stroke-linecap="round" stroke-linejoin="round" stroke-miterlimit="10" d="
					M252.436,405.676c0,0,6.163,22.187,26.706,21.775c20.542-0.41,29.17-25.062,29.17-25.062"/>
				<path fill="#201C1D" stroke="#201C1D" stroke-linecap="round" stroke-linejoin="round" stroke-miterlimit="10" d="
					M248.021,366.942c0,0,1.627,50.748,30.099,51.562c28.471,0.813,24.403-54.003,24.403-54.003
					c-16.123-1.4-24.907-5.924-27.151-15.854C270.793,361.331,261.621,366.423,248.021,366.942z"/>
				<path fill="none" stroke="#201C1D" stroke-linecap="round" stroke-linejoin="round" stroke-miterlimit="10" d="M233.335,360.116
					c2.144,6.1,32.404,15.407,42.04-12.317c-1.979,10.222,27.445,23.973,41.203,11.053"/>
			</g>
			<path fill="none" stroke="#201C1D" stroke-linecap="round" stroke-linejoin="round" stroke-miterlimit="10" d="M146.08,336.884
				c7.182,0.308,14.364,0.615,21.546,0.923"/>
			<path fill="none" stroke="#201C1D" stroke-linecap="round" stroke-linejoin="round" stroke-miterlimit="10" d="M149.423,345.946
				c2.387,0.236,4.772,0.474,7.159,0.711"/>
			<path fill="none" stroke="#201C1D" stroke-linecap="round" stroke-linejoin="round" stroke-miterlimit="10" d="M150.397,354.407
				c1.755,0,3.511,0,5.266,0"/>
			<path fill="none" stroke="#201C1D" stroke-linecap="round" stroke-linejoin="round" stroke-miterlimit="10" d="M369.131,339.888
				c10.873,2.303,22.362,1.623,32.888-1.945"/>
			<path fill="none" stroke="#201C1D" stroke-linecap="round" stroke-linejoin="round" stroke-miterlimit="10" d="M379.766,346.149
				c4.264,1.171,8.864,1.087,13.083-0.24"/>
			<path fill="none" stroke="#201C1D" stroke-linecap="round" stroke-linejoin="round" stroke-miterlimit="10" d="M383.555,355.081
				c3.028,0.121,6.056,0.242,9.083,0.363"/>
			<path fill="none" stroke="#201C1D" stroke-linecap="round" stroke-linejoin="round" stroke-miterlimit="10" d="M283.499,249.075
				c0,1.596,0,3.192,0,4.788"/>
			<path fill="none" stroke="#201C1D" stroke-linecap="round" stroke-linejoin="round" stroke-miterlimit="10" d="M278.71,256.256
				c0,1.756,0,3.511,0,5.267"/>
			<path fill="none" stroke="#201C1D" stroke-linecap="round" stroke-linejoin="round" stroke-miterlimit="10" d="M273.444,250.033
				c0,1.915,0,3.83,0,5.745"/>
			<path fill="none" stroke="#201C1D" stroke-linecap="round" stroke-linejoin="round" stroke-miterlimit="10" d="M274.448,270.625
				c-0.151,1.437-0.303,2.874-0.455,4.311"/>
			<path fill="none" stroke="#201C1D" stroke-linecap="round" stroke-linejoin="round" stroke-miterlimit="10" d="M280.625,267.748
				c0,1.915,0,3.83,0,5.745"/>
			<path fill="none" stroke="#201C1D" stroke-linecap="round" stroke-linejoin="round" stroke-miterlimit="10" d="M284.934,259.608
				c0,1.117,0,2.234,0,3.352"/>
			<path fill="none" stroke="#201C1D" stroke-linecap="round" stroke-linejoin="round" stroke-miterlimit="10" d="M180.571,336.816
				c4.145-0.384,8.287-0.767,12.432-1.149"/>
			<path fill="none" stroke="#201C1D" stroke-linecap="round" stroke-linejoin="round" stroke-miterlimit="10" d="M426.54,330.044
				c-0.408,0.349-0.816,0.696-1.224,1.044c-2.638,0.433-5.275,0.865-7.913,1.297c-0.082,0.466-0.164,0.932-0.246,1.398
				c-0.944-0.163-1.888-0.326-2.832-0.488"/>
			<path fill="none" stroke="#201C1D" stroke-linecap="round" stroke-linejoin="round" stroke-miterlimit="10" d="M117.95,325.464
				c3.898,1.937,7.797,3.874,11.696,5.81c0.056,0.385,0.111,0.77,0.167,1.154c0.807-0.079,1.613-0.158,2.419-0.238"/>
			<path fill="none" stroke="#201C1D" stroke-linecap="round" stroke-linejoin="round" stroke-miterlimit="10" d="M349.21,158.007
				c-0.922,2.074-1.843,4.148-2.766,6.223"/>
			<path fill="none" stroke="#201C1D" stroke-linecap="round" stroke-linejoin="round" stroke-miterlimit="10" d="M380.323,158.699
				c-0.461,1.152-0.922,2.305-1.383,3.457"/>
			<path fill="none" stroke="#201C1D" stroke-linecap="round" stroke-linejoin="round" stroke-miterlimit="10" d="M400.434,170.493
				c-0.746,1.116-1.491,2.233-2.236,3.349"/>
			<path fill="none" stroke="#201C1D" stroke-linecap="round" stroke-linejoin="round" stroke-miterlimit="10" d="M418.02,180.523
				c-0.874,0.966-1.748,1.932-2.621,2.898c-0.631,0.056-1.26,0.111-1.89,0.167c0,0.691-1.97,3.435-1.97,4.126"/>
			<path fill="none" stroke="#201C1D" stroke-linecap="round" stroke-linejoin="round" stroke-miterlimit="10" d="M134.704,160.193
				c1.593,2.548,3.186,5.096,4.779,7.644"/>
			<path fill="none" stroke="#201C1D" stroke-linecap="round" stroke-linejoin="round" stroke-miterlimit="10" d="M122.797,177.347
				c0.746,0.311,2.678,2.24,2.898,2.895"/>
			<path fill="none" stroke="#201C1D" stroke-linecap="round" stroke-linejoin="round" stroke-miterlimit="10" d="M111.012,190.865
				c0.461,0.461,0.922,0.922,1.383,1.383"/>
			<path fill="none" stroke="#201C1D" stroke-linecap="round" stroke-linejoin="round" stroke-miterlimit="10" d="M460.665,158.838
				c1.947-1.969,3.895-3.938,5.842-5.907"/>
			<path fill="none" stroke="#201C1D" stroke-linecap="round" stroke-linejoin="round" stroke-miterlimit="10" d="M465.737,166.647
				c2.773-2.528,5.545-5.055,8.317-7.583"/>
			<path fill="none" stroke="#201C1D" stroke-linecap="round" stroke-linejoin="round" stroke-miterlimit="10" d="M454.301,147.637
				c0.691-0.691,1.383-1.383,2.074-2.074"/>
			<path fill="none" stroke="#201C1D" stroke-linecap="round" stroke-linejoin="round" stroke-miterlimit="10" d="M89.192,155.313
				c-2.548-2.059-5.095-4.118-7.643-6.176"/>
			<path fill="none" stroke="#201C1D" stroke-linecap="round" stroke-linejoin="round" stroke-miterlimit="10" d="M85.104,163.539
				c-0.613-0.136-1.226-0.272-1.838-0.409c-2.863-1.678-5.726-3.354-8.588-5.032"/>
			<path fill="none" stroke="#201C1D" stroke-linecap="round" stroke-linejoin="round" stroke-miterlimit="10" d="M253.999,61.028
				c2.091,0,40.416-6.271,60.623,4.877"/>
			<path fill="none" stroke="#201C1D" stroke-linecap="round" stroke-linejoin="round" stroke-miterlimit="10" d="M247.03,40.123
				c2.091,0,40.416-6.271,60.624,4.878"/>
			<path fill="none" stroke="#201C1D" stroke-linecap="round" stroke-linejoin="round" stroke-miterlimit="10" d="M272.944,50.157
				c0.783,0,15.155-2.352,22.733,1.829"/>
			<path fill="none" stroke="#201C1D" stroke-linecap="round" stroke-linejoin="round" stroke-miterlimit="10" d="M287.577,24.375
				c0.783,0,15.156-2.352,22.733,1.829"/>
			<path fill="none" stroke="#201C1D" stroke-linecap="round" stroke-linejoin="round" stroke-miterlimit="10" d="M64.614,328.944
				c-2.574,0.19-5.148,0.381-7.724,0.572"/>
			<path fill="none" stroke="#201C1D" stroke-linecap="round" stroke-linejoin="round" stroke-miterlimit="10" d="M63.755,321.913
				c-2.094-0.226-4.188-0.451-6.282-0.676"/>
			<path fill="none" stroke="#201C1D" stroke-linecap="round" stroke-linejoin="round" stroke-miterlimit="10" d="M72.339,313.901
				c-1.716-0.094-3.433-0.188-5.149-0.282"/>
			<path fill="none" stroke="#201C1D" stroke-linecap="round" stroke-linejoin="round" stroke-miterlimit="10" d="M81.785,303.96
				c-2.956,0.073-5.913,0.147-8.869,0.221"/>
			<path fill="none" stroke="#201C1D" stroke-linecap="round" stroke-linejoin="round" stroke-miterlimit="10" d="M56.609,311.838
				c-2.574,0.092-5.149,0.183-7.724,0.274"/>
			<path fill="none" stroke="#201C1D" stroke-linecap="round" stroke-linejoin="round" stroke-miterlimit="10" d="M44.075,320.573
				c-2.971,0.354-5.941,0.707-8.912,1.061"/>
			<path fill="none" stroke="#201C1D" stroke-linecap="round" stroke-linejoin="round" stroke-miterlimit="10" d="M44.024,328.442
				c-2.098,0-4.195,0-6.293,0"/>
			<path fill="none" stroke="#201C1D" stroke-linecap="round" stroke-linejoin="round" stroke-miterlimit="10" d="M33.452,315.776
				c-0.573-0.087-1.146-0.174-1.72-0.261"/>
			<path fill="none" stroke="#201C1D" stroke-linecap="round" stroke-linejoin="round" stroke-miterlimit="10" d="M58.326,345.319
				c-2.288,0-4.576,0-6.865,0"/>
			<path fill="none" stroke="#201C1D" stroke-linecap="round" stroke-linejoin="round" stroke-miterlimit="10" d="M54.076,354.057
				c-2.194,0.566-4.39,1.131-6.584,1.697"/>
			<path fill="none" stroke="#201C1D" stroke-linecap="round" stroke-linejoin="round" stroke-miterlimit="10" d="M32.295,352.184
				c-2.955,0-5.911,0-8.867,0"/>
			<path fill="none" stroke="#201C1D" stroke-linecap="round" stroke-linejoin="round" stroke-miterlimit="10" d="M28.283,360.384
				c-2.192,0.194-4.386,0.39-6.578,0.584"/>
			<path fill="none" stroke="#201C1D" stroke-linecap="round" stroke-linejoin="round" stroke-miterlimit="10" d="M38.233,369.287
				c2.851,0.888,5.702,1.775,8.554,2.662"/>
			<path fill="none" stroke="#201C1D" stroke-linecap="round" stroke-linejoin="round" stroke-miterlimit="10" d="M42.594,364.456
				c4.195,0.19,8.391,0.38,12.586,0.57"/>
			<path fill="none" stroke="#201C1D" stroke-linecap="round" stroke-linejoin="round" stroke-miterlimit="10" d="M61.751,373.402
				c1.524,0.202,3.048,0.404,4.572,0.606"/>
			<path fill="none" stroke="#201C1D" stroke-linecap="round" stroke-linejoin="round" stroke-miterlimit="10" d="M67.193,369.918
				c2.766,0.096,5.53,0.191,8.296,0.286"/>
			<path fill="none" stroke="#201C1D" stroke-linecap="round" stroke-linejoin="round" stroke-miterlimit="10" d="M65.155,395.159
				c1.316,0.703,2.633,1.404,3.949,2.106"/>
			<path fill="none" stroke="#201C1D" stroke-linecap="round" stroke-linejoin="round" stroke-miterlimit="10" d="M65.703,405.244
				c2.396,1.021,4.792,2.042,7.187,3.062"/>
			<path fill="none" stroke="#201C1D" stroke-linecap="round" stroke-linejoin="round" stroke-miterlimit="10" d="M78.008,415.643
				c5.143,1.168,10.286,2.337,15.43,3.506"/>
			<path fill="none" stroke="#201C1D" stroke-linecap="round" stroke-linejoin="round" stroke-miterlimit="10" d="M83.207,409.497
				c4.005,0.188,8.01,0.377,12.015,0.564"/>
			<path fill="none" stroke="#201C1D" stroke-linecap="round" stroke-linejoin="round" stroke-miterlimit="10" d="M109.241,409.977
				c4.672,0.286,9.345,0.572,14.017,0.857"/>
			<path fill="none" stroke="#201C1D" stroke-linecap="round" stroke-linejoin="round" stroke-miterlimit="10" d="M107.784,418.322
				c3.306,1.48,7.012,2.054,10.61,1.642"/>
			<path fill="none" stroke="#201C1D" stroke-linecap="round" stroke-linejoin="round" stroke-miterlimit="10" d="M99.489,405.636
				c2.292,0.254,4.584,0.507,6.876,0.761"/>
			<path fill="none" stroke="#201C1D" stroke-linecap="round" stroke-linejoin="round" stroke-miterlimit="10" d="M98.372,414.828
				c1.24,0.19,2.479,0.382,3.719,0.572"/>
			<path fill="none" stroke="#201C1D" stroke-linecap="round" stroke-linejoin="round" stroke-miterlimit="10" d="M46.003,401.749
				c2.091,0.596,4.183,1.19,6.273,1.785"/>
			<path fill="none" stroke="#201C1D" stroke-linecap="round" stroke-linejoin="round" stroke-miterlimit="10" d="M76.936,400.726
				c1.614,0.317,3.229,0.635,4.844,0.952"/>
			<path fill="none" stroke="#201C1D" stroke-linecap="round" stroke-linejoin="round" stroke-miterlimit="10" d="M484.535,355.673
				c2.956-0.079,5.912-0.159,8.868-0.239"/>
			<path fill="none" stroke="#201C1D" stroke-linecap="round" stroke-linejoin="round" stroke-miterlimit="10" d="M485.678,351.334
				c3.242-0.478,6.483-0.955,9.726-1.432"/>
			<path fill="none" stroke="#201C1D" stroke-linecap="round" stroke-linejoin="round" stroke-miterlimit="10" d="M508.561,349.038
				c2.193,0,4.386,0,6.579,0"/>
			<path fill="none" stroke="#201C1D" stroke-linecap="round" stroke-linejoin="round" stroke-miterlimit="10" d="M509.133,342.172
				c1.621,0,3.241,0,4.862,0"/>
			<path fill="none" stroke="#201C1D" stroke-linecap="round" stroke-linejoin="round" stroke-miterlimit="10" d="M524.58,344.174
				c2.384,0,4.767,0,7.151,0"/>
			<path fill="none" stroke="#201C1D" stroke-linecap="round" stroke-linejoin="round" stroke-miterlimit="10" d="M518,335.593
				c2.765,0,5.529,0,8.295,0"/>
			<path fill="none" stroke="#201C1D" stroke-linecap="round" stroke-linejoin="round" stroke-miterlimit="10" d="M485.972,342.404
				c3.142,0.501,6.285,1.003,9.428,1.505"/>
			<path fill="none" stroke="#201C1D" stroke-linecap="round" stroke-linejoin="round" stroke-miterlimit="10" d="M491.684,333.305
				c2.193,0,4.386,0,6.579,0"/>
			<path fill="none" stroke="#201C1D" stroke-linecap="round" stroke-linejoin="round" stroke-miterlimit="10" d="M505.417,335.636
				c1.524-0.101,3.05-0.202,4.575-0.304"/>
			<path fill="none" stroke="#201C1D" stroke-linecap="round" stroke-linejoin="round" stroke-miterlimit="10" d="M500.837,328.442
				c2.003,0,4.005,0,6.007,0"/>
			<path fill="none" stroke="#201C1D" stroke-linecap="round" stroke-linejoin="round" stroke-miterlimit="10" d="M479.957,327.584
				c2.479,0.095,4.958,0.19,7.437,0.285"/>
			<path fill="none" stroke="#201C1D" stroke-linecap="round" stroke-linejoin="round" stroke-miterlimit="10" d="M471.088,321.292
				c0.668,0,1.336,0,2.003,0"/>
			<path fill="none" stroke="#201C1D" stroke-linecap="round" stroke-linejoin="round" stroke-miterlimit="10" d="M481.958,368.489
				c1.907,0,3.813,0,5.721,0"/>
			<path fill="none" stroke="#201C1D" stroke-linecap="round" stroke-linejoin="round" stroke-miterlimit="10" d="M493.114,373.351
				c2.193,0,4.387,0,6.58,0"/>
			<path fill="none" stroke="#201C1D" stroke-linecap="round" stroke-linejoin="round" stroke-miterlimit="10" d="M507.977,368.018
				c1.621,0.188,3.242,0.377,4.863,0.565"/>
			<path fill="none" stroke="#201C1D" stroke-linecap="round" stroke-linejoin="round" stroke-miterlimit="10" d="M509.708,374.705
				c4.005,0.175,8.011,0.349,12.016,0.523"/>
			<path fill="none" stroke="#201C1D" stroke-linecap="round" stroke-linejoin="round" stroke-miterlimit="10" d="M526.875,371.865
				c1.713,0.218,3.426,0.435,5.14,0.652"/>
			<path fill="none" stroke="#201C1D" stroke-linecap="round" stroke-linejoin="round" stroke-miterlimit="10" d="M525.438,377.07
				c0.763,0,1.525,0,2.288,0"/>
			<path fill="none" stroke="#201C1D" stroke-linecap="round" stroke-linejoin="round" stroke-miterlimit="10" d="M526.006,381.109
				c2.193,0.192,4.386,0.386,6.579,0.578"/>
			<path fill="none" stroke="#201C1D" stroke-linecap="round" stroke-linejoin="round" stroke-miterlimit="10" d="M524.014,384.735
				c2.196,0.261,4.393,0.521,6.588,0.783"/>
			<path fill="none" stroke="#201C1D" stroke-linecap="round" stroke-linejoin="round" stroke-miterlimit="10" d="M509.706,388.511
				c0.571,0,1.144,0,1.716,0"/>
			<path fill="none" stroke="#201C1D" stroke-linecap="round" stroke-linejoin="round" stroke-miterlimit="10" d="M488.538,381.932
				c3.433,0.096,6.865,0.191,10.298,0.286"/>
			<path fill="none" stroke="#201C1D" stroke-linecap="round" stroke-linejoin="round" stroke-miterlimit="10" d="M486.821,391.944
				c0.954,0,1.907,0,2.861,0"/>
			<path fill="none" stroke="#201C1D" stroke-linecap="round" stroke-linejoin="round" stroke-miterlimit="10" d="M505.981,382.727
				c0.953-0.09,1.907-0.18,2.861-0.269"/>
			<path fill="none" stroke="#201C1D" stroke-linecap="round" stroke-linejoin="round" stroke-miterlimit="10" d="M474.522,403.1
				c1.334,0,2.669,0,4.004,0"/>
			<path fill="none" stroke="#201C1D" stroke-linecap="round" stroke-linejoin="round" stroke-miterlimit="10" d="M475.102,408.76
				c1.629,0.229,3.258,0.459,4.887,0.688"/>
			<path fill="none" stroke="#201C1D" stroke-linecap="round" stroke-linejoin="round" stroke-miterlimit="10" d="M497.702,411.451
				c-1.431,0.282-2.861,0.564-4.293,0.847"/>
			<path fill="none" stroke="#201C1D" stroke-linecap="round" stroke-linejoin="round" stroke-miterlimit="10" d="M489.076,415.933
				c2.778,0.381,5.557,0.762,8.335,1.143"/>
			<path fill="none" stroke="#201C1D" stroke-linecap="round" stroke-linejoin="round" stroke-miterlimit="10" d="M488.54,406.286
				c1.336-0.084,2.672-0.168,4.008-0.252"/>
			<path fill="none" stroke="#201C1D" stroke-linecap="round" stroke-linejoin="round" stroke-miterlimit="10" d="M501.696,413.969
				c2.098,0,4.195,0,6.293,0"/>
			<path fill="none" stroke="#201C1D" stroke-linecap="round" stroke-linejoin="round" stroke-miterlimit="10" d="M483.088,421.061
				c-1.146,0.279-2.291,0.561-3.438,0.84"/>
			<path fill="none" stroke="#201C1D" stroke-linecap="round" stroke-linejoin="round" stroke-miterlimit="10" d="M478.274,416.282
				c-1.057-0.135-2.113-0.268-3.169-0.402"/>
			<path fill="none" stroke="#201C1D" stroke-linecap="round" stroke-linejoin="round" stroke-miterlimit="10" d="M465.657,424
				c-3.25,0.523-6.499,1.047-9.748,1.57"/>
			<path fill="none" stroke="#201C1D" stroke-linecap="round" stroke-linejoin="round" stroke-miterlimit="10" d="M462.507,416.831
				c-1.43,0-2.86,0-4.29,0"/>
			<path fill="none" stroke="#201C1D" stroke-linecap="round" stroke-linejoin="round" stroke-miterlimit="10" d="M462.788,410.868
				c-0.668-0.087-1.337-0.175-2.005-0.263"/>
			<path fill="none" stroke="#201C1D" stroke-linecap="round" stroke-linejoin="round" stroke-miterlimit="10" d="M467.942,405.102
				c-1.049,0-2.098,0-3.146,0"/>
			<path fill="none" stroke="#201C1D" stroke-linecap="round" stroke-linejoin="round" stroke-miterlimit="10" d="M451.354,410.551
				c-1.335,0.189-2.67,0.379-4.005,0.568"/>
			<path fill="none" stroke="#201C1D" stroke-linecap="round" stroke-linejoin="round" stroke-miterlimit="10" d="M448.234,417.466
				c-0.972,0.437-1.942,0.874-2.913,1.312"/>
			<path fill="none" stroke="#201C1D" stroke-linecap="round" stroke-linejoin="round" stroke-miterlimit="10" d="M442.213,424.062
				c-2.001,0.385-4.003,0.769-6.005,1.153"/>
			<path fill="none" stroke="#201C1D" stroke-linecap="round" stroke-linejoin="round" stroke-miterlimit="10" d="M436.448,417.32
				c-2.389-0.345-4.777-0.689-7.166-1.034"/>
			<path fill="none" stroke="#201C1D" stroke-linecap="round" stroke-linejoin="round" stroke-miterlimit="10" d="M440.217,409.583
				c-0.385-0.083-0.769-0.166-1.152-0.248"/>
			<path fill="none" stroke="#201C1D" stroke-linecap="round" stroke-linejoin="round" stroke-miterlimit="10" d="M485.105,411.681
				c-0.477,0-0.953,0-1.431,0"/>
			<path fill="none" stroke="#201C1D" stroke-linecap="round" stroke-linejoin="round" stroke-miterlimit="10" d="M501.134,407.913
				c1.607,0.349,3.215,0.698,4.822,1.047"/>
		</g>
	</g>
	<g>
		
			<ellipse transform="matrix(0.9989 0.0465 -0.0465 0.9989 13.0673 -17.5657)" fill="#EF984A" cx="384.243" cy="272.2" rx="94.787" ry="75.368"/>
		
			<ellipse transform="matrix(0.9989 0.0465 -0.0465 0.9989 13.0671 -17.5654)" fill="#68BA78" cx="384.243" cy="272.2" rx="71.141" ry="75.369"/>
		
			<ellipse transform="matrix(0.9989 0.0465 -0.0465 0.9989 13.0664 -17.5645)" fill="#FBE750" cx="384.243" cy="272.2" rx="54.325" ry="64.858"/>
		
			<ellipse transform="matrix(0.9989 0.0465 -0.0465 0.9989 13.069 -17.5678)" fill="#E8606E" cx="384.243" cy="272.2" rx="41.185" ry="53.195"/>
		
			<ellipse transform="matrix(0.9989 0.0465 -0.0465 0.9989 13.0663 -17.5643)" fill="#2CC0F0" cx="384.243" cy="272.2" rx="29.868" ry="43.46"/>
		
			<ellipse transform="matrix(0.9989 0.0465 -0.0465 0.9989 13.0231 -17.5348)" fill="#201C1D" cx="383.456" cy="271.188" rx="12.445" ry="19.815"/>
		
			<ellipse transform="matrix(0.9989 0.0465 -0.0465 0.9989 12.8284 -17.7934)" fill="#FFFFFF" cx="388.758" cy="266.759" rx="2.766" ry="4.405"/>
	</g>
	<g>
		
			<ellipse transform="matrix(0.9989 0.0465 -0.0465 0.9989 12.8325 -7.466)" fill="#EF984A" cx="166.956" cy="272.2" rx="94.787" ry="75.368"/>
		
			<ellipse transform="matrix(0.9989 0.0465 -0.0465 0.9989 12.8322 -7.4659)" fill="#68BA78" cx="166.956" cy="272.2" rx="71.141" ry="75.369"/>
		
			<ellipse transform="matrix(0.9989 0.0465 -0.0465 0.9989 12.8316 -7.4655)" fill="#FBE750" cx="166.956" cy="272.2" rx="54.325" ry="64.858"/>
		
			<ellipse transform="matrix(0.9989 0.0465 -0.0465 0.9989 12.8341 -7.4669)" fill="#E8606E" cx="166.956" cy="272.2" rx="41.185" ry="53.195"/>
		
			<ellipse transform="matrix(0.9989 0.0465 -0.0465 0.9989 12.8312 -7.4654)" fill="#2CC0F0" cx="166.956" cy="272.2" rx="29.869" ry="43.46"/>
		
			<ellipse transform="matrix(0.9989 0.0465 -0.0465 0.9989 12.7876 -7.4322)" fill="#201C1D" cx="166.169" cy="271.188" rx="12.446" ry="19.815"/>
		
			<ellipse transform="matrix(0.9989 0.0465 -0.0465 0.9989 12.591 -7.6855)" fill="#FFFFFF" cx="171.471" cy="266.759" rx="2.767" ry="4.405"/>
	</g>
</g>
</svg>
