<?xml version="1.0" encoding="utf-8"?>
<!-- Generator: Adobe Illustrator 16.0.0, SVG Export Plug-In . SVG Version: 6.00 Build 0)  -->
<!DOCTYPE svg PUBLIC "-//W3C//DTD SVG 1.1//EN" "http://www.w3.org/Graphics/SVG/1.1/DTD/svg11.dtd">
<svg version="1.1" id="Layer_1" xmlns="http://www.w3.org/2000/svg" xmlns:xlink="http://www.w3.org/1999/xlink" x="0px" y="0px"
	 width="29.433px" height="29.433px" viewBox="0 0 29.433 29.433" enable-background="new 0 0 29.433 29.433" xml:space="preserve">
<path fill="#FFFFFF" d="M29.433,14.716c0,8.127-6.59,14.717-14.717,14.717C6.588,29.433,0,22.843,0,14.716S6.588,0,14.716,0
	C22.843,0,29.433,6.589,29.433,14.716"/>
<path fill="#4794A6" d="M14.708,1.713c-7.197,0-13.523,5.834-13.523,13.031c0,6.33,6.008,11.603,10.008,12.78v-8.676h-2v-4h2v-3.641
	c0-2.499,2.376-4.792,6.102-4.792c1.505,0,3.003,0.14,3.003,0.14l0.101,3.48c0,0-0.771-0.01-2.01-0.01
	c-1.344,0-1.195,0.616-1.195,1.645v0.158v3.02h3.505l-0.177,4h-3.328v8.678c6-1.17,10.533-6.445,10.533-12.782
	C27.726,7.547,21.904,1.713,14.708,1.713"/>
</svg>
