<?xml version="1.0" encoding="utf-8"?>
<!-- Generator: Adobe Illustrator 16.0.0, SVG Export Plug-In . SVG Version: 6.00 Build 0)  -->
<!DOCTYPE svg PUBLIC "-//W3C//DTD SVG 1.0//EN" "http://www.w3.org/TR/2001/REC-SVG-20010904/DTD/svg10.dtd">
<svg version="1.0" id="Layer_1" xmlns="http://www.w3.org/2000/svg" xmlns:xlink="http://www.w3.org/1999/xlink" x="0px" y="0px"
	 width="484px" height="957.665px" viewBox="0 0 484 957.665" enable-background="new 0 0 484 957.665" xml:space="preserve">
<g>
	<g>
		<g>
			<path fill="#EF919B" stroke="#201C1D" stroke-linecap="round" stroke-miterlimit="10" d="M254.01,50
				c99.428-21.797,142.177-53.584,158.501-95.046c4.003-10.168,4.948-7.821,6.22-19.148l-3.967,35.338
				C408.309,28.66,372.385,71.292,248.574,98.435C124.763,125.578,130.199,77.144,254.01,50z"/>
		</g>
		<g>
			<path fill="#C7535F" stroke="#201C1D" stroke-linecap="round" stroke-miterlimit="10" d="M77.954,187.429
				c6.336-56.456,49.741-109.79,173.63-137.632c123.889-27.843,159.901-71.27,166.469-129.778l-5.53,49.271
				c-0.644,5.729-1.336,11.215-2.599,16.654c-9.73,47.531-52.113,88.008-163.87,113.124
				C122.165,126.909,78.76,180.244,72.424,236.699L77.954,187.429z"/>
		</g>
		<g>
			<path opacity="0.18" fill="#201C1D" stroke="#201C1D" stroke-linecap="round" stroke-miterlimit="10" d="M251.584,49.797
				c123.889-27.843,159.901-71.27,166.469-129.778l-5.53,49.271c-0.644,5.729-1.336,11.215-2.599,16.654
				c-9.73,47.531-52.18,87.711-163.87,113.124C284.702,84.952,271.382,53.031,251.584,49.797z"/>
		</g>
		<g>
			<path fill="#2CC0F0" stroke="#201C1D" stroke-linecap="round" stroke-miterlimit="10" d="M228.263,279.402
				c123.812-27.143,159.735-69.775,166.19-127.291l-5.437,48.435c-6.455,57.516-42.379,100.148-166.19,127.292
				C99.016,354.98,104.452,306.545,228.263,279.402z"/>
		</g>
		<g>
			<path fill="#2AABD6" stroke="#201C1D" stroke-linecap="round" stroke-miterlimit="10" d="M52.207,416.831
				c6.336-56.456,49.741-109.79,173.629-137.632c123.89-27.842,159.902-71.27,166.469-129.778l-5.529,49.27
				c-0.643,5.729-1.336,11.215-2.599,16.655c-9.73,47.532-52.112,88.008-163.87,113.124
				C96.417,356.311,53.013,409.646,46.676,466.101L52.207,416.831z"/>
		</g>
		<g>
			<path opacity="0.18" fill="#201C1D" stroke="#201C1D" stroke-linecap="round" stroke-miterlimit="10" d="M52.207,416.831
				c6.336-56.456,49.741-109.79,173.629-137.632c-38.739,15.562-17.285,48.217-5.529,49.271
				C96.417,356.311,53.013,409.646,46.676,466.101L52.207,416.831z"/>
		</g>
		<path fill="#68BA78" stroke="#201C1D" stroke-linecap="round" stroke-miterlimit="10" d="M118.486,146.887l260.489,29.236
			c5.354,0.601,10.181-3.252,10.78-8.605l0,0c0.602-5.354-3.252-10.18-8.604-10.781L120.662,127.5
			c-5.353-0.601-10.18,3.251-10.781,8.605l0,0C109.28,141.459,113.133,146.286,118.486,146.887z"/>
		<path fill="#FBE750" stroke="#201C1D" stroke-linecap="round" stroke-miterlimit="10" d="M246.549,161.26l132.427,14.863
			c5.354,0.601,10.181-3.252,10.78-8.605l0,0c0.602-5.354-3.252-10.18-8.604-10.781l-132.427-14.862
			c-5.354-0.602-10.18,3.251-10.781,8.604l0,0C237.343,155.832,241.195,160.659,246.549,161.26z"/>
		<path fill="#FBE750" stroke="#201C1D" stroke-linecap="round" stroke-miterlimit="10" d="M254.161,162.114l124.814,14.009
			c5.354,0.601,10.181-3.252,10.78-8.605l0,0c0.602-5.354-3.252-10.18-8.604-10.781l-124.815-14.009
			c-5.353-0.601-10.18,3.252-10.78,8.605l0,0C244.955,156.687,248.808,161.513,254.161,162.114z"/>
		<path fill="#2CC0F0" stroke="#201C1D" stroke-linecap="round" stroke-miterlimit="10" d="M85.005,226.683l265.327,29.5
			c5.354,0.596,10.176-3.263,10.771-8.616l0,0c0.596-5.354-3.263-10.177-8.617-10.772L87.161,207.295
			c-5.354-0.596-10.177,3.262-10.772,8.616l0,0C75.794,221.265,79.651,226.088,85.005,226.683z"/>
		<path fill="#E8606E" stroke="#201C1D" stroke-linecap="round" stroke-miterlimit="10" d="M217.875,241.456l132.457,14.727
			c5.354,0.595,10.176-3.262,10.771-8.616l0,0c0.596-5.354-3.263-10.177-8.617-10.772l-132.455-14.727
			c-5.354-0.595-10.177,3.262-10.771,8.617l0,0C208.664,236.038,212.521,240.861,217.875,241.456z"/>
		<path fill="#E8606E" stroke="#201C1D" stroke-linecap="round" stroke-miterlimit="10" d="M225.213,242.272l125.119,13.911
			c5.354,0.595,10.176-3.262,10.771-8.616l0,0c0.596-5.354-3.263-10.177-8.617-10.772l-125.118-13.911
			c-5.354-0.596-10.177,3.263-10.772,8.616l0,0C216.001,236.854,219.858,241.677,225.213,242.272z"/>
		<path fill="#68BA78" stroke="#201C1D" stroke-linecap="round" stroke-miterlimit="10" d="M55.27,491.626l279.328,31.057
			c5.354,0.596,10.177-3.262,10.772-8.617l0,0c0.595-5.354-3.263-10.176-8.616-10.771L57.425,472.237
			c-5.354-0.596-10.177,3.262-10.772,8.617l0,0C46.058,486.208,49.916,491.03,55.27,491.626z"/>
		<path fill="#FBE750" stroke="#201C1D" stroke-linecap="round" stroke-miterlimit="10" d="M199.525,507.665l135.072,15.018
			c5.354,0.596,10.177-3.262,10.772-8.615l0,0c0.595-5.354-3.263-10.178-8.616-10.771l-135.072-15.02
			c-5.354-0.594-10.177,3.264-10.772,8.617l0,0C190.314,502.247,194.172,507.069,199.525,507.665z"/>
		<path fill="#FBE750" stroke="#201C1D" stroke-linecap="round" stroke-miterlimit="10" d="M205.245,508.302l129.353,14.381
			c5.354,0.596,10.177-3.262,10.772-8.615l0,0c0.595-5.354-3.263-10.178-8.616-10.771L207.4,488.913
			c-5.354-0.596-10.176,3.262-10.771,8.617l0,0C196.034,502.884,199.892,507.706,205.245,508.302z"/>
		<path fill="#2CC0F0" stroke="#201C1D" stroke-linecap="round" stroke-miterlimit="10" d="M57.502,427.507l245.303,27.305
			c5.354,0.596,10.177-3.262,10.771-8.615v-0.002c0.596-5.354-3.262-10.176-8.615-10.771L59.658,408.118
			C54.304,407.523,52.148,426.911,57.502,427.507z"/>
		<path fill="#E8606E" stroke="#201C1D" stroke-linecap="round" stroke-miterlimit="10" d="M183.831,441.585l118.974,13.227
			c5.354,0.596,10.177-3.262,10.771-8.615l0,0c0.596-5.354-3.262-10.178-8.615-10.771l-118.974-13.229
			c-5.354-0.596-10.177,3.262-10.772,8.617l0,0C174.62,436.167,178.478,440.989,183.831,441.585z"/>
		<path fill="#E8606E" stroke="#201C1D" stroke-linecap="round" stroke-miterlimit="10" d="M192.951,442.599l109.854,12.213
			c5.354,0.596,10.177-3.262,10.771-8.615l0,0c0.596-5.354-3.262-10.178-8.615-10.771L195.106,423.21
			c-5.354-0.596-10.176,3.262-10.772,8.617l0,0C183.739,437.181,187.597,442.003,192.951,442.599z"/>
		<path fill="#E8606E" stroke="#201C1D" stroke-linecap="round" stroke-miterlimit="10" d="M99.548,295.208l138.942,15.448
			c5.354,0.595,10.177-3.263,10.771-8.616l0,0c0.596-5.354-3.262-10.177-8.615-10.772l-84.975-9.448l-53.967-6
			c-5.354-0.595-10.177,3.263-10.772,8.616l0,0C90.337,289.791,94.194,294.613,99.548,295.208z"/>
		<path fill="#2CC0F0" stroke="#201C1D" stroke-linecap="round" stroke-miterlimit="10" d="M169.853,303.026l68.637,7.631
			c5.354,0.596,10.177-3.262,10.771-8.616l0,0c0.596-5.354-3.262-10.177-8.615-10.771l-68.638-7.632
			c-5.354-0.595-10.177,3.263-10.772,8.616l0,0C160.641,297.608,164.499,302.43,169.853,303.026z"/>
		<path fill="#2CC0F0" stroke="#201C1D" stroke-linecap="round" stroke-miterlimit="10" d="M177.686,303.897l60.804,6.76
			c5.354,0.596,10.177-3.262,10.771-8.616l0,0c0.596-5.354-3.262-10.177-8.615-10.771l-60.805-6.761
			c-5.354-0.596-10.177,3.263-10.772,8.616l0,0C168.475,298.479,172.332,303.301,177.686,303.897z"/>
		<path fill="#2CC0F0" stroke="#201C1D" stroke-linecap="round" stroke-miterlimit="10" d="M90.291,377.694l118.573,13.184
			c5.354,0.595,10.177-3.263,10.772-8.617l0,0c0.595-5.354-3.263-10.177-8.616-10.771L92.446,358.305
			c-5.354-0.595-10.177,3.263-10.772,8.616l0,0C81.079,372.276,84.937,377.098,90.291,377.694z"/>
		<path fill="#68BA78" stroke="#201C1D" stroke-linecap="round" stroke-miterlimit="10" d="M201.07,91.249l160.539,18.019
			c5.353,0.601,10.18-3.252,10.78-8.605l0,0c0.601-5.354-3.251-10.18-8.604-10.781L203.246,71.863
			c-5.353-0.601-10.18,3.252-10.78,8.605l0,0C191.864,85.821,195.717,90.648,201.07,91.249z"/>
		<path fill="#FBE750" stroke="#201C1D" stroke-linecap="round" stroke-miterlimit="10" d="M201.07,91.249l75.59,8.484
			c5.354,0.601,10.18-3.251,10.781-8.605l0,0c0.601-5.354-3.252-10.18-8.605-10.781l-75.59-8.483
			c-5.353-0.601-10.18,3.252-10.78,8.605l0,0C191.864,85.821,195.717,90.648,201.07,91.249z"/>
		<path fill="#FBE750" stroke="#201C1D" stroke-linecap="round" stroke-miterlimit="10" d="M201.07,91.249l69.288,7.776
			c5.354,0.602,10.181-3.251,10.781-8.604l0,0c0.601-5.354-3.252-10.181-8.605-10.781l-69.288-7.776
			c-5.353-0.601-10.18,3.252-10.78,8.605l0,0C191.864,85.821,195.717,90.648,201.07,91.249z"/>
		<path fill="#6DD4F5" stroke="#201C1D" stroke-linecap="round" stroke-miterlimit="10" d="M390.023,162.106
			c4.967-44.258-20.233-125.321-134.527-182.972C145.074-76.564,117.213-142.222,117.213-142.222
			c-7.051,62.82,18.052,116.605,132.345,174.257c114.294,57.651,142.28,115.043,134.618,183.31l2.298,0.275
			c1.642-8.867,2.592-17.738,3.42-27.033L390.023,162.106z"/>
		<path fill="#6DD4F5" stroke="#201C1D" stroke-linecap="round" stroke-miterlimit="10" d="M391.514,142.37
			c4.626-41.22-20.582-114.166-135.451-168.285C138.565-81.273,122.52-132.027,126.703-188.032
			c1.896-16.888,8.971-39.157,8.971-39.157s-10.609,15.019-13.777,43.239l0,0l-4.57,40.718
			C110.76-84.724,136.25-34.394,250.885,20.219c114.635,54.614,145.136,116.243,138.8,172.698L391.514,142.37z"/>
		<path fill="#2CC0F0" stroke="#201C1D" stroke-linecap="round" stroke-miterlimit="10" d="M394.127,153.34
			c6.336-56.455-24.166-118.084-138.801-172.698C140.692-73.972,115.202-124.301,121.769-182.81l-5.53,49.271
			c-6.567,58.508,18.923,108.838,133.558,163.451s145.136,116.243,138.8,172.698L394.127,153.34z"/>
		<g>
			<path fill="none" stroke="#201C1D" stroke-linecap="round" stroke-miterlimit="10" d="M156.22-75.375
				c0,0,6.831,9.428,15.297,15.416"/>
			<path fill="none" stroke="#201C1D" stroke-linecap="round" stroke-miterlimit="10" d="M155.79-67.624
				c0,0,6.831,9.429,15.297,15.416"/>
			<path fill="none" stroke="#201C1D" stroke-linecap="round" stroke-miterlimit="10" d="M155.359-59.873
				c0,0,6.831,9.428,15.297,15.416"/>
			<path fill="none" stroke="#201C1D" stroke-linecap="round" stroke-miterlimit="10" d="M154.929-52.122
				c0,0,6.831,9.428,15.297,15.416"/>
			<path fill="none" stroke="#201C1D" stroke-linecap="round" stroke-miterlimit="10" d="M154.499-44.371
				c0,0,6.831,9.428,15.297,15.415"/>
		</g>
		<g>
			<path fill="none" stroke="#201C1D" stroke-linecap="round" stroke-miterlimit="10" d="M349.951,86.652
				c0,0-6.832-9.428-15.298-15.416"/>
			<path fill="none" stroke="#201C1D" stroke-linecap="round" stroke-miterlimit="10" d="M350.381,78.901
				c0,0-6.831-9.429-15.297-15.416"/>
			<path fill="none" stroke="#201C1D" stroke-linecap="round" stroke-miterlimit="10" d="M350.811,71.15
				c0,0-6.83-9.428-15.297-15.416"/>
			<path fill="none" stroke="#201C1D" stroke-linecap="round" stroke-miterlimit="10" d="M351.242,63.399
				c0,0-6.832-9.428-15.298-15.416"/>
			<path fill="none" stroke="#201C1D" stroke-linecap="round" stroke-miterlimit="10" d="M351.672,55.648
				c0,0-6.831-9.428-15.297-15.415"/>
		</g>
		<g>
			
				<line fill="none" stroke="#201C1D" stroke-linecap="round" stroke-miterlimit="10" x1="234.242" y1="-18.5" x2="245.143" y2="-13.009"/>
			
				<line fill="none" stroke="#201C1D" stroke-linecap="round" stroke-miterlimit="10" x1="234.242" y1="-10.878" x2="245.143" y2="-5.386"/>
			
				<line fill="none" stroke="#201C1D" stroke-linecap="round" stroke-miterlimit="10" x1="234.242" y1="-3.255" x2="245.143" y2="2.236"/>
			
				<line fill="none" stroke="#201C1D" stroke-linecap="round" stroke-miterlimit="10" x1="234.242" y1="4.367" x2="245.143" y2="9.859"/>
			
				<line fill="none" stroke="#201C1D" stroke-linecap="round" stroke-miterlimit="10" x1="234.242" y1="11.99" x2="245.143" y2="17.481"/>
		</g>
		<path fill="#EF919B" stroke="#201C1D" stroke-linecap="round" stroke-miterlimit="10" d="M415.77-67.296
			c4.968-44.258-20.232-125.32-134.526-182.972C170.822-305.967,142.96-371.624,142.96-371.624
			c-7.051,62.82,18.052,116.605,132.345,174.256C386.863-141.096,416.473-87.539,410.689-21.409
			c-0.143,1.622-0.582,5.717-0.766,7.352l2.298,0.275c1.642-8.868,2.592-17.739,3.419-27.034L415.77-67.296z"/>
		<g>
			<path fill="#EF919B" stroke="#201C1D" stroke-linecap="round" stroke-miterlimit="10" d="M184.001,650.317
				c99.428-21.797,142.176-53.584,158.501-95.045c4.003-10.168,4.948-7.822,6.219-19.148l-3.966,35.338
				c-6.455,57.516-42.379,100.148-166.19,127.291C54.755,725.896,60.191,677.462,184.001,650.317z"/>
		</g>
		<g>
			<path fill="#C7535F" stroke="#201C1D" stroke-linecap="round" stroke-miterlimit="10" d="M7.945,787.747
				c6.336-56.455,49.741-109.791,173.63-137.633c123.89-27.842,159.902-71.27,166.47-129.777l-5.531,49.27
				c-0.643,5.73-1.336,11.215-2.598,16.654c-9.73,47.531-52.113,88.008-163.871,113.125C52.156,727.228,8.752,780.562,2.416,837.017
				L7.945,787.747z"/>
		</g>
		<g>
			<path opacity="0.18" fill="#201C1D" stroke="#201C1D" stroke-linecap="round" stroke-miterlimit="10" d="M181.575,650.114
				c40.317-9.061,71.328-19.771,95.046-32.115c49.164-25.59,66.994-58.195,71.424-97.662l-5.531,49.27
				c-0.643,5.73-1.336,11.215-2.598,16.654c-5.9,28.82-23.804,55.045-61.896,76.826c-24.733,14.143-57.98,26.398-101.975,36.299
				C200.449,686.12,201.444,659.825,181.575,650.114z"/>
		</g>
		<path fill="#2CC0F0" stroke="#201C1D" stroke-linecap="round" stroke-miterlimit="10" d="M157.058,690.485l137.585,15.441
			c5.354,0.602,10.18-3.25,10.781-8.604l0,0c0.6-5.354-3.252-10.182-8.605-10.781l-137.584-15.441
			c-5.354-0.602-10.18,3.25-10.781,8.604l0,0C147.852,685.058,151.705,689.886,157.058,690.485z"/>
		<path fill="#68BA78" stroke="#201C1D" stroke-linecap="round" stroke-miterlimit="10" d="M51.762,746.282l258.651,29.031
			c5.353,0.6,10.18-3.252,10.78-8.605l0,0c0.602-5.354-3.252-10.18-8.604-10.781L53.938,726.897
			c-5.354-0.602-10.18,3.252-10.781,8.605l0,0C42.556,740.856,46.409,745.683,51.762,746.282z"/>
		<path fill="#FBE750" stroke="#201C1D" stroke-linecap="round" stroke-miterlimit="10" d="M51.762,746.282l134.892,15.141
			c5.353,0.602,10.18-3.252,10.781-8.605l0,0c0.601-5.354-3.252-10.18-8.605-10.781L53.938,726.897
			c-5.354-0.602-10.18,3.252-10.781,8.605l0,0C42.556,740.856,46.409,745.683,51.762,746.282z"/>
		<path fill="#FBE750" stroke="#201C1D" stroke-linecap="round" stroke-miterlimit="10" d="M51.762,746.282l128.768,14.453
			c5.353,0.602,10.18-3.252,10.781-8.605l0,0c0.601-5.354-3.251-10.18-8.605-10.781L53.938,726.897
			c-5.354-0.602-10.18,3.252-10.781,8.605l0,0C42.556,740.856,46.409,745.683,51.762,746.282z"/>
		<path fill="#2CC0F0" stroke="#201C1D" stroke-linecap="round" stroke-miterlimit="10" d="M108.314,576.101l216.164,24.033
			c5.354,0.596,10.177-3.262,10.771-8.615l0,0c0.596-5.354-3.262-10.178-8.615-10.771L110.47,556.712
			c-5.354-0.594-10.177,3.264-10.772,8.617l0,0C99.103,570.683,102.96,575.505,108.314,576.101z"/>
		<path fill="#E8606E" stroke="#201C1D" stroke-linecap="round" stroke-miterlimit="10" d="M108.314,576.103l112.312,12.486
			c5.354,0.596,10.176-3.262,10.771-8.617l0,0c0.596-5.354-3.262-10.176-8.616-10.771L110.47,556.714
			c-5.354-0.596-10.177,3.262-10.772,8.615l0,0C99.103,570.683,102.96,575.507,108.314,576.103z"/>
		<path fill="#E8606E" stroke="#201C1D" stroke-linecap="round" stroke-miterlimit="10" d="M108.314,576.103l105.425,11.721
			c5.354,0.596,10.177-3.262,10.772-8.617l0,0c0.595-5.354-3.263-10.176-8.617-10.771L110.47,556.714
			c-5.354-0.596-10.177,3.262-10.772,8.615l0,0C99.103,570.683,102.96,575.507,108.314,576.103z"/>
		<g>
			<g>
				<path fill="#2AABD6" stroke="#201C1D" stroke-linecap="round" stroke-miterlimit="10" d="M158.254,879.72
					c106.406-23.326,147.898-58.094,161.558-103.918c2.234-7.496,1.57-15.49,2.477-23.576l-3.28,48.639
					c-6.456,57.516-42.38,100.146-166.19,127.291C29.008,955.298,34.444,906.862,158.254,879.72z"/>
			</g>
			<g>
				<path fill="#2AABD6" stroke="#201C1D" stroke-linecap="round" stroke-miterlimit="10" d="M-17.802,1017.149
					c6.336-56.455,49.741-109.791,173.63-137.633c123.889-27.842,159.902-71.27,166.469-129.777l-5.529,49.27
					c-0.643,5.729-1.336,11.215-2.6,16.654c-9.729,47.531-52.111,88.008-163.87,113.123
					c-123.889,27.844-167.293,81.178-173.63,137.633L-17.802,1017.149z"/>
			</g>
			<path fill="#6DD4F5" stroke="#201C1D" stroke-linecap="round" stroke-miterlimit="10" d="M320.015,762.423
				c4.968-44.258-20.233-125.32-134.527-182.971C75.066,523.753,47.205,458.097,47.205,458.097
				c-7.051,62.82,18.252,113.453,132.546,171.105c114.293,57.65,142.079,118.193,134.417,186.461l2.299,0.275
				c1.641-8.867,2.592-17.738,3.42-27.033L320.015,762.423z"/>
			<path fill="#6DD4F5" stroke="#201C1D" stroke-linecap="round" stroke-miterlimit="10" d="M321.506,742.688
				c4.626-41.221-20.582-114.166-135.451-168.285C68.557,519.044,52.512,468.29,56.694,412.286c0.875-7.8,2.856-16.748,4.734-24.119
				c2.188-8.59,4.237-15.039,4.237-15.039s-10.609,15.019-13.776,43.24l0,0l-4.57,40.717
				c-6.567,58.51,18.924,108.838,133.558,163.451c114.635,54.615,145.136,116.244,138.799,172.699L321.506,742.688z"/>
			<path fill="#2CC0F0" stroke="#201C1D" stroke-linecap="round" stroke-miterlimit="10" d="M324.118,753.657
				c6.337-56.455-24.165-118.084-138.799-172.697C70.684,526.347,45.193,476.017,51.76,417.509l-5.53,49.27
				c-6.566,58.508,18.923,108.838,133.559,163.451c114.635,54.613,145.136,116.244,138.799,172.699L324.118,753.657z"/>
		</g>
		<path fill="#EF919B" stroke="#201C1D" stroke-linecap="round" stroke-miterlimit="10" d="M345.762,533.022
			c4.967-44.258-20.232-125.321-134.527-182.973C100.813,294.351,72.952,228.694,72.952,228.694
			c-7.051,62.82,19.359,113.441,133.653,171.092c111.557,56.271,139.859,112.992,134.076,179.123
			c-0.143,1.621-0.582,5.717-0.766,7.352l2.297,0.275c1.643-8.867,2.593-17.738,3.42-27.033L345.762,533.022z"/>
		<path fill="#EF919B" stroke="#201C1D" stroke-linecap="round" stroke-miterlimit="10" d="M347.252,513.286
			c4.627-41.221-20.582-114.166-135.45-168.286C94.304,289.643,78.259,238.889,82.441,182.884
			c0.849-16.894,6.25-35.032,8.971-39.157c0,0-10.609,15.019-13.777,43.239h0l-4.57,40.718
			c-6.566,58.508,18.923,108.838,133.558,163.452c114.635,54.614,145.137,116.243,138.801,172.698L347.252,513.286z"/>
		<path fill="#E8606E" stroke="#201C1D" stroke-linecap="round" stroke-miterlimit="10" d="M349.865,524.257
			c6.336-56.457-24.164-118.085-138.8-172.699C96.431,296.945,70.94,246.614,77.507,188.106l-5.53,49.27
			c-6.566,58.509,18.923,108.839,133.558,163.452c114.635,54.614,145.137,116.243,138.801,172.698L349.865,524.257z"/>
		<path fill="#E8606E" stroke="#201C1D" stroke-width="1.0118" stroke-linecap="round" stroke-miterlimit="10" d="M281.615,831.005
			l-266.65-29.928c-5.48-0.616-6.316,3.236-6.916,8.59l0,0c-0.602,5.354-0.739,10.181,4.74,10.797l266.65,29.926
			c5.479,0.615,10.409-3.225,11.01-8.578l0,0C291.05,836.458,287.095,831.618,281.615,831.005z"/>
		<path fill="#2CC0F0" stroke="#201C1D" stroke-width="1.0118" stroke-linecap="round" stroke-miterlimit="10" d="M150.524,816.291
			L14.965,801.077c-5.48-0.616-6.316,3.236-6.916,8.59l0,0c-0.602,5.354-0.739,10.181,4.74,10.797l135.559,15.212
			c5.48,0.616,10.409-3.226,11.011-8.577l0,0C159.959,821.745,156.004,816.905,150.524,816.291z"/>
		<path fill="#2CC0F0" stroke="#201C1D" stroke-width="1.0118" stroke-linecap="round" stroke-miterlimit="10" d="M142.731,815.416
			L14.965,801.077c-5.48-0.616-6.316,3.236-6.916,8.59l0,0c-0.602,5.354-0.739,10.181,4.74,10.797l127.768,14.339
			c5.479,0.615,10.409-3.227,11.009-8.58l0,0C152.167,820.869,148.212,816.031,142.731,815.416z"/>
		<path fill="#E8606E" stroke="#201C1D" stroke-linecap="round" stroke-miterlimit="10" d="M30.285,890.903l138.942,15.447
			c5.354,0.596,10.177-3.262,10.771-8.615l0,0c0.596-5.355-3.262-10.178-8.615-10.773l-84.975-9.447l-53.967-6
			c-5.354-0.596-10.177,3.262-10.772,8.615l0,0C21.073,885.485,24.931,890.308,30.285,890.903z"/>
		<path fill="#2CC0F0" stroke="#201C1D" stroke-linecap="round" stroke-miterlimit="10" d="M100.589,898.72l68.637,7.631
			c5.354,0.596,10.177-3.262,10.771-8.615l0,0c0.596-5.354-3.262-10.178-8.615-10.771l-68.638-7.633
			c-5.354-0.594-10.177,3.264-10.772,8.617l0,0C91.377,893.302,95.235,898.124,100.589,898.72z"/>
		<path fill="#2CC0F0" stroke="#201C1D" stroke-linecap="round" stroke-miterlimit="10" d="M108.422,899.591l60.804,6.76
			c5.354,0.596,10.177-3.262,10.771-8.615l0,0c0.596-5.354-3.262-10.178-8.615-10.771l-60.805-6.762
			c-5.354-0.596-10.177,3.264-10.772,8.617l0,0C99.211,894.173,103.068,898.995,108.422,899.591z"/>
		<g>
			<path fill="#EF919B" stroke="#201C1D" stroke-linecap="round" stroke-miterlimit="10" d="M276.393,1132.296
				c4.967-44.258-20.234-125.32-134.527-182.973C31.443,893.624,3.582,827.968,3.582,827.968
				c-7.05,62.82,18.052,116.605,132.346,174.256c111.558,56.271,141.168,109.828,135.383,175.959
				c-0.142,1.623-0.581,5.717-0.765,7.352l2.298,0.275c1.642-8.867,2.592-17.738,3.42-27.033L276.393,1132.296z"/>
			<path fill="#EF919B" stroke="#201C1D" stroke-linecap="round" stroke-miterlimit="10" d="M277.883,1112.56
				c4.626-41.221-20.582-114.166-135.451-168.285C24.934,888.917,8.889,838.163,13.072,782.157
				c1.896-16.889,8.971-39.156,8.971-39.156s-10.609,15.018-13.777,43.238l0,0l-4.57,40.717
				c-6.567,58.51,18.923,108.84,133.558,163.453s145.136,116.242,138.799,172.697L277.883,1112.56z"/>
			<path fill="#E8606E" stroke="#201C1D" stroke-linecap="round" stroke-miterlimit="10" d="M280.496,1123.53
				c6.336-56.455-24.166-118.086-138.8-172.699C27.061,896.218,1.571,845.888,8.138,787.38l-5.53,49.27
				c-6.566,58.51,18.924,108.84,133.559,163.453s145.136,116.242,138.799,172.697L280.496,1123.53z"/>
		</g>
	</g>
	<g>
		<path fill="none" stroke="#201C1D" stroke-linecap="round" stroke-miterlimit="10" d="M74.768,213.04
			c0,0-3.936,25.469,13.43,51.634"/>
		<path fill="none" stroke="#201C1D" stroke-linecap="round" stroke-miterlimit="10" d="M73.774,221.266
			c0,0-3.051,11.199,8.831,40.446"/>
		<path fill="none" stroke="#201C1D" stroke-linecap="round" stroke-miterlimit="10" d="M75.603,207.099
			c0,0-4.422,12.342,7.46,41.589"/>
		<path fill="none" stroke="#201C1D" stroke-linecap="round" stroke-miterlimit="10" d="M72.404,232.919
			c0,0-3.051,13.027,7.46,41.36"/>
		<path fill="none" stroke="#201C1D" stroke-linecap="round" stroke-miterlimit="10" d="M73.378,225.312
			c0,0-3.936,25.47,13.43,51.633"/>
		<path fill="none" stroke="#201C1D" stroke-linecap="round" stroke-miterlimit="10" d="M71.989,237.583
			c0,0-3.936,28.943,13.429,55.107"/>
	</g>
	<g>
		<path fill="none" stroke="#201C1D" stroke-linecap="round" stroke-miterlimit="10" d="M48.192,445.642
			c0,0-3.936,25.471,13.43,51.635"/>
		<path fill="none" stroke="#201C1D" stroke-linecap="round" stroke-miterlimit="10" d="M47.199,453.868
			c0,0-3.051,11.199,8.831,40.447"/>
		<path fill="none" stroke="#201C1D" stroke-linecap="round" stroke-miterlimit="10" d="M49.027,439.702
			c0,0-4.422,12.342,7.46,41.588"/>
		<path fill="none" stroke="#201C1D" stroke-linecap="round" stroke-miterlimit="10" d="M45.829,465.521
			c0,0-3.051,13.027,7.459,41.361"/>
		<path fill="none" stroke="#201C1D" stroke-linecap="round" stroke-miterlimit="10" d="M46.803,457.913
			c0,0-3.936,25.471,13.429,51.635"/>
		<path fill="none" stroke="#201C1D" stroke-linecap="round" stroke-miterlimit="10" d="M45.414,470.187
			c0,0-3.937,28.941,13.429,55.105"/>
	</g>
	<g>
		<path fill="none" stroke="#201C1D" stroke-linecap="round" stroke-miterlimit="10" d="M322.124,773.579
			c0,0,3.422-25.877-16.88-51.572"/>
		<path fill="none" stroke="#201C1D" stroke-linecap="round" stroke-miterlimit="10" d="M322.92,765.233
			c0,0,2.973-11.432-11.344-40.469"/>
		<path fill="none" stroke="#201C1D" stroke-linecap="round" stroke-miterlimit="10" d="M321.418,779.612
			c0,0,4.456-12.643-9.861-41.68"/>
		<path fill="none" stroke="#201C1D" stroke-linecap="round" stroke-miterlimit="10" d="M324.007,753.411
			c0,0,2.905-13.277-9.853-41.447"/>
		<path fill="none" stroke="#201C1D" stroke-linecap="round" stroke-miterlimit="10" d="M323.209,761.132
			c0,0,3.422-25.877-16.881-51.572"/>
		<path fill="none" stroke="#201C1D" stroke-linecap="round" stroke-miterlimit="10" d="M324.293,748.687
			c0,0,3.291-29.385-17.011-55.08"/>
	</g>
	<g>
		<path fill="none" stroke="#201C1D" stroke-linecap="round" stroke-miterlimit="10" d="M347.74,541.753
			c0,0,3.422-25.877-16.881-51.572"/>
		<path fill="none" stroke="#201C1D" stroke-linecap="round" stroke-miterlimit="10" d="M348.535,533.407
			c0,0,2.975-11.434-11.344-40.469"/>
		<path fill="none" stroke="#201C1D" stroke-linecap="round" stroke-miterlimit="10" d="M347.035,547.786
			c0,0,4.455-12.643-9.862-41.68"/>
		<path fill="none" stroke="#201C1D" stroke-linecap="round" stroke-miterlimit="10" d="M349.623,521.585
			c0,0,2.904-13.277-9.854-41.449"/>
		<path fill="none" stroke="#201C1D" stroke-linecap="round" stroke-miterlimit="10" d="M348.824,529.306
			c0,0,3.422-25.877-16.88-51.572"/>
		<path fill="none" stroke="#201C1D" stroke-linecap="round" stroke-miterlimit="10" d="M349.909,516.858
			c0,0,3.291-29.383-17.011-55.08"/>
	</g>
	<g>
		<path fill="none" stroke="#201C1D" stroke-linecap="round" stroke-miterlimit="10" d="M391.815,171.087
			c0,0,3.422-25.877-16.88-51.574"/>
		<path fill="none" stroke="#201C1D" stroke-linecap="round" stroke-miterlimit="10" d="M392.611,162.741
			c0,0,2.973-11.434-11.344-40.47"/>
		<path fill="none" stroke="#201C1D" stroke-linecap="round" stroke-miterlimit="10" d="M391.109,177.119
			c0,0,4.456-12.643-9.861-41.68"/>
		<path fill="none" stroke="#201C1D" stroke-linecap="round" stroke-miterlimit="10" d="M393.698,150.919
			c0,0,2.905-13.278-9.853-41.449"/>
		<path fill="none" stroke="#201C1D" stroke-linecap="round" stroke-miterlimit="10" d="M392.9,158.64
			c0,0,3.422-25.877-16.881-51.573"/>
		<path fill="none" stroke="#201C1D" stroke-linecap="round" stroke-miterlimit="10" d="M393.984,146.192
			c0,0,3.291-29.384-17.011-55.08"/>
	</g>
	<g>
		<path fill="none" stroke="#201C1D" stroke-linecap="round" stroke-miterlimit="10" d="M80.809,521.063
			c0,0,6.831,9.43,15.297,15.416"/>
		<path fill="none" stroke="#201C1D" stroke-linecap="round" stroke-miterlimit="10" d="M80.379,528.815
			c0,0,6.831,9.428,15.297,15.416"/>
		<path fill="none" stroke="#201C1D" stroke-linecap="round" stroke-miterlimit="10" d="M79.948,536.565
			c0,0,6.831,9.428,15.297,15.416"/>
		<path fill="none" stroke="#201C1D" stroke-linecap="round" stroke-miterlimit="10" d="M79.518,544.317
			c0,0,6.831,9.428,15.297,15.414"/>
		<path fill="none" stroke="#201C1D" stroke-linecap="round" stroke-miterlimit="10" d="M79.088,552.067
			c0,0,6.831,9.428,15.296,15.416"/>
	</g>
	<g>
		<path fill="none" stroke="#201C1D" stroke-linecap="round" stroke-miterlimit="10" d="M274.539,683.091
			c0,0-6.83-9.428-15.297-15.416"/>
		<path fill="none" stroke="#201C1D" stroke-linecap="round" stroke-miterlimit="10" d="M274.971,675.341
			c0,0-6.832-9.43-15.297-15.416"/>
		<path fill="none" stroke="#201C1D" stroke-linecap="round" stroke-miterlimit="10" d="M275.4,667.589
			c0,0-6.83-9.428-15.297-15.416"/>
		<path fill="none" stroke="#201C1D" stroke-linecap="round" stroke-miterlimit="10" d="M275.831,659.839
			c0,0-6.831-9.428-15.298-15.416"/>
		<path fill="none" stroke="#201C1D" stroke-linecap="round" stroke-miterlimit="10" d="M276.262,652.087
			c0,0-6.832-9.428-15.297-15.414"/>
	</g>
	<g>
		
			<line fill="none" stroke="#201C1D" stroke-linecap="round" stroke-miterlimit="10" x1="158.832" y1="577.938" x2="169.732" y2="583.431"/>
		
			<line fill="none" stroke="#201C1D" stroke-linecap="round" stroke-miterlimit="10" x1="158.832" y1="585.562" x2="169.732" y2="591.052"/>
		
			<line fill="none" stroke="#201C1D" stroke-linecap="round" stroke-miterlimit="10" x1="158.832" y1="593.185" x2="169.732" y2="598.675"/>
		
			<line fill="none" stroke="#201C1D" stroke-linecap="round" stroke-miterlimit="10" x1="158.832" y1="600.806" x2="169.732" y2="606.298"/>
		
			<line fill="none" stroke="#201C1D" stroke-linecap="round" stroke-miterlimit="10" x1="158.832" y1="608.429" x2="169.732" y2="613.921"/>
	</g>
	<g>
		<path fill="none" stroke="#201C1D" stroke-linecap="round" stroke-miterlimit="10" d="M108.988,292.378
			c0,0,6.831,9.428,15.297,15.416"/>
		<path fill="none" stroke="#201C1D" stroke-linecap="round" stroke-miterlimit="10" d="M108.558,300.129
			c0,0,6.831,9.428,15.297,15.415"/>
		<path fill="none" stroke="#201C1D" stroke-linecap="round" stroke-miterlimit="10" d="M108.127,307.879
			c0,0,6.831,9.429,15.297,15.416"/>
		<path fill="none" stroke="#201C1D" stroke-linecap="round" stroke-miterlimit="10" d="M107.697,315.63
			c0,0,6.831,9.428,15.297,15.416"/>
		<path fill="none" stroke="#201C1D" stroke-linecap="round" stroke-miterlimit="10" d="M107.267,323.381
			c0,0,6.831,9.428,15.297,15.416"/>
	</g>
	<g>
		<path fill="none" stroke="#201C1D" stroke-linecap="round" stroke-miterlimit="10" d="M302.719,454.405
			c0,0-6.83-9.43-15.297-15.416"/>
		<path fill="none" stroke="#201C1D" stroke-linecap="round" stroke-miterlimit="10" d="M303.149,446.653
			c0,0-6.831-9.428-15.297-15.416"/>
		<path fill="none" stroke="#201C1D" stroke-linecap="round" stroke-miterlimit="10" d="M303.58,438.903
			c0,0-6.831-9.428-15.297-15.416"/>
		<path fill="none" stroke="#201C1D" stroke-linecap="round" stroke-miterlimit="10" d="M304.01,431.151
			c0,0-6.83-9.428-15.297-15.414"/>
		<path fill="none" stroke="#201C1D" stroke-linecap="round" stroke-miterlimit="10" d="M304.44,423.401
			c0,0-6.831-9.428-15.297-15.416"/>
	</g>
	<g>
		
			<line fill="none" stroke="#201C1D" stroke-linecap="round" stroke-miterlimit="10" x1="187.011" y1="349.252" x2="197.912" y2="354.744"/>
		
			<line fill="none" stroke="#201C1D" stroke-linecap="round" stroke-miterlimit="10" x1="187.011" y1="356.875" x2="197.912" y2="362.367"/>
		
			<line fill="none" stroke="#201C1D" stroke-linecap="round" stroke-miterlimit="10" x1="187.011" y1="364.498" x2="197.912" y2="369.989"/>
		
			<line fill="none" stroke="#201C1D" stroke-linecap="round" stroke-miterlimit="10" x1="187.011" y1="372.121" x2="197.912" y2="377.612"/>
		
			<line fill="none" stroke="#201C1D" stroke-linecap="round" stroke-miterlimit="10" x1="187.011" y1="379.743" x2="197.912" y2="385.234"/>
	</g>
	<g>
		<path fill="none" stroke="#201C1D" stroke-linecap="round" stroke-miterlimit="10" d="M314.984,257.36
			c0,0-6.869,3.598-11.774,4.906"/>
		<path fill="none" stroke="#201C1D" stroke-linecap="round" stroke-miterlimit="10" d="M314.984,263.575
			c0,0-6.869,3.598-11.774,4.905"/>
		<path fill="none" stroke="#201C1D" stroke-linecap="round" stroke-miterlimit="10" d="M314.984,269.789
			c0,0-6.869,3.598-11.774,4.906"/>
		<path fill="none" stroke="#201C1D" stroke-linecap="round" stroke-miterlimit="10" d="M314.984,276.003
			c0,0-6.869,3.598-11.774,4.906"/>
		<path fill="none" stroke="#201C1D" stroke-linecap="round" stroke-miterlimit="10" d="M314.984,282.217
			c0,0-6.869,3.598-11.774,4.906"/>
		<path fill="none" stroke="#201C1D" stroke-linecap="round" stroke-miterlimit="10" d="M314.984,288.432
			c0,0-6.869,3.598-11.774,4.905"/>
	</g>
	<g>
		<path fill="none" stroke="#201C1D" stroke-linecap="round" stroke-miterlimit="10" d="M282.605,271.098
			c0,0-6.869,3.597-11.775,4.906"/>
		<path fill="none" stroke="#201C1D" stroke-linecap="round" stroke-miterlimit="10" d="M282.605,277.312
			c0,0-6.869,3.598-11.775,4.905"/>
		<path fill="none" stroke="#201C1D" stroke-linecap="round" stroke-miterlimit="10" d="M282.605,283.526
			c0,0-6.869,3.598-11.775,4.906"/>
		<path fill="none" stroke="#201C1D" stroke-linecap="round" stroke-miterlimit="10" d="M282.605,289.74
			c0,0-6.869,3.598-11.775,4.906"/>
		<path fill="none" stroke="#201C1D" stroke-linecap="round" stroke-miterlimit="10" d="M282.605,295.955
			c0,0-6.869,3.598-11.775,4.905"/>
		<path fill="none" stroke="#201C1D" stroke-linecap="round" stroke-miterlimit="10" d="M282.605,302.168
			c0,0-6.869,3.598-11.775,4.906"/>
	</g>
	<g>
		<path fill="none" stroke="#201C1D" stroke-linecap="round" stroke-miterlimit="10" d="M183.857,78.418
			c0,0-6.868,3.598-11.774,4.906"/>
		<path fill="none" stroke="#201C1D" stroke-linecap="round" stroke-miterlimit="10" d="M183.857,84.632
			c0,0-6.868,3.598-11.774,4.906"/>
		<path fill="none" stroke="#201C1D" stroke-linecap="round" stroke-miterlimit="10" d="M183.857,90.847
			c0,0-6.868,3.598-11.774,4.906"/>
		<path fill="none" stroke="#201C1D" stroke-linecap="round" stroke-miterlimit="10" d="M183.857,97.061
			c0,0-6.868,3.598-11.774,4.906"/>
		<path fill="none" stroke="#201C1D" stroke-linecap="round" stroke-miterlimit="10" d="M183.857,103.275
			c0,0-6.868,3.598-11.774,4.906"/>
		<path fill="none" stroke="#201C1D" stroke-linecap="round" stroke-miterlimit="10" d="M183.857,109.489
			c0,0-6.868,3.598-11.774,4.906"/>
	</g>
	<g>
		<path fill="none" stroke="#201C1D" stroke-linecap="round" stroke-miterlimit="10" d="M155.918,91.906
			c0,0-6.868,3.598-11.774,4.906"/>
		<path fill="none" stroke="#201C1D" stroke-linecap="round" stroke-miterlimit="10" d="M155.918,98.12
			c0,0-6.868,3.598-11.774,4.906"/>
		<path fill="none" stroke="#201C1D" stroke-linecap="round" stroke-miterlimit="10" d="M155.918,104.334
			c0,0-6.868,3.598-11.774,4.906"/>
		<path fill="none" stroke="#201C1D" stroke-linecap="round" stroke-miterlimit="10" d="M155.918,110.548
			c0,0-6.868,3.597-11.774,4.906"/>
		<path fill="none" stroke="#201C1D" stroke-linecap="round" stroke-miterlimit="10" d="M155.918,116.763
			c0,0-6.868,3.598-11.774,4.906"/>
		<path fill="none" stroke="#201C1D" stroke-linecap="round" stroke-miterlimit="10" d="M155.918,122.977
			c0,0-6.868,3.598-11.774,4.906"/>
	</g>
	<g>
		<path fill="none" stroke="#201C1D" stroke-linecap="round" stroke-miterlimit="10" d="M124.039,675.126
			c0,0-6.869,3.598-11.774,4.904"/>
		<path fill="none" stroke="#201C1D" stroke-linecap="round" stroke-miterlimit="10" d="M124.039,681.339
			c0,0-6.869,3.598-11.774,4.906"/>
		<path fill="none" stroke="#201C1D" stroke-linecap="round" stroke-miterlimit="10" d="M124.039,687.554
			c0,0-6.869,3.598-11.774,4.906"/>
		<path fill="none" stroke="#201C1D" stroke-linecap="round" stroke-miterlimit="10" d="M124.039,693.769
			c0,0-6.869,3.598-11.774,4.904"/>
		<path fill="none" stroke="#201C1D" stroke-linecap="round" stroke-miterlimit="10" d="M124.039,699.981
			c0,0-6.869,3.598-11.774,4.906"/>
		<path fill="none" stroke="#201C1D" stroke-linecap="round" stroke-miterlimit="10" d="M124.039,706.196
			c0,0-6.869,3.598-11.774,4.906"/>
	</g>
	<g>
		<path fill="none" stroke="#201C1D" stroke-linecap="round" stroke-miterlimit="10" d="M96.1,688.612c0,0-6.869,3.598-11.774,4.906
			"/>
		<path fill="none" stroke="#201C1D" stroke-linecap="round" stroke-miterlimit="10" d="M96.1,694.827c0,0-6.869,3.598-11.774,4.906
			"/>
		<path fill="none" stroke="#201C1D" stroke-linecap="round" stroke-miterlimit="10" d="M96.1,701.04c0,0-6.869,3.6-11.774,4.906"/>
		<path fill="none" stroke="#201C1D" stroke-linecap="round" stroke-miterlimit="10" d="M96.1,707.255c0,0-6.869,3.598-11.774,4.906
			"/>
		<path fill="none" stroke="#201C1D" stroke-linecap="round" stroke-miterlimit="10" d="M96.1,713.47c0,0-6.869,3.598-11.774,4.906"
			/>
		<path fill="none" stroke="#201C1D" stroke-linecap="round" stroke-miterlimit="10" d="M96.1,719.683c0,0-6.869,3.6-11.774,4.906"
			/>
	</g>
</g>
<g>
	<path fill="#F5F1D8" d="M263.148,360.318v-7.353c0-0.478,0.3-0.792,0.75-0.792h4.761c0.437,0,0.655,0.205,0.655,0.573v0.082
		c0,0.382-0.218,0.586-0.655,0.586h-4.12v2.811h3.056c0.45,0,0.655,0.205,0.655,0.56v0.054c0,0.382-0.218,0.573-0.655,0.573h-3.028
		v3.001c0,0.423-0.205,0.642-0.614,0.642h-0.218C263.353,361.055,263.148,360.796,263.148,360.318z"/>
	<path fill="#F5F1D8" d="M270.238,352.284c0-0.491,0.3-0.764,0.819-0.764c0.504,0,0.791,0.272,0.791,0.764s-0.287,0.75-0.805,0.75
		C270.539,353.034,270.238,352.761,270.238,352.284z M270.361,360.414v-5.388c0-0.491,0.259-0.655,0.614-0.655h0.136
		c0.355,0,0.601,0.15,0.601,0.655v5.388c0,0.491-0.246,0.642-0.601,0.642h-0.136C270.621,361.055,270.361,360.905,270.361,360.414z"
		/>
	<path fill="#F5F1D8" d="M277.794,354.043c0.218-0.354,0.437-0.519,0.778-0.519c0.504,0,0.736,0.546,0.696,0.573l-1.105,1.146
		c0.354,0.409,0.559,0.914,0.559,1.474c0,1.378-1.173,2.387-2.837,2.387c-0.082,0-0.164,0-0.246-0.014
		c-0.055,0.082-0.068,0.164-0.068,0.246c0,0.423,0.628,0.464,1.773,0.75c0.928,0.246,1.91,0.709,1.91,1.787
		c0,1.241-1.269,2.005-3.438,2.005c-2.21,0-3.233-0.586-3.233-1.814c0-0.955,0.9-1.596,2.101-1.8
		c-0.164-0.137-0.272-0.341-0.272-0.614c0-0.272,0.149-0.532,0.368-0.709c-1.05-0.341-1.719-1.16-1.719-2.183
		c0-1.378,1.187-2.483,2.81-2.483c0.586,0,1.119,0.15,1.569,0.396L277.794,354.043z M273.879,362.024
		c0,0.586,0.668,0.914,1.964,0.914c1.323,0,2.101-0.368,2.101-1.023c0-0.668-1.051-0.805-2.019-1.051
		C274.82,360.932,273.879,361.328,273.879,362.024z M277.412,356.731c0-0.873-0.627-1.487-1.555-1.487
		c-0.887,0-1.514,0.601-1.514,1.487s0.641,1.486,1.542,1.486S277.412,357.618,277.412,356.731z"/>
	<path fill="#F5F1D8" d="M282.96,354.466c-0.641,0-1.091-0.382-1.091-0.941c0-0.464,0.354-0.723,0.396-0.695
		c0.205,0.19,0.45,0.313,0.805,0.313c0.587,0,1.037-0.45,1.105-1.037h0.478c0.409,0,0.614,0.219,0.614,0.642v7.68
		c0,0.422-0.205,0.641-0.614,0.641h-0.177c-0.396,0-0.6-0.219-0.6-0.641v-6.33C283.642,354.33,283.314,354.466,282.96,354.466z"/>
	<path fill="#F5F1D8" d="M287.295,360.359v-0.164c0-0.478,0.246-0.75,0.737-0.75h0.177c0.504,0,0.75,0.273,0.75,0.75v0.164
		c0,0.477-0.259,0.737-0.75,0.737h-0.177C287.555,361.096,287.295,360.836,287.295,360.359z"/>
	<path fill="#F5F1D8" d="M292.544,357.904c0-3.396,2.142-5.798,3.833-5.798c0.396,0,0.627,0.178,0.627,0.546
		c0,0.219-0.164,0.45-0.205,0.478c-1.828,0.409-2.878,2.456-2.878,4.761c0,2.388,1.05,4.379,2.878,4.802
		c0.041,0.014,0.205,0.246,0.205,0.464c0,0.368-0.232,0.546-0.627,0.546C294.687,363.702,292.544,361.41,292.544,357.904z"/>
	<path fill="#F5F1D8" d="M301.846,361.165c-2.551,0-4.174-1.924-4.174-4.557c0-2.701,1.855-4.61,4.529-4.61
		c2.142,0,3.342,1.146,3.342,1.828c0,0.641-0.723,0.778-0.764,0.723c-0.546-0.873-1.569-1.337-2.551-1.337
		c-1.828,0-3.11,1.392-3.11,3.41c0,1.978,1.132,3.41,3.001,3.41c1.418,0,2.469-0.805,2.646-1.964v-0.573h-2.074
		c-0.478,0-0.709-0.15-0.709-0.532v-0.068c0-0.396,0.231-0.545,0.709-0.545h2.564c0.505,0,0.75,0.313,0.75,0.805v3.765
		c0,0.041-0.205,0.137-0.464,0.137c-0.409,0-0.764-0.205-0.764-1.132v-0.164C304.233,360.632,303.21,361.165,301.846,361.165z"/>
	<path fill="#F5F1D8" d="M310.612,354.275c0.682,0,1.078,0.328,1.078,0.873c0,0.518-0.382,0.723-0.41,0.696
		c-0.205-0.164-0.463-0.287-0.832-0.287c-1.064,0-1.487,1.037-1.487,2.551v2.305c0,0.491-0.259,0.642-0.6,0.642h-0.15
		c-0.354,0-0.6-0.15-0.6-0.642v-5.893c0-0.041,0.218-0.15,0.491-0.15c0.409,0,0.832,0.219,0.846,1.146
		C309.235,354.712,309.78,354.275,310.612,354.275z"/>
	<path fill="#F5F1D8" d="M316.803,356.921c0-0.995-0.573-1.541-1.624-1.541c-0.996,0-1.582,0.519-1.882,1.118
		c0,0.014-0.832,0-0.832-0.654c0-0.628,0.955-1.569,2.81-1.569c1.855,0,2.865,0.955,2.865,2.619v4.024
		c0,0.068-0.246,0.15-0.491,0.15c-0.478,0-0.818-0.259-0.832-1.064c-0.491,0.71-1.351,1.146-2.36,1.146
		c-1.405,0-2.237-0.751-2.237-1.869c0-1.514,1.446-2.169,4.406-2.224h0.177V356.921z M316.803,358.409v-0.505l-0.369,0.014
		c-1.91,0.068-2.892,0.423-2.892,1.31c0,0.587,0.464,0.955,1.241,0.955C315.958,360.182,316.803,359.445,316.803,358.409z"/>
	<path fill="#F5F1D8" d="M319.61,355.544c-0.423,0-0.586-0.177-0.586-0.504v-0.096c0-0.327,0.164-0.505,0.586-0.505h0.478v-1.009
		c0-0.464,0.232-0.641,0.6-0.641h0.137c0.354,0,0.586,0.136,0.586,0.641v1.009h1.487c0.423,0,0.573,0.164,0.573,0.491v0.096
		c0,0.341-0.164,0.518-0.586,0.518h-1.487v3.315c0,0.818,0.232,1.214,0.873,1.214c0.423,0,0.723-0.191,0.928-0.464
		c0.041-0.041,0.382,0.15,0.382,0.573c0,0.505-0.559,0.996-1.528,0.996c-1.351,0-1.964-0.75-1.964-2.169v-3.465H319.61z"/>
	<path fill="#F5F1D8" d="M327.124,361.165c-1.732,0-2.524-1.174-2.524-2.811v-3.328c0-0.491,0.246-0.655,0.587-0.655h0.15
		c0.354,0,0.6,0.15,0.6,0.655v3.165c0,1.132,0.573,1.8,1.569,1.8c0.818,0,1.459-0.464,1.801-1.159v-3.806
		c0-0.491,0.246-0.655,0.586-0.655h0.15c0.354,0,0.6,0.15,0.6,0.655v5.879c0,0.041-0.218,0.15-0.477,0.15
		c-0.409,0-0.818-0.205-0.859-1.037C328.856,360.687,328.133,361.165,327.124,361.165z"/>
	<path fill="#F5F1D8" d="M332.235,352.284c0-0.491,0.3-0.764,0.819-0.764c0.504,0,0.791,0.272,0.791,0.764s-0.287,0.75-0.805,0.75
		C332.536,353.034,332.235,352.761,332.235,352.284z M332.358,360.414v-5.388c0-0.491,0.259-0.655,0.614-0.655h0.136
		c0.355,0,0.601,0.15,0.601,0.655v5.388c0,0.491-0.246,0.642-0.601,0.642h-0.136C332.618,361.055,332.358,360.905,332.358,360.414z"
		/>
	<path fill="#F5F1D8" d="M335.453,355.544c-0.423,0-0.586-0.177-0.586-0.504v-0.096c0-0.327,0.164-0.505,0.586-0.505h0.478v-1.009
		c0-0.464,0.232-0.641,0.6-0.641h0.137c0.354,0,0.586,0.136,0.586,0.641v1.009h1.487c0.423,0,0.573,0.164,0.573,0.491v0.096
		c0,0.341-0.164,0.518-0.586,0.518h-1.487v3.315c0,0.818,0.232,1.214,0.873,1.214c0.423,0,0.723-0.191,0.928-0.464
		c0.041-0.041,0.382,0.15,0.382,0.573c0,0.505-0.56,0.996-1.528,0.996c-1.351,0-1.964-0.75-1.964-2.169v-3.465H335.453z"/>
	<path fill="#F5F1D8" d="M340.007,357.713c0-2.005,1.418-3.438,3.451-3.438c2.005,0,3.424,1.446,3.424,3.465
		c0,2.005-1.419,3.438-3.438,3.438C341.413,361.178,340.007,359.746,340.007,357.713z M345.627,357.74
		c0-1.364-0.914-2.36-2.183-2.36c-1.255,0-2.196,0.982-2.196,2.333c0,1.351,0.941,2.36,2.196,2.36
		C344.7,360.073,345.627,359.077,345.627,357.74z"/>
	<path fill="#F5F1D8" d="M350.616,361.165c-1.732,0-2.524-1.174-2.524-2.811v-3.328c0-0.491,0.246-0.655,0.587-0.655h0.15
		c0.354,0,0.6,0.15,0.6,0.655v3.165c0,1.132,0.573,1.8,1.568,1.8c0.819,0,1.46-0.464,1.801-1.159v-3.806
		c0-0.491,0.246-0.655,0.586-0.655h0.15c0.355,0,0.601,0.15,0.601,0.655v5.879c0,0.041-0.218,0.15-0.478,0.15
		c-0.409,0-0.818-0.205-0.859-1.037C352.349,360.687,351.625,361.165,350.616,361.165z"/>
	<path fill="#F5F1D8" d="M355.319,359.773c0-0.423,0.491-0.642,0.532-0.614c0.437,0.56,1.174,0.982,2.21,0.982
		c0.928,0,1.446-0.341,1.446-0.887c0-0.668-0.614-0.791-1.691-1.023c-0.969-0.204-2.306-0.504-2.306-1.896
		c0-1.228,1.023-2.06,2.619-2.06c1.678,0,2.524,0.709,2.524,1.323c0,0.423-0.519,0.669-0.546,0.628
		c-0.409-0.546-1.091-0.928-1.923-0.928c-0.928,0-1.418,0.354-1.418,0.9c0,0.601,0.573,0.736,1.637,0.969
		c1.01,0.218,2.415,0.518,2.415,1.937c0,1.255-1.037,2.061-2.728,2.061C356.26,361.165,355.319,360.4,355.319,359.773z"/>
	<path fill="#F5F1D8" d="M364.045,359.418c0-0.464,0.6-0.805,0.641-0.751c0.505,0.737,1.446,1.351,2.661,1.351
		c1.228,0,1.923-0.504,1.923-1.377c0-0.996-1.037-1.228-2.21-1.5c-1.364-0.314-2.783-0.791-2.783-2.578
		c0-1.501,1.296-2.564,3.178-2.564c1.965,0,3.029,0.927,3.029,1.568c0,0.505-0.627,0.818-0.654,0.777
		c-0.464-0.668-1.337-1.187-2.36-1.187c-1.105,0-1.828,0.532-1.828,1.351c0,0.969,0.859,1.118,2.087,1.405
		c1.5,0.341,2.947,0.927,2.947,2.633c0,1.623-1.255,2.632-3.315,2.632C365.232,361.178,364.045,360.141,364.045,359.418z"/>
	<path fill="#F5F1D8" d="M371.599,357.713c0-1.992,1.446-3.438,3.41-3.438c1.951,0,2.811,1.201,2.811,1.814
		c0,0.56-0.764,0.669-0.805,0.601c-0.3-0.723-0.859-1.282-1.978-1.282c-1.228,0-2.155,0.968-2.155,2.305
		c0,1.351,0.914,2.333,2.155,2.333c1.105,0,1.678-0.559,1.978-1.282c0.041-0.068,0.805,0.027,0.805,0.614c0,0.6-0.873,1.8-2.811,1.8
		C373.031,361.178,371.599,359.732,371.599,357.713z"/>
	<path fill="#F5F1D8" d="M378.962,352.284c0-0.491,0.3-0.764,0.818-0.764c0.504,0,0.791,0.272,0.791,0.764s-0.287,0.75-0.805,0.75
		C379.262,353.034,378.962,352.761,378.962,352.284z M379.084,360.414v-5.388c0-0.491,0.259-0.655,0.614-0.655h0.137
		c0.354,0,0.6,0.15,0.6,0.655v5.388c0,0.491-0.245,0.642-0.6,0.642h-0.137C379.344,361.055,379.084,360.905,379.084,360.414z"/>
	<path fill="#F5F1D8" d="M385.262,360.114c1.146,0,1.719-0.505,2.06-1.091c0.027-0.027,0.709,0.095,0.709,0.668
		s-1.009,1.487-2.796,1.487c-2.073,0-3.465-1.377-3.465-3.424c0-1.992,1.418-3.479,3.356-3.479c1.896,0,3.151,1.336,3.151,3.301
		v0.109c0,0.287-0.095,0.396-0.409,0.396h-4.829C383.134,359.282,384.021,360.114,385.262,360.114z M386.967,357.167
		c-0.068-1.133-0.764-1.869-1.855-1.869c-1.078,0-1.91,0.777-2.074,1.869H386.967z"/>
	<path fill="#F5F1D8" d="M393.048,354.275c1.732,0,2.537,1.187,2.537,2.81v3.328c0,0.491-0.259,0.642-0.6,0.642h-0.15
		c-0.354,0-0.6-0.15-0.6-0.642v-3.165c0-1.105-0.56-1.787-1.514-1.787c-0.859,0-1.515,0.464-1.842,1.146v3.806
		c0,0.491-0.259,0.642-0.6,0.642h-0.15c-0.354,0-0.6-0.15-0.6-0.642v-5.893c0-0.041,0.218-0.15,0.491-0.15
		c0.395,0,0.805,0.205,0.846,1.064C391.315,354.752,392.052,354.275,393.048,354.275z"/>
	<path fill="#F5F1D8" d="M396.782,357.713c0-1.992,1.446-3.438,3.41-3.438c1.951,0,2.81,1.201,2.81,1.814
		c0,0.56-0.764,0.669-0.805,0.601c-0.3-0.723-0.859-1.282-1.978-1.282c-1.228,0-2.155,0.968-2.155,2.305
		c0,1.351,0.914,2.333,2.155,2.333c1.105,0,1.678-0.559,1.978-1.282c0.041-0.068,0.805,0.027,0.805,0.614c0,0.6-0.873,1.8-2.81,1.8
		C398.214,361.178,396.782,359.732,396.782,357.713z"/>
	<path fill="#F5F1D8" d="M407.31,360.114c1.146,0,1.719-0.505,2.06-1.091c0.027-0.027,0.709,0.095,0.709,0.668
		s-1.009,1.487-2.796,1.487c-2.073,0-3.465-1.377-3.465-3.424c0-1.992,1.419-3.479,3.356-3.479c1.896,0,3.151,1.336,3.151,3.301
		v0.109c0,0.287-0.095,0.396-0.41,0.396h-4.829C405.182,359.282,406.068,360.114,407.31,360.114z M409.015,357.167
		c-0.068-1.133-0.764-1.869-1.855-1.869c-1.078,0-1.91,0.777-2.074,1.869H409.015z"/>
	<path fill="#F5F1D8" d="M414.125,360.414v-7.652c0-0.423,0.204-0.642,0.6-0.642h0.191c0.409,0,0.614,0.219,0.614,0.642v7.652
		c0,0.423-0.205,0.642-0.614,0.642h-0.191C414.33,361.055,414.125,360.836,414.125,360.414z"/>
	<path fill="#F5F1D8" d="M417.479,360.414v-8.635c0-0.041,0.232-0.15,0.491-0.15c0.423,0,0.859,0.218,0.859,1.16v7.625
		c0,0.491-0.245,0.642-0.6,0.642h-0.136C417.739,361.055,417.479,360.905,417.479,360.414z"/>
	<path fill="#F5F1D8" d="M420.615,360.414v-8.635c0-0.041,0.232-0.15,0.491-0.15c0.423,0,0.859,0.218,0.859,1.16v7.625
		c0,0.491-0.246,0.642-0.601,0.642h-0.136C420.875,361.055,420.615,360.905,420.615,360.414z"/>
	<path fill="#F5F1D8" d="M426.166,361.165c-1.732,0-2.524-1.174-2.524-2.811v-3.328c0-0.491,0.246-0.655,0.587-0.655h0.15
		c0.354,0,0.6,0.15,0.6,0.655v3.165c0,1.132,0.573,1.8,1.569,1.8c0.818,0,1.459-0.464,1.801-1.159v-3.806
		c0-0.491,0.246-0.655,0.586-0.655h0.15c0.355,0,0.601,0.15,0.601,0.655v5.879c0,0.041-0.218,0.15-0.478,0.15
		c-0.409,0-0.818-0.205-0.859-1.037C427.898,360.687,427.175,361.165,426.166,361.165z"/>
	<path fill="#F5F1D8" d="M430.868,359.773c0-0.423,0.491-0.642,0.532-0.614c0.437,0.56,1.173,0.982,2.21,0.982
		c0.928,0,1.446-0.341,1.446-0.887c0-0.668-0.614-0.791-1.691-1.023c-0.969-0.204-2.305-0.504-2.305-1.896
		c0-1.228,1.023-2.06,2.619-2.06c1.678,0,2.523,0.709,2.523,1.323c0,0.423-0.519,0.669-0.546,0.628
		c-0.409-0.546-1.091-0.928-1.923-0.928c-0.927,0-1.418,0.354-1.418,0.9c0,0.601,0.573,0.736,1.637,0.969
		c1.01,0.218,2.415,0.518,2.415,1.937c0,1.255-1.037,2.061-2.728,2.061C431.81,361.165,430.868,360.4,430.868,359.773z"/>
	<path fill="#F5F1D8" d="M437.686,355.544c-0.422,0-0.586-0.177-0.586-0.504v-0.096c0-0.327,0.164-0.505,0.586-0.505h0.478v-1.009
		c0-0.464,0.232-0.641,0.6-0.641h0.137c0.354,0,0.586,0.136,0.586,0.641v1.009h1.487c0.423,0,0.573,0.164,0.573,0.491v0.096
		c0,0.341-0.164,0.518-0.586,0.518h-1.487v3.315c0,0.818,0.231,1.214,0.873,1.214c0.422,0,0.723-0.191,0.928-0.464
		c0.041-0.041,0.382,0.15,0.382,0.573c0,0.505-0.559,0.996-1.528,0.996c-1.351,0-1.964-0.75-1.964-2.169v-3.465H437.686z"/>
	<path fill="#F5F1D8" d="M445.731,354.275c0.682,0,1.078,0.328,1.078,0.873c0,0.518-0.382,0.723-0.41,0.696
		c-0.205-0.164-0.463-0.287-0.832-0.287c-1.064,0-1.487,1.037-1.487,2.551v2.305c0,0.491-0.259,0.642-0.6,0.642h-0.15
		c-0.355,0-0.6-0.15-0.6-0.642v-5.893c0-0.041,0.218-0.15,0.491-0.15c0.409,0,0.832,0.219,0.846,1.146
		C444.354,354.712,444.899,354.275,445.731,354.275z"/>
	<path fill="#F5F1D8" d="M451.922,356.921c0-0.995-0.573-1.541-1.624-1.541c-0.996,0-1.582,0.519-1.882,1.118
		c0,0.014-0.832,0-0.832-0.654c0-0.628,0.954-1.569,2.81-1.569c1.855,0,2.865,0.955,2.865,2.619v4.024
		c0,0.068-0.246,0.15-0.492,0.15c-0.477,0-0.818-0.259-0.832-1.064c-0.491,0.71-1.35,1.146-2.359,1.146
		c-1.405,0-2.237-0.751-2.237-1.869c0-1.514,1.446-2.169,4.406-2.224h0.177V356.921z M451.922,358.409v-0.505l-0.368,0.014
		c-1.911,0.068-2.892,0.423-2.892,1.31c0,0.587,0.464,0.955,1.241,0.955C451.077,360.182,451.922,359.445,451.922,358.409z"/>
	<path fill="#F5F1D8" d="M454.729,355.544c-0.423,0-0.587-0.177-0.587-0.504v-0.096c0-0.327,0.164-0.505,0.587-0.505h0.478v-1.009
		c0-0.464,0.232-0.641,0.6-0.641h0.137c0.354,0,0.586,0.136,0.586,0.641v1.009h1.487c0.423,0,0.573,0.164,0.573,0.491v0.096
		c0,0.341-0.164,0.518-0.586,0.518h-1.487v3.315c0,0.818,0.232,1.214,0.873,1.214c0.423,0,0.723-0.191,0.928-0.464
		c0.041-0.041,0.382,0.15,0.382,0.573c0,0.505-0.56,0.996-1.528,0.996c-1.351,0-1.964-0.75-1.964-2.169v-3.465H454.729z"/>
	<path fill="#F5F1D8" d="M459.706,352.284c0-0.491,0.3-0.764,0.819-0.764c0.504,0,0.791,0.272,0.791,0.764s-0.287,0.75-0.805,0.75
		C460.006,353.034,459.706,352.761,459.706,352.284z M459.829,360.414v-5.388c0-0.491,0.259-0.655,0.614-0.655h0.137
		c0.354,0,0.6,0.15,0.6,0.655v5.388c0,0.491-0.246,0.642-0.6,0.642h-0.137C460.088,361.055,459.829,360.905,459.829,360.414z"/>
	<path fill="#F5F1D8" d="M462.515,357.713c0-2.005,1.419-3.438,3.451-3.438c2.005,0,3.424,1.446,3.424,3.465
		c0,2.005-1.418,3.438-3.438,3.438C463.92,361.178,462.515,359.746,462.515,357.713z M468.135,357.74c0-1.364-0.914-2.36-2.183-2.36
		c-1.255,0-2.196,0.982-2.196,2.333c0,1.351,0.941,2.36,2.196,2.36S468.135,359.077,468.135,357.74z"/>
	<path fill="#F5F1D8" d="M474.174,354.275c1.732,0,2.537,1.187,2.537,2.81v3.328c0,0.491-0.259,0.642-0.6,0.642h-0.15
		c-0.354,0-0.6-0.15-0.6-0.642v-3.165c0-1.105-0.561-1.787-1.515-1.787c-0.859,0-1.515,0.464-1.842,1.146v3.806
		c0,0.491-0.259,0.642-0.6,0.642h-0.15c-0.354,0-0.6-0.15-0.6-0.642v-5.893c0-0.041,0.218-0.15,0.491-0.15
		c0.396,0,0.805,0.205,0.846,1.064C472.441,354.752,473.178,354.275,474.174,354.275z"/>
	<path fill="#F5F1D8" d="M477.539,363.156c0-0.218,0.164-0.45,0.205-0.464c1.828-0.423,2.879-2.414,2.879-4.802
		c0-2.305-1.051-4.352-2.879-4.761c-0.041-0.027-0.205-0.259-0.205-0.478c0-0.368,0.232-0.546,0.629-0.546
		c1.691,0,3.832,2.401,3.832,5.798c0,3.506-2.141,5.798-3.832,5.798C477.771,363.702,477.539,363.524,477.539,363.156z"/>
</g>
<line fill="none" stroke="#F5F1D8" stroke-miterlimit="10" x1="324.207" y1="311" x2="332.207" y2="345"/>
</svg>
