<?xml version="1.0" encoding="utf-8"?>
<!-- Generator: Adobe Illustrator 16.0.0, SVG Export Plug-In . SVG Version: 6.00 Build 0)  -->
<!DOCTYPE svg PUBLIC "-//W3C//DTD SVG 1.0//EN" "http://www.w3.org/TR/2001/REC-SVG-20010904/DTD/svg10.dtd">
<svg version="1.0" id="Layer_1" xmlns="http://www.w3.org/2000/svg" xmlns:xlink="http://www.w3.org/1999/xlink" x="0px" y="0px"
	 width="406px" height="688px" viewBox="58.448 -31.665 406 688" enable-background="new 58.448 -31.665 406 688"
	 xml:space="preserve">
<g id="Layer_2" display="none">
	<rect x="-121.104" y="-71.78" display="inline" fill="#6EFF29" width="894" height="1003"/>
</g>
<g>
	<g>
		<g>
			<g>
				<path fill="#EF919B" stroke="#201C1D" stroke-linecap="round" stroke-miterlimit="10" d="M256.758,7.675
					c-97.444-21.362-139.339-52.515-155.338-93.149c-3.923-9.965-4.849-7.665-6.094-18.766l3.887,34.632
					c6.326,56.369,41.533,98.15,162.873,124.752S378.098,34.277,256.758,7.675z"/>
			</g>
			<g>
				<path fill="#C7535F" stroke="#201C1D" stroke-linecap="round" stroke-miterlimit="10" d="M429.301,142.362
					c-6.21-55.329-48.748-107.599-170.165-134.886S102.424-62.372,95.989-119.712l5.419,48.287c0.63,5.615,1.31,10.991,2.547,16.322
					c9.536,46.583,51.073,86.251,160.601,110.866C385.972,83.05,428.511,135.32,434.721,190.649L429.301,142.362z"/>
			</g>
			<g>
				<path opacity="0.18" fill="#201C1D" stroke="#201C1D" stroke-linecap="round" stroke-miterlimit="10" d="M259.136,7.476
					C137.719-19.811,102.424-62.372,95.989-119.712l5.419,48.287c0.63,5.615,1.31,10.991,2.547,16.322
					c9.536,46.583,51.139,85.961,160.601,110.866C226.678,41.929,239.732,10.646,259.136,7.476z"/>
			</g>
			<g>
				<path fill="#2CC0F0" stroke="#201C1D" stroke-linecap="round" stroke-miterlimit="10" d="M281.991,232.5
					c-121.34-26.602-156.547-68.383-162.874-124.751l5.328,47.468c6.326,56.369,41.533,98.15,162.873,124.752
					C408.659,306.57,403.331,259.101,281.991,232.5z"/>
			</g>
			<g>
				<path fill="#2AABD6" stroke="#201C1D" stroke-linecap="round" stroke-miterlimit="10" d="M454.534,367.186
					c-6.21-55.329-48.748-107.599-170.165-134.886s-156.711-69.848-163.147-127.188l5.419,48.287
					c0.63,5.615,1.31,10.991,2.547,16.322c9.536,46.583,51.073,86.251,160.6,110.866c121.418,27.287,163.955,79.557,170.165,134.886
					L454.534,367.186z"/>
			</g>
			<g>
				<path opacity="0.18" fill="#201C1D" stroke="#201C1D" stroke-linecap="round" stroke-miterlimit="10" d="M454.534,367.186
					c-6.21-55.329-48.748-107.599-170.165-134.886c37.967,15.252,16.94,47.254,5.419,48.287
					c121.418,27.287,163.955,79.557,170.165,134.886L454.534,367.186z"/>
			</g>
			<path fill="#68BA78" stroke="#201C1D" stroke-linecap="round" stroke-miterlimit="10" d="M389.577,102.628l-255.291,28.652
				c-5.247,0.59-9.977-3.187-10.566-8.434l0,0c-0.589-5.246,3.187-9.977,8.433-10.565l255.291-28.652
				c5.246-0.589,9.978,3.187,10.566,8.433l0,0C398.599,97.309,394.823,102.04,389.577,102.628z"/>
			<path fill="#FBE750" stroke="#201C1D" stroke-linecap="round" stroke-miterlimit="10" d="M264.069,116.714l-129.783,14.566
				c-5.247,0.59-9.977-3.187-10.566-8.434l0,0c-0.589-5.246,3.187-9.977,8.433-10.565l129.784-14.566
				c5.247-0.589,9.978,3.187,10.565,8.434l0,0C273.093,111.396,269.316,116.125,264.069,116.714z"/>
			<path fill="#FBE750" stroke="#201C1D" stroke-linecap="round" stroke-miterlimit="10" d="M256.61,117.552l-122.324,13.729
				c-5.247,0.59-9.977-3.187-10.566-8.434l0,0c-0.589-5.246,3.187-9.977,8.433-10.565l122.324-13.729
				c5.246-0.588,9.977,3.188,10.565,8.434l0,0C265.632,112.233,261.856,116.963,256.61,117.552z"/>
			<path fill="#2CC0F0" stroke="#201C1D" stroke-linecap="round" stroke-miterlimit="10" d="M422.39,180.833l-260.031,28.911
				c-5.247,0.584-9.974-3.197-10.557-8.444l0,0c-0.583-5.247,3.197-9.974,8.445-10.558l260.031-28.91
				c5.247-0.584,9.974,3.197,10.557,8.443l0,0C431.417,175.523,427.637,180.25,422.39,180.833z"/>
			<path fill="#E8606E" stroke="#201C1D" stroke-linecap="round" stroke-miterlimit="10" d="M292.171,195.311l-129.812,14.433
				c-5.247,0.584-9.974-3.197-10.557-8.443v-0.001c-0.583-5.247,3.197-9.974,8.444-10.557l129.812-14.433
				c5.247-0.584,9.974,3.197,10.558,8.443l0,0C301.199,190.001,297.419,194.728,292.171,195.311z"/>
			<path fill="#E8606E" stroke="#201C1D" stroke-linecap="round" stroke-miterlimit="10" d="M284.98,196.111l-122.622,13.633
				c-5.247,0.584-9.974-3.197-10.557-8.443v-0.001c-0.583-5.247,3.197-9.974,8.444-10.557l122.622-13.634
				c5.247-0.583,9.974,3.197,10.557,8.444l0,0C294.009,190.8,290.228,195.527,284.98,196.111z"/>
			<path fill="#68BA78" stroke="#201C1D" stroke-linecap="round" stroke-miterlimit="10" d="M451.532,440.488l-273.754,30.438
				c-5.247,0.584-9.974-3.197-10.557-8.444l0,0c-0.583-5.247,3.197-9.974,8.444-10.558l273.755-30.437
				c5.247-0.583,9.974,3.197,10.557,8.444l0,0C460.56,435.178,456.779,439.905,451.532,440.488z"/>
			<path fill="#FBE750" stroke="#201C1D" stroke-linecap="round" stroke-miterlimit="10" d="M310.155,456.208l-132.377,14.718
				c-5.247,0.583-9.974-3.198-10.557-8.444l0,0c-0.583-5.248,3.197-9.975,8.444-10.558l132.377-14.718
				c5.247-0.584,9.974,3.197,10.557,8.444l0,0C319.183,450.898,315.401,455.625,310.155,456.208z"/>
			<path fill="#FBE750" stroke="#201C1D" stroke-linecap="round" stroke-miterlimit="10" d="M304.55,456.832l-126.772,14.095
				c-5.247,0.583-9.974-3.198-10.557-8.444l0,0c-0.583-5.248,3.197-9.975,8.444-10.558l126.771-14.095
				c5.247-0.584,9.974,3.197,10.557,8.444l0,0C313.577,451.521,309.796,456.248,304.55,456.832z"/>
			<path fill="#2CC0F0" stroke="#201C1D" stroke-linecap="round" stroke-miterlimit="10" d="M449.344,377.648l-240.407,26.761
				c-5.247,0.583-9.974-3.197-10.557-8.444l0,0c-0.583-5.247,3.197-9.974,8.444-10.557l240.407-26.761
				C452.479,358.064,454.591,377.065,449.344,377.648z"/>
			<path fill="#E8606E" stroke="#201C1D" stroke-linecap="round" stroke-miterlimit="10" d="M325.536,391.446l-116.6,12.964
				c-5.247,0.584-9.974-3.197-10.557-8.444l0,0c-0.583-5.247,3.197-9.974,8.444-10.558l116.599-12.964
				c5.248-0.583,9.975,3.198,10.558,8.444l0,0C334.563,386.136,330.783,390.863,325.536,391.446z"/>
			<path fill="#E8606E" stroke="#201C1D" stroke-linecap="round" stroke-miterlimit="10" d="M316.599,392.439L208.937,404.41
				c-5.247,0.584-9.974-3.197-10.557-8.444l0,0c-0.583-5.247,3.197-9.974,8.444-10.558l107.661-11.97
				c5.247-0.583,9.974,3.197,10.557,8.444l0,0C325.626,387.129,321.845,391.856,316.599,392.439z"/>
			<path fill="#E8606E" stroke="#201C1D" stroke-linecap="round" stroke-miterlimit="10" d="M408.137,247.991l-136.169,15.14
				c-5.247,0.583-9.974-3.197-10.557-8.444l0,0c-0.584-5.247,3.197-9.974,8.443-10.558l136.17-15.14
				c5.247-0.583,9.974,3.197,10.557,8.444l0,0C417.165,242.681,413.384,247.407,408.137,247.991z"/>
			<path fill="#2CC0F0" stroke="#201C1D" stroke-linecap="round" stroke-miterlimit="10" d="M339.235,255.652l-67.268,7.479
				c-5.247,0.584-9.974-3.197-10.557-8.444l0,0c-0.584-5.247,3.197-9.974,8.443-10.557l67.268-7.479
				c5.248-0.583,9.975,3.197,10.558,8.445l0,0C348.263,250.341,344.482,255.068,339.235,255.652z"/>
			<path fill="#2CC0F0" stroke="#201C1D" stroke-linecap="round" stroke-miterlimit="10" d="M331.559,256.505l-59.591,6.625
				c-5.247,0.584-9.974-3.197-10.557-8.444l0,0c-0.584-5.247,3.197-9.974,8.443-10.557l59.592-6.626
				c5.246-0.583,9.973,3.197,10.557,8.445l0,0C340.586,251.195,336.806,255.921,331.559,256.505z"/>
			<path fill="#2CC0F0" stroke="#201C1D" stroke-linecap="round" stroke-miterlimit="10" d="M417.21,328.83l-116.207,12.92
				c-5.247,0.584-9.974-3.197-10.557-8.444l0,0c-0.584-5.247,3.197-9.974,8.444-10.557l116.207-12.921
				c5.247-0.583,9.974,3.197,10.557,8.445l0,0C426.237,323.519,422.457,328.246,417.21,328.83z"/>
			<path fill="#68BA78" stroke="#201C1D" stroke-linecap="round" stroke-miterlimit="10" d="M308.641,48.101L151.306,65.759
				c-5.247,0.59-9.977-3.187-10.566-8.434l0,0c-0.589-5.246,3.187-9.977,8.434-10.565l157.334-17.658
				c5.247-0.589,9.978,3.187,10.565,8.434l0,0C317.663,42.782,313.887,47.512,308.641,48.101z"/>
			<path fill="#FBE750" stroke="#201C1D" stroke-linecap="round" stroke-miterlimit="10" d="M308.641,48.101l-74.081,8.314
				c-5.246,0.589-9.977-3.187-10.566-8.434l0,0c-0.589-5.246,3.187-9.977,8.433-10.565l74.081-8.314
				c5.247-0.589,9.978,3.187,10.565,8.434l0,0C317.663,42.782,313.887,47.512,308.641,48.101z"/>
			<path fill="#FBE750" stroke="#201C1D" stroke-linecap="round" stroke-miterlimit="10" d="M308.641,48.101l-67.905,7.621
				c-5.246,0.59-9.977-3.187-10.566-8.434l0,0c-0.588-5.246,3.188-9.977,8.434-10.565l67.905-7.621
				c5.247-0.589,9.978,3.187,10.565,8.434l0,0C317.663,42.782,313.887,47.512,308.641,48.101z"/>
			<path fill="#6DD4F5" stroke="#201C1D" stroke-linecap="round" stroke-miterlimit="10" d="M123.459,117.544
				c-4.868-43.375,19.829-122.82,131.843-179.321C363.52-116.364,390.825-180.71,390.825-180.71
				c6.909,61.566-17.692,114.278-129.705,170.779S121.679,102.816,129.188,169.721l-2.252,0.27
				c-1.609-8.69-2.54-17.385-3.352-26.494L123.459,117.544z"/>
			<path fill="#6DD4F5" stroke="#201C1D" stroke-linecap="round" stroke-miterlimit="10" d="M121.998,98.203
				c-4.534-40.398,20.171-111.888,132.748-164.928c115.152-54.254,130.878-103.994,126.778-158.882
				c-1.857-16.551-8.791-38.376-8.791-38.376s10.397,14.72,13.502,42.377l0,0l4.479,39.904
				c6.436,57.342-18.547,106.667-130.894,160.19C147.473,32.012,117.581,92.412,123.791,147.741L121.998,98.203z"/>
			<path fill="#2CC0F0" stroke="#201C1D" stroke-linecap="round" stroke-miterlimit="10" d="M119.438,108.954
				c-6.21-55.329,23.683-115.729,136.03-169.253c112.347-53.523,137.328-102.849,130.893-160.189l5.42,48.287
				c6.436,57.341-18.547,106.666-130.894,160.189C148.54,41.512,118.647,101.912,124.857,157.24L119.438,108.954z"/>
			<g>
				<path fill="none" stroke="#201C1D" stroke-linecap="round" stroke-miterlimit="10" d="M352.597-115.198
					c0,0-6.695,9.24-14.992,15.108"/>
				<path fill="none" stroke="#201C1D" stroke-linecap="round" stroke-miterlimit="10" d="M353.019-107.601
					c0,0-6.695,9.239-14.992,15.108"/>
				<path fill="none" stroke="#201C1D" stroke-linecap="round" stroke-miterlimit="10" d="M353.44-100.005
					c0,0-6.695,9.24-14.992,15.108"/>
				<path fill="none" stroke="#201C1D" stroke-linecap="round" stroke-miterlimit="10" d="M353.862-92.409
					c0,0-6.695,9.24-14.992,15.107"/>
				<path fill="none" stroke="#201C1D" stroke-linecap="round" stroke-miterlimit="10" d="M354.284-84.813
					c0,0-6.695,9.24-14.992,15.108"/>
			</g>
			<g>
				<path fill="none" stroke="#201C1D" stroke-linecap="round" stroke-miterlimit="10" d="M162.731,43.595
					c0,0,6.695-9.239,14.992-15.107"/>
				<path fill="none" stroke="#201C1D" stroke-linecap="round" stroke-miterlimit="10" d="M162.31,36c0,0,6.694-9.24,14.992-15.107"
					/>
				<path fill="none" stroke="#201C1D" stroke-linecap="round" stroke-miterlimit="10" d="M161.888,28.404
					c0,0,6.695-9.24,14.992-15.108"/>
				<path fill="none" stroke="#201C1D" stroke-linecap="round" stroke-miterlimit="10" d="M161.466,20.807
					c0,0,6.695-9.239,14.992-15.108"/>
				<path fill="none" stroke="#201C1D" stroke-linecap="round" stroke-miterlimit="10" d="M161.045,13.211
					c0,0,6.694-9.24,14.991-15.108"/>
			</g>
			<g>
				
					<line fill="none" stroke="#201C1D" stroke-linecap="round" stroke-miterlimit="10" x1="276.131" y1="-59.458" x2="265.448" y2="-54.077"/>
				
					<line fill="none" stroke="#201C1D" stroke-linecap="round" stroke-miterlimit="10" x1="276.131" y1="-51.988" x2="265.448" y2="-46.606"/>
				
					<line fill="none" stroke="#201C1D" stroke-linecap="round" stroke-miterlimit="10" x1="276.131" y1="-44.517" x2="265.448" y2="-39.135"/>
				
					<line fill="none" stroke="#201C1D" stroke-linecap="round" stroke-miterlimit="10" x1="276.131" y1="-37.046" x2="265.448" y2="-31.665"/>
				
					<line fill="none" stroke="#201C1D" stroke-linecap="round" stroke-miterlimit="10" x1="276.131" y1="-29.577" x2="265.448" y2="-24.194"/>
			</g>
			<path fill="#EF919B" stroke="#201C1D" stroke-linecap="round" stroke-miterlimit="10" d="M98.226-107.28
				c-4.868-43.375,19.83-122.82,131.842-179.321c108.219-54.587,135.523-118.934,135.523-118.934
				c6.91,61.566-17.691,114.278-129.704,170.779C126.556-179.607,97.536-127.12,103.205-62.309c0.139,1.59,0.57,5.604,0.75,7.206
				l-2.252,0.27c-1.609-8.69-2.54-17.385-3.351-26.494L98.226-107.28z"/>
			<g>
				<path fill="#EF919B" stroke="#201C1D" stroke-linecap="round" stroke-miterlimit="10" d="M325.369,596.013
					c-97.444-21.362-139.339-52.515-155.338-93.149c-3.923-9.965-4.849-7.665-6.095-18.766l3.887,34.633
					c6.327,56.368,41.534,98.149,162.874,124.751S446.709,622.616,325.369,596.013z"/>
			</g>
			<g>
				<path fill="#C7535F" stroke="#201C1D" stroke-linecap="round" stroke-miterlimit="10" d="M497.912,730.701
					c-6.21-55.329-48.748-107.6-170.165-134.887S171.036,525.967,164.6,468.626l5.42,48.287c0.63,5.614,1.31,10.99,2.547,16.321
					c9.536,46.583,51.073,86.251,160.601,110.866c121.416,27.287,163.954,79.558,170.164,134.887L497.912,730.701z"/>
			</g>
			<g>
				<path opacity="0.18" fill="#201C1D" stroke="#201C1D" stroke-linecap="round" stroke-miterlimit="10" d="M327.747,595.814
					c-39.513-8.88-69.904-19.377-93.149-31.475c-48.183-25.078-65.656-57.033-69.998-95.713l5.42,48.287
					c0.63,5.614,1.31,10.99,2.547,16.321c5.782,28.244,23.328,53.946,60.66,75.292c24.239,13.86,56.823,25.873,99.94,35.574
					C309.25,631.101,308.274,605.331,327.747,595.814z"/>
			</g>
			<path fill="#2CC0F0" stroke="#201C1D" stroke-linecap="round" stroke-miterlimit="10" d="M351.775,635.38l-134.839,15.133
				c-5.247,0.59-9.977-3.187-10.566-8.434l0,0c-0.589-5.246,3.187-9.977,8.434-10.565l134.839-15.134
				c5.247-0.588,9.978,3.188,10.565,8.434l0,0C360.798,630.06,357.021,634.791,351.775,635.38z"/>
			<path fill="#68BA78" stroke="#201C1D" stroke-linecap="round" stroke-miterlimit="10" d="M454.97,690.064l-253.489,28.45
				c-5.247,0.589-9.977-3.187-10.566-8.433l0,0c-0.589-5.247,3.187-9.978,8.434-10.566l253.489-28.451
				c5.247-0.588,9.978,3.188,10.566,8.434l0,0C463.992,684.745,460.216,689.475,454.97,690.064z"/>
			<path fill="#FBE750" stroke="#201C1D" stroke-linecap="round" stroke-miterlimit="10" d="M454.97,690.064l-132.2,14.838
				c-5.247,0.588-9.978-3.188-10.565-8.434l0,0c-0.59-5.246,3.187-9.978,8.434-10.566l132.199-14.838
				c5.247-0.588,9.978,3.188,10.566,8.434l0,0C463.992,684.745,460.216,689.475,454.97,690.064z"/>
			<path fill="#FBE750" stroke="#201C1D" stroke-linecap="round" stroke-miterlimit="10" d="M454.97,690.064l-126.198,14.164
				c-5.246,0.589-9.977-3.188-10.565-8.434l0,0c-0.589-5.246,3.188-9.977,8.434-10.566l126.197-14.164
				c5.247-0.588,9.978,3.188,10.566,8.434l0,0C463.992,684.745,460.216,689.475,454.97,690.064z"/>
			<path fill="#2CC0F0" stroke="#201C1D" stroke-linecap="round" stroke-miterlimit="10" d="M399.546,523.277l-211.851,23.555
				c-5.247,0.584-9.974-3.197-10.557-8.444l0,0c-0.583-5.247,3.197-9.974,8.445-10.557l211.85-23.555
				c5.248-0.583,9.975,3.197,10.558,8.444l0,0C408.573,517.968,404.793,522.695,399.546,523.277z"/>
			<path fill="#E8606E" stroke="#201C1D" stroke-linecap="round" stroke-miterlimit="10" d="M399.546,523.279l-110.07,12.237
				c-5.248,0.583-9.975-3.197-10.558-8.444l0,0c-0.583-5.247,3.197-9.974,8.444-10.557l110.07-12.238
				c5.248-0.584,9.975,3.197,10.558,8.444l0,0C408.573,517.968,404.793,522.695,399.546,523.279z"/>
			<path fill="#E8606E" stroke="#201C1D" stroke-linecap="round" stroke-miterlimit="10" d="M399.546,523.279l-103.321,11.487
				c-5.247,0.583-9.974-3.197-10.557-8.444l0,0c-0.583-5.248,3.197-9.975,8.444-10.558l103.32-11.487
				c5.248-0.584,9.975,3.197,10.558,8.444l0,0C408.573,517.968,404.793,522.695,399.546,523.279z"/>
			<g>
				<g>
					<path fill="#2AABD6" stroke="#201C1D" stroke-linecap="round" stroke-miterlimit="10" d="M350.603,820.837
						c-104.283-22.861-144.946-56.936-158.334-101.844c-2.19-7.347-1.538-15.182-2.428-23.106l3.216,47.667
						c6.327,56.369,41.534,98.15,162.874,124.752S471.942,847.439,350.603,820.837z"/>
				</g>
				<g>
					<path fill="#2AABD6" stroke="#201C1D" stroke-linecap="round" stroke-miterlimit="10" d="M523.146,955.525
						c-6.21-55.329-48.748-107.6-170.165-134.887s-156.711-69.848-163.147-127.188l5.42,48.287c0.63,5.614,1.309,10.99,2.547,16.321
						c9.536,46.583,51.072,86.251,160.6,110.866c121.417,27.287,163.955,79.557,170.165,134.887L523.146,955.525z"/>
				</g>
				<path fill="#6DD4F5" stroke="#201C1D" stroke-linecap="round" stroke-miterlimit="10" d="M192.07,705.882
					c-4.868-43.375,19.829-122.82,131.842-179.32c108.219-54.588,135.523-118.935,135.523-118.935
					c6.91,61.567-17.889,111.189-129.901,167.69C217.521,631.82,190.291,691.155,197.8,758.059l-2.252,0.27
					c-1.609-8.69-2.541-17.385-3.352-26.493L192.07,705.882z"/>
				<path fill="#6DD4F5" stroke="#201C1D" stroke-linecap="round" stroke-miterlimit="10" d="M190.609,686.541
					c-4.534-40.398,20.171-111.888,132.747-164.928C438.51,467.36,454.235,417.619,450.136,362.732
					c-0.857-7.645-2.799-16.413-4.639-23.638c-2.145-8.418-4.153-14.738-4.153-14.738s10.398,14.719,13.502,42.376l0,0l4.479,39.905
					c6.437,57.341-18.545,106.666-130.893,160.19c-112.347,53.523-142.24,113.922-136.03,169.252L190.609,686.541z"/>
				<path fill="#2CC0F0" stroke="#201C1D" stroke-linecap="round" stroke-miterlimit="10" d="M188.048,697.292
					c-6.209-55.329,23.683-115.729,136.03-169.252c112.348-53.523,137.329-102.849,130.894-160.19l5.419,48.287
					c6.436,57.342-18.546,106.667-130.893,160.19C217.15,629.85,187.258,690.25,193.468,745.579L188.048,697.292z"/>
			</g>
			<path fill="#EF919B" stroke="#201C1D" stroke-linecap="round" stroke-miterlimit="10" d="M166.837,481.058
				c-4.868-43.375,19.829-122.82,131.842-179.32c108.219-54.588,135.523-118.934,135.523-118.934
				c6.91,61.566-18.973,111.177-130.985,167.678c-109.331,55.148-137.069,110.737-131.4,175.548c0.139,1.59,0.57,5.604,0.75,7.205
				l-2.252,0.27c-1.609-8.69-2.541-17.385-3.352-26.493L166.837,481.058z"/>
			<path fill="#EF919B" stroke="#201C1D" stroke-linecap="round" stroke-miterlimit="10" d="M165.376,461.716
				c-4.534-40.398,20.171-111.887,132.748-164.928c115.152-54.253,130.878-103.994,126.778-158.881
				c-0.832-16.557-6.126-34.334-8.792-38.376c0,0,10.398,14.719,13.502,42.376l0,0l4.479,39.905
				c6.437,57.341-18.545,106.667-130.893,160.19c-112.347,53.523-142.239,113.923-136.03,169.252L165.376,461.716z"/>
			<path fill="#E8606E" stroke="#201C1D" stroke-linecap="round" stroke-miterlimit="10" d="M162.815,472.467
				c-6.21-55.329,23.683-115.729,136.029-169.252c112.348-53.523,137.329-102.849,130.894-160.19l5.419,48.287
				c6.436,57.342-18.546,106.667-130.893,160.19c-112.347,53.523-142.24,113.923-136.03,169.252L162.815,472.467z"/>
			<g>
				<path fill="#EF919B" stroke="#201C1D" stroke-linecap="round" stroke-miterlimit="10" d="M234.822,1068.373
					c-4.868-43.375,19.829-122.819,131.843-179.32c108.218-54.587,135.523-118.934,135.523-118.934
					c6.91,61.566-17.691,114.277-129.705,170.779c-109.331,55.148-138.35,107.637-132.682,172.447c0.139,1.59,0.57,5.604,0.75,7.205
					l-2.252,0.27c-1.609-8.69-2.54-17.385-3.352-26.494L234.822,1068.373z"/>
				<path fill="#EF919B" stroke="#201C1D" stroke-linecap="round" stroke-miterlimit="10" d="M233.361,1049.031
					c-4.534-40.397,20.172-111.887,132.748-164.927c115.153-54.253,130.878-103.995,126.778-158.882
					c-1.857-16.551-8.791-38.375-8.791-38.375s10.397,14.719,13.502,42.376l0,0l4.479,39.905
					c6.436,57.34-18.546,106.666-130.893,160.189c-112.348,53.523-142.24,113.923-136.03,169.252L233.361,1049.031z"/>
				<path fill="#E8606E" stroke="#201C1D" stroke-linecap="round" stroke-miterlimit="10" d="M230.801,1059.783
					c-6.21-55.329,23.683-115.729,136.03-169.252c112.347-53.523,137.328-102.85,130.893-160.19l5.42,48.287
					c6.436,57.341-18.546,106.667-130.894,160.19c-112.347,53.523-142.239,113.923-136.03,169.252L230.801,1059.783z"/>
			</g>
		</g>
		<g>
			<path fill="none" stroke="#201C1D" stroke-linecap="round" stroke-miterlimit="10" d="M432.423,167.461
				c0,0,3.857,24.962-13.161,50.604"/>
			<path fill="none" stroke="#201C1D" stroke-linecap="round" stroke-miterlimit="10" d="M433.396,175.523
				c0,0,2.99,10.976-8.654,39.64"/>
			<path fill="none" stroke="#201C1D" stroke-linecap="round" stroke-miterlimit="10" d="M431.604,161.639
				c0,0,4.334,12.095-7.311,40.759"/>
			<path fill="none" stroke="#201C1D" stroke-linecap="round" stroke-miterlimit="10" d="M434.74,186.944
				c0,0,2.989,12.767-7.312,40.535"/>
			<path fill="none" stroke="#201C1D" stroke-linecap="round" stroke-miterlimit="10" d="M433.784,179.488
				c0,0,3.858,24.962-13.161,50.604"/>
			<path fill="none" stroke="#201C1D" stroke-linecap="round" stroke-miterlimit="10" d="M435.146,191.515
				c0,0,3.857,28.365-13.162,54.007"/>
		</g>
		<g>
			<path fill="none" stroke="#201C1D" stroke-linecap="round" stroke-miterlimit="10" d="M458.468,395.422
				c0,0,3.857,24.962-13.161,50.604"/>
			<path fill="none" stroke="#201C1D" stroke-linecap="round" stroke-miterlimit="10" d="M459.441,403.484
				c0,0,2.99,10.976-8.654,39.64"/>
			<path fill="none" stroke="#201C1D" stroke-linecap="round" stroke-miterlimit="10" d="M457.649,389.6
				c0,0,4.334,12.095-7.311,40.759"/>
			<path fill="none" stroke="#201C1D" stroke-linecap="round" stroke-miterlimit="10" d="M460.785,414.905
				c0,0,2.99,12.767-7.312,40.535"/>
			<path fill="none" stroke="#201C1D" stroke-linecap="round" stroke-miterlimit="10" d="M459.829,407.449
				c0,0,3.858,24.962-13.161,50.604"/>
			<path fill="none" stroke="#201C1D" stroke-linecap="round" stroke-miterlimit="10" d="M461.191,419.476
				c0,0,3.857,28.365-13.162,54.007"/>
		</g>
		<g>
			<path fill="none" stroke="#201C1D" stroke-linecap="round" stroke-miterlimit="10" d="M190.003,716.816
				c0,0-3.354-25.361,16.543-50.545"/>
			<path fill="none" stroke="#201C1D" stroke-linecap="round" stroke-miterlimit="10" d="M189.223,708.636
				c0,0-2.914-11.205,11.118-39.662"/>
			<path fill="none" stroke="#201C1D" stroke-linecap="round" stroke-miterlimit="10" d="M190.694,722.728
				c0,0-4.367-12.391,9.665-40.848"/>
			<path fill="none" stroke="#201C1D" stroke-linecap="round" stroke-miterlimit="10" d="M188.157,697.05
				c0,0-2.846-13.014,9.657-40.621"/>
			<path fill="none" stroke="#201C1D" stroke-linecap="round" stroke-miterlimit="10" d="M188.94,704.617
				c0,0-3.354-25.36,16.543-50.544"/>
			<path fill="none" stroke="#201C1D" stroke-linecap="round" stroke-miterlimit="10" d="M187.877,692.418
				c0,0-3.226-28.798,16.671-53.981"/>
		</g>
		<g>
			<path fill="none" stroke="#201C1D" stroke-linecap="round" stroke-miterlimit="10" d="M164.898,489.616
				c0,0-3.354-25.36,16.543-50.544"/>
			<path fill="none" stroke="#201C1D" stroke-linecap="round" stroke-miterlimit="10" d="M164.118,481.436
				c0,0-2.914-11.204,11.117-39.661"/>
			<path fill="none" stroke="#201C1D" stroke-linecap="round" stroke-miterlimit="10" d="M165.589,495.528
				c0,0-4.367-12.392,9.665-40.848"/>
			<path fill="none" stroke="#201C1D" stroke-linecap="round" stroke-miterlimit="10" d="M163.053,469.85
				c0,0-2.847-13.014,9.656-40.622"/>
			<path fill="none" stroke="#201C1D" stroke-linecap="round" stroke-miterlimit="10" d="M163.835,477.417
				c0,0-3.354-25.361,16.543-50.545"/>
			<path fill="none" stroke="#201C1D" stroke-linecap="round" stroke-miterlimit="10" d="M162.772,465.218
				c0,0-3.226-28.797,16.671-53.98"/>
		</g>
		<g>
			<path fill="none" stroke="#201C1D" stroke-linecap="round" stroke-miterlimit="10" d="M121.702,126.345
				c0,0-3.354-25.36,16.543-50.544"/>
			<path fill="none" stroke="#201C1D" stroke-linecap="round" stroke-miterlimit="10" d="M120.922,118.167
				c0,0-2.914-11.205,11.118-39.662"/>
			<path fill="none" stroke="#201C1D" stroke-linecap="round" stroke-miterlimit="10" d="M122.394,132.257
				c0,0-4.367-12.391,9.665-40.848"/>
			<path fill="none" stroke="#201C1D" stroke-linecap="round" stroke-miterlimit="10" d="M119.856,106.58
				c0,0-2.847-13.013,9.657-40.621"/>
			<path fill="none" stroke="#201C1D" stroke-linecap="round" stroke-miterlimit="10" d="M120.639,114.147
				c0,0-3.354-25.36,16.543-50.544"/>
			<path fill="none" stroke="#201C1D" stroke-linecap="round" stroke-miterlimit="10" d="M119.577,101.949
				c0,0-3.226-28.798,16.671-53.981"/>
		</g>
		<g>
			<path fill="none" stroke="#201C1D" stroke-linecap="round" stroke-miterlimit="10" d="M426.502,469.339
				c0,0-6.694,9.24-14.991,15.107"/>
			<path fill="none" stroke="#201C1D" stroke-linecap="round" stroke-miterlimit="10" d="M426.924,476.935
				c0,0-6.694,9.24-14.991,15.108"/>
			<path fill="none" stroke="#201C1D" stroke-linecap="round" stroke-miterlimit="10" d="M427.346,484.532
				c0,0-6.694,9.239-14.991,15.108"/>
			<path fill="none" stroke="#201C1D" stroke-linecap="round" stroke-miterlimit="10" d="M427.768,492.127
				c0,0-6.694,9.24-14.991,15.108"/>
			<path fill="none" stroke="#201C1D" stroke-linecap="round" stroke-miterlimit="10" d="M428.189,499.724
				c0,0-6.694,9.24-14.991,15.107"/>
		</g>
		<g>
			<path fill="none" stroke="#201C1D" stroke-linecap="round" stroke-miterlimit="10" d="M236.638,628.132
				c0,0,6.694-9.24,14.992-15.107"/>
			<path fill="none" stroke="#201C1D" stroke-linecap="round" stroke-miterlimit="10" d="M236.216,620.537
				c0,0,6.694-9.24,14.992-15.108"/>
			<path fill="none" stroke="#201C1D" stroke-linecap="round" stroke-miterlimit="10" d="M235.794,612.94
				c0,0,6.695-9.239,14.992-15.108"/>
			<path fill="none" stroke="#201C1D" stroke-linecap="round" stroke-miterlimit="10" d="M235.372,605.344
				c0,0,6.695-9.24,14.992-15.108"/>
			<path fill="none" stroke="#201C1D" stroke-linecap="round" stroke-miterlimit="10" d="M234.95,597.748
				c0,0,6.695-9.239,14.992-15.107"/>
		</g>
		<g>
			
				<line fill="none" stroke="#201C1D" stroke-linecap="round" stroke-miterlimit="10" x1="350.036" y1="525.079" x2="339.354" y2="530.46"/>
			
				<line fill="none" stroke="#201C1D" stroke-linecap="round" stroke-miterlimit="10" x1="350.036" y1="532.549" x2="339.354" y2="537.931"/>
			
				<line fill="none" stroke="#201C1D" stroke-linecap="round" stroke-miterlimit="10" x1="350.036" y1="540.019" x2="339.354" y2="545.402"/>
			
				<line fill="none" stroke="#201C1D" stroke-linecap="round" stroke-miterlimit="10" x1="350.036" y1="547.49" x2="339.354" y2="552.873"/>
			
				<line fill="none" stroke="#201C1D" stroke-linecap="round" stroke-miterlimit="10" x1="350.036" y1="554.96" x2="339.354" y2="560.342"/>
		</g>
		<g>
			<path fill="none" stroke="#201C1D" stroke-linecap="round" stroke-miterlimit="10" d="M398.886,245.216
				c0,0-6.695,9.24-14.992,15.108"/>
			<path fill="none" stroke="#201C1D" stroke-linecap="round" stroke-miterlimit="10" d="M399.308,252.813
				c0,0-6.695,9.239-14.992,15.108"/>
			<path fill="none" stroke="#201C1D" stroke-linecap="round" stroke-miterlimit="10" d="M399.729,260.409
				c0,0-6.695,9.24-14.992,15.108"/>
			<path fill="none" stroke="#201C1D" stroke-linecap="round" stroke-miterlimit="10" d="M400.15,268.005
				c0,0-6.694,9.24-14.991,15.107"/>
			<path fill="none" stroke="#201C1D" stroke-linecap="round" stroke-miterlimit="10" d="M400.572,275.601
				c0,0-6.694,9.24-14.991,15.107"/>
		</g>
		<g>
			<path fill="none" stroke="#201C1D" stroke-linecap="round" stroke-miterlimit="10" d="M209.021,404.009
				c0,0,6.694-9.239,14.992-15.107"/>
			<path fill="none" stroke="#201C1D" stroke-linecap="round" stroke-miterlimit="10" d="M208.599,396.414
				c0,0,6.695-9.24,14.992-15.107"/>
			<path fill="none" stroke="#201C1D" stroke-linecap="round" stroke-miterlimit="10" d="M208.177,388.818
				c0,0,6.695-9.24,14.992-15.108"/>
			<path fill="none" stroke="#201C1D" stroke-linecap="round" stroke-miterlimit="10" d="M207.755,381.221
				c0,0,6.695-9.239,14.992-15.108"/>
			<path fill="none" stroke="#201C1D" stroke-linecap="round" stroke-miterlimit="10" d="M207.333,373.625
				c0,0,6.694-9.24,14.992-15.108"/>
		</g>
		<g>
			
				<line fill="none" stroke="#201C1D" stroke-linecap="round" stroke-miterlimit="10" x1="322.419" y1="300.957" x2="311.737" y2="306.337"/>
			
				<line fill="none" stroke="#201C1D" stroke-linecap="round" stroke-miterlimit="10" x1="322.419" y1="308.426" x2="311.737" y2="313.808"/>
			
				<line fill="none" stroke="#201C1D" stroke-linecap="round" stroke-miterlimit="10" x1="322.419" y1="315.897" x2="311.737" y2="321.279"/>
			
				<line fill="none" stroke="#201C1D" stroke-linecap="round" stroke-miterlimit="10" x1="322.419" y1="323.368" x2="311.737" y2="328.75"/>
			
				<line fill="none" stroke="#201C1D" stroke-linecap="round" stroke-miterlimit="10" x1="322.419" y1="330.837" x2="311.737" y2="336.22"/>
		</g>
		<g>
			<path fill="none" stroke="#201C1D" stroke-linecap="round" stroke-miterlimit="10" d="M197,210.898c0,0,6.731,3.525,11.54,4.809"
				/>
			<path fill="none" stroke="#201C1D" stroke-linecap="round" stroke-miterlimit="10" d="M197,216.988c0,0,6.731,3.526,11.54,4.809"
				/>
			<path fill="none" stroke="#201C1D" stroke-linecap="round" stroke-miterlimit="10" d="M197,223.079c0,0,6.731,3.526,11.54,4.808"
				/>
			<path fill="none" stroke="#201C1D" stroke-linecap="round" stroke-miterlimit="10" d="M197,229.168c0,0,6.731,3.526,11.54,4.808"
				/>
			<path fill="none" stroke="#201C1D" stroke-linecap="round" stroke-miterlimit="10" d="M197,235.259c0,0,6.731,3.525,11.54,4.808"
				/>
			<path fill="none" stroke="#201C1D" stroke-linecap="round" stroke-miterlimit="10" d="M197,241.349c0,0,6.731,3.525,11.54,4.808"
				/>
		</g>
		<g>
			<path fill="none" stroke="#201C1D" stroke-linecap="round" stroke-miterlimit="10" d="M228.733,224.361
				c0,0,6.731,3.525,11.539,4.808"/>
			<path fill="none" stroke="#201C1D" stroke-linecap="round" stroke-miterlimit="10" d="M228.733,230.451
				c0,0,6.731,3.525,11.539,4.809"/>
			<path fill="none" stroke="#201C1D" stroke-linecap="round" stroke-miterlimit="10" d="M228.733,236.541
				c0,0,6.731,3.526,11.539,4.809"/>
			<path fill="none" stroke="#201C1D" stroke-linecap="round" stroke-miterlimit="10" d="M228.733,242.631
				c0,0,6.731,3.525,11.539,4.808"/>
			<path fill="none" stroke="#201C1D" stroke-linecap="round" stroke-miterlimit="10" d="M228.733,248.721
				c0,0,6.731,3.526,11.539,4.808"/>
			<path fill="none" stroke="#201C1D" stroke-linecap="round" stroke-miterlimit="10" d="M228.733,254.812
				c0,0,6.731,3.525,11.539,4.808"/>
		</g>
		<g>
			<path fill="none" stroke="#201C1D" stroke-linecap="round" stroke-miterlimit="10" d="M325.511,35.527
				c0,0,6.731,3.525,11.539,4.808"/>
			<path fill="none" stroke="#201C1D" stroke-linecap="round" stroke-miterlimit="10" d="M325.511,41.617
				c0,0,6.731,3.525,11.539,4.808"/>
			<path fill="none" stroke="#201C1D" stroke-linecap="round" stroke-miterlimit="10" d="M325.511,47.707
				c0,0,6.731,3.525,11.539,4.809"/>
			<path fill="none" stroke="#201C1D" stroke-linecap="round" stroke-miterlimit="10" d="M325.511,53.796
				c0,0,6.731,3.526,11.539,4.809"/>
			<path fill="none" stroke="#201C1D" stroke-linecap="round" stroke-miterlimit="10" d="M325.511,59.887
				c0,0,6.731,3.526,11.539,4.808"/>
			<path fill="none" stroke="#201C1D" stroke-linecap="round" stroke-miterlimit="10" d="M325.511,65.977
				c0,0,6.731,3.526,11.539,4.808"/>
		</g>
		<g>
			<path fill="none" stroke="#201C1D" stroke-linecap="round" stroke-miterlimit="10" d="M352.892,48.745
				c0,0,6.731,3.526,11.539,4.808"/>
			<path fill="none" stroke="#201C1D" stroke-linecap="round" stroke-miterlimit="10" d="M352.892,54.835
				c0,0,6.731,3.525,11.539,4.808"/>
			<path fill="none" stroke="#201C1D" stroke-linecap="round" stroke-miterlimit="10" d="M352.892,60.925
				c0,0,6.731,3.525,11.539,4.808"/>
			<path fill="none" stroke="#201C1D" stroke-linecap="round" stroke-miterlimit="10" d="M352.892,67.015
				c0,0,6.731,3.525,11.539,4.809"/>
			<path fill="none" stroke="#201C1D" stroke-linecap="round" stroke-miterlimit="10" d="M352.892,73.105
				c0,0,6.731,3.526,11.539,4.809"/>
			<path fill="none" stroke="#201C1D" stroke-linecap="round" stroke-miterlimit="10" d="M352.892,79.196
				c0,0,6.731,3.525,11.539,4.808"/>
		</g>
		<g>
			<path fill="none" stroke="#201C1D" stroke-linecap="round" stroke-miterlimit="10" d="M384.136,620.326
				c0,0,6.731,3.525,11.539,4.809"/>
			<path fill="none" stroke="#201C1D" stroke-linecap="round" stroke-miterlimit="10" d="M384.136,626.416
				c0,0,6.731,3.526,11.539,4.809"/>
			<path fill="none" stroke="#201C1D" stroke-linecap="round" stroke-miterlimit="10" d="M384.136,632.506
				c0,0,6.731,3.525,11.539,4.808"/>
			<path fill="none" stroke="#201C1D" stroke-linecap="round" stroke-miterlimit="10" d="M384.136,638.596
				c0,0,6.731,3.526,11.539,4.808"/>
			<path fill="none" stroke="#201C1D" stroke-linecap="round" stroke-miterlimit="10" d="M384.136,644.687
				c0,0,6.731,3.525,11.539,4.808"/>
			<path fill="none" stroke="#201C1D" stroke-linecap="round" stroke-miterlimit="10" d="M384.136,650.777
				c0,0,6.731,3.525,11.539,4.808"/>
		</g>
		<g>
			<path fill="none" stroke="#201C1D" stroke-linecap="round" stroke-miterlimit="10" d="M411.517,633.544
				c0,0,6.731,3.525,11.539,4.808"/>
			<path fill="none" stroke="#201C1D" stroke-linecap="round" stroke-miterlimit="10" d="M411.517,639.634
				c0,0,6.731,3.525,11.539,4.809"/>
			<path fill="none" stroke="#201C1D" stroke-linecap="round" stroke-miterlimit="10" d="M411.517,645.724
				c0,0,6.731,3.526,11.539,4.809"/>
			<path fill="none" stroke="#201C1D" stroke-linecap="round" stroke-miterlimit="10" d="M411.517,651.815
				c0,0,6.731,3.525,11.539,4.808"/>
			<path fill="none" stroke="#201C1D" stroke-linecap="round" stroke-miterlimit="10" d="M411.517,657.905
				c0,0,6.731,3.526,11.539,4.808"/>
			<path fill="none" stroke="#201C1D" stroke-linecap="round" stroke-miterlimit="10" d="M411.517,663.996
				c0,0,6.731,3.525,11.539,4.808"/>
		</g>
	</g>
</g>
<g>
	<path fill="#F5F1D8" d="M60.448,299.591v-7.352c0-0.479,0.3-0.792,0.75-0.792h4.761c0.437,0,0.655,0.205,0.655,0.573v0.082
		c0,0.382-0.218,0.586-0.655,0.586h-4.12v2.811h3.056c0.45,0,0.655,0.205,0.655,0.56v0.054c0,0.383-0.218,0.573-0.655,0.573h-3.028
		v3.001c0,0.423-0.205,0.642-0.614,0.642h-0.218C60.653,300.329,60.448,300.07,60.448,299.591z"/>
	<path fill="#F5F1D8" d="M67.538,291.557c0-0.491,0.3-0.764,0.819-0.764c0.504,0,0.791,0.272,0.791,0.764s-0.287,0.75-0.805,0.75
		C67.838,292.307,67.538,292.035,67.538,291.557z M67.661,299.687v-5.388c0-0.491,0.259-0.655,0.614-0.655h0.136
		c0.355,0,0.601,0.15,0.601,0.655v5.388c0,0.491-0.246,0.642-0.601,0.642h-0.136C67.92,300.329,67.661,300.178,67.661,299.687z"/>
	<path fill="#F5F1D8" d="M75.094,293.317c0.218-0.354,0.437-0.519,0.778-0.519c0.504,0,0.736,0.546,0.696,0.573l-1.105,1.146
		c0.354,0.409,0.559,0.914,0.559,1.474c0,1.378-1.173,2.387-2.837,2.387c-0.082,0-0.164,0-0.246-0.014
		c-0.055,0.082-0.068,0.164-0.068,0.246c0,0.423,0.628,0.464,1.773,0.75c0.928,0.245,1.91,0.71,1.91,1.787
		c0,1.241-1.269,2.005-3.438,2.005c-2.21,0-3.233-0.586-3.233-1.814c0-0.954,0.9-1.596,2.101-1.8
		c-0.164-0.137-0.272-0.341-0.272-0.614c0-0.272,0.15-0.532,0.368-0.709c-1.05-0.342-1.719-1.16-1.719-2.183
		c0-1.378,1.187-2.483,2.81-2.483c0.586,0,1.119,0.15,1.569,0.396L75.094,293.317z M71.179,301.297c0,0.586,0.668,0.913,1.964,0.913
		c1.323,0,2.101-0.367,2.101-1.022c0-0.669-1.051-0.805-2.019-1.051C72.12,300.206,71.179,300.601,71.179,301.297z M74.712,296.004
		c0-0.873-0.627-1.487-1.555-1.487c-0.887,0-1.514,0.601-1.514,1.487s0.641,1.486,1.542,1.486S74.712,296.891,74.712,296.004z"/>
	<path fill="#F5F1D8" d="M80.26,293.74c-0.641,0-1.091-0.382-1.091-0.941c0-0.464,0.354-0.723,0.396-0.695
		c0.205,0.19,0.45,0.313,0.805,0.313c0.587,0,1.037-0.45,1.105-1.037h0.478c0.409,0,0.614,0.219,0.614,0.642v7.68
		c0,0.423-0.205,0.642-0.614,0.642h-0.177c-0.396,0-0.6-0.219-0.6-0.642v-6.329C80.942,293.603,80.614,293.74,80.26,293.74z"/>
	<path fill="#F5F1D8" d="M84.595,299.632v-0.163c0-0.478,0.246-0.751,0.737-0.751h0.177c0.504,0,0.75,0.273,0.75,0.751v0.163
		c0,0.478-0.259,0.737-0.75,0.737h-0.177C84.854,300.37,84.595,300.11,84.595,299.632z"/>
	<path fill="#F5F1D8" d="M89.844,297.177c0-3.396,2.142-5.798,3.833-5.798c0.396,0,0.627,0.178,0.627,0.546
		c0,0.219-0.164,0.45-0.205,0.478c-1.828,0.409-2.878,2.456-2.878,4.761c0,2.388,1.05,4.379,2.878,4.802
		c0.041,0.014,0.205,0.245,0.205,0.464c0,0.368-0.232,0.546-0.627,0.546C91.986,302.975,89.844,300.683,89.844,297.177z"/>
	<path fill="#F5F1D8" d="M99.146,300.438c-2.551,0-4.174-1.924-4.174-4.557c0-2.701,1.855-4.61,4.529-4.61
		c2.142,0,3.342,1.146,3.342,1.828c0,0.641-0.723,0.777-0.764,0.723c-0.546-0.873-1.569-1.337-2.551-1.337
		c-1.828,0-3.11,1.392-3.11,3.41c0,1.978,1.132,3.41,3.001,3.41c1.418,0,2.469-0.805,2.646-1.964v-0.573h-2.074
		c-0.478,0-0.709-0.15-0.709-0.532v-0.068c0-0.396,0.231-0.545,0.709-0.545h2.564c0.505,0,0.75,0.313,0.75,0.805v3.765
		c0,0.041-0.205,0.137-0.464,0.137c-0.409,0-0.764-0.205-0.764-1.132v-0.164C101.533,299.906,100.51,300.438,99.146,300.438z"/>
	<path fill="#F5F1D8" d="M107.912,293.548c0.682,0,1.078,0.328,1.078,0.873c0,0.519-0.382,0.724-0.41,0.696
		c-0.205-0.164-0.463-0.286-0.832-0.286c-1.064,0-1.487,1.036-1.487,2.551v2.305c0,0.491-0.259,0.642-0.6,0.642h-0.15
		c-0.354,0-0.6-0.15-0.6-0.642v-5.893c0-0.041,0.218-0.15,0.491-0.15c0.409,0,0.832,0.219,0.846,1.146
		C106.535,293.986,107.08,293.548,107.912,293.548z"/>
	<path fill="#F5F1D8" d="M114.103,296.195c0-0.995-0.573-1.541-1.624-1.541c-0.996,0-1.582,0.519-1.882,1.118
		c0,0.015-0.832,0-0.832-0.654c0-0.628,0.955-1.569,2.81-1.569c1.855,0,2.865,0.955,2.865,2.619v4.024
		c0,0.068-0.246,0.15-0.491,0.15c-0.478,0-0.818-0.259-0.832-1.064c-0.491,0.71-1.351,1.146-2.36,1.146
		c-1.405,0-2.237-0.751-2.237-1.869c0-1.515,1.446-2.169,4.406-2.224h0.177V296.195z M114.103,297.682v-0.505l-0.368,0.014
		c-1.91,0.068-2.892,0.423-2.892,1.31c0,0.587,0.464,0.955,1.241,0.955C113.257,299.456,114.103,298.718,114.103,297.682z"/>
	<path fill="#F5F1D8" d="M116.91,294.818c-0.423,0-0.586-0.178-0.586-0.505v-0.096c0-0.327,0.164-0.505,0.586-0.505h0.478v-1.01
		c0-0.463,0.232-0.641,0.6-0.641h0.137c0.354,0,0.586,0.137,0.586,0.641v1.01h1.487c0.423,0,0.573,0.164,0.573,0.491v0.096
		c0,0.341-0.164,0.519-0.586,0.519h-1.487v3.314c0,0.818,0.232,1.214,0.873,1.214c0.423,0,0.723-0.19,0.928-0.464
		c0.041-0.041,0.382,0.15,0.382,0.573c0,0.505-0.559,0.995-1.528,0.995c-1.351,0-1.964-0.75-1.964-2.168v-3.465H116.91z"/>
	<path fill="#F5F1D8" d="M124.423,300.438c-1.732,0-2.524-1.174-2.524-2.811v-3.328c0-0.491,0.246-0.655,0.587-0.655h0.15
		c0.354,0,0.6,0.15,0.6,0.655v3.165c0,1.132,0.573,1.8,1.569,1.8c0.818,0,1.459-0.464,1.801-1.159v-3.806
		c0-0.491,0.246-0.655,0.586-0.655h0.15c0.354,0,0.6,0.15,0.6,0.655v5.879c0,0.041-0.218,0.15-0.478,0.15
		c-0.409,0-0.818-0.205-0.859-1.037C126.156,299.96,125.433,300.438,124.423,300.438z"/>
	<path fill="#F5F1D8" d="M129.535,291.557c0-0.491,0.3-0.764,0.819-0.764c0.504,0,0.791,0.272,0.791,0.764s-0.287,0.75-0.805,0.75
		C129.835,292.307,129.535,292.035,129.535,291.557z M129.658,299.687v-5.388c0-0.491,0.259-0.655,0.614-0.655h0.136
		c0.355,0,0.601,0.15,0.601,0.655v5.388c0,0.491-0.246,0.642-0.601,0.642h-0.136C129.917,300.329,129.658,300.178,129.658,299.687z"
		/>
	<path fill="#F5F1D8" d="M132.753,294.818c-0.423,0-0.586-0.178-0.586-0.505v-0.096c0-0.327,0.164-0.505,0.586-0.505h0.478v-1.01
		c0-0.463,0.232-0.641,0.6-0.641h0.137c0.354,0,0.586,0.137,0.586,0.641v1.01h1.487c0.423,0,0.573,0.164,0.573,0.491v0.096
		c0,0.341-0.164,0.519-0.586,0.519h-1.487v3.314c0,0.818,0.232,1.214,0.873,1.214c0.423,0,0.723-0.19,0.928-0.464
		c0.041-0.041,0.382,0.15,0.382,0.573c0,0.505-0.56,0.995-1.528,0.995c-1.351,0-1.964-0.75-1.964-2.168v-3.465H132.753z"/>
	<path fill="#F5F1D8" d="M137.307,296.986c0-2.005,1.418-3.438,3.451-3.438c2.005,0,3.424,1.446,3.424,3.465
		c0,2.006-1.419,3.438-3.438,3.438C138.712,300.451,137.307,299.019,137.307,296.986z M142.927,297.013
		c0-1.363-0.914-2.359-2.183-2.359c-1.255,0-2.196,0.982-2.196,2.332c0,1.352,0.941,2.36,2.196,2.36
		C142,299.346,142.927,298.351,142.927,297.013z"/>
	<path fill="#F5F1D8" d="M147.916,300.438c-1.732,0-2.524-1.174-2.524-2.811v-3.328c0-0.491,0.246-0.655,0.587-0.655h0.15
		c0.354,0,0.6,0.15,0.6,0.655v3.165c0,1.132,0.573,1.8,1.569,1.8c0.818,0,1.459-0.464,1.801-1.159v-3.806
		c0-0.491,0.246-0.655,0.586-0.655h0.15c0.355,0,0.601,0.15,0.601,0.655v5.879c0,0.041-0.218,0.15-0.478,0.15
		c-0.409,0-0.818-0.205-0.859-1.037C149.648,299.96,148.925,300.438,147.916,300.438z"/>
	<path fill="#F5F1D8" d="M152.619,299.046c0-0.423,0.491-0.642,0.532-0.614c0.437,0.56,1.173,0.982,2.21,0.982
		c0.928,0,1.446-0.341,1.446-0.887c0-0.669-0.614-0.791-1.691-1.023c-0.969-0.204-2.306-0.505-2.306-1.896
		c0-1.229,1.023-2.061,2.619-2.061c1.678,0,2.524,0.71,2.524,1.323c0,0.423-0.519,0.669-0.546,0.628
		c-0.409-0.546-1.091-0.928-1.923-0.928c-0.928,0-1.418,0.354-1.418,0.9c0,0.601,0.573,0.736,1.637,0.969
		c1.01,0.218,2.415,0.518,2.415,1.937c0,1.255-1.037,2.061-2.728,2.061C153.56,300.438,152.619,299.673,152.619,299.046z"/>
	<path fill="#F5F1D8" d="M161.345,298.692c0-0.464,0.6-0.806,0.641-0.751c0.505,0.737,1.446,1.351,2.66,1.351
		c1.228,0,1.923-0.505,1.923-1.378c0-0.995-1.037-1.228-2.21-1.5c-1.364-0.314-2.783-0.791-2.783-2.578
		c0-1.501,1.296-2.564,3.178-2.564c1.964,0,3.028,0.928,3.028,1.568c0,0.505-0.627,0.818-0.654,0.777
		c-0.464-0.668-1.337-1.187-2.36-1.187c-1.105,0-1.828,0.532-1.828,1.351c0,0.969,0.859,1.118,2.087,1.405
		c1.5,0.341,2.947,0.927,2.947,2.633c0,1.623-1.255,2.632-3.315,2.632C162.532,300.451,161.345,299.415,161.345,298.692z"/>
	<path fill="#F5F1D8" d="M168.898,296.986c0-1.991,1.446-3.438,3.41-3.438c1.951,0,2.811,1.201,2.811,1.814
		c0,0.56-0.764,0.669-0.805,0.601c-0.3-0.724-0.859-1.282-1.978-1.282c-1.228,0-2.155,0.969-2.155,2.305
		c0,1.352,0.914,2.333,2.155,2.333c1.105,0,1.678-0.56,1.978-1.282c0.041-0.068,0.805,0.027,0.805,0.614c0,0.6-0.873,1.8-2.811,1.8
		C170.331,300.451,168.898,299.005,168.898,296.986z"/>
	<path fill="#F5F1D8" d="M176.262,291.557c0-0.491,0.3-0.764,0.818-0.764c0.504,0,0.791,0.272,0.791,0.764s-0.287,0.75-0.805,0.75
		C176.562,292.307,176.262,292.035,176.262,291.557z M176.384,299.687v-5.388c0-0.491,0.259-0.655,0.614-0.655h0.137
		c0.354,0,0.6,0.15,0.6,0.655v5.388c0,0.491-0.246,0.642-0.6,0.642h-0.137C176.644,300.329,176.384,300.178,176.384,299.687z"/>
	<path fill="#F5F1D8" d="M182.562,299.387c1.146,0,1.719-0.505,2.06-1.091c0.027-0.027,0.709,0.095,0.709,0.668
		s-1.009,1.486-2.796,1.486c-2.073,0-3.465-1.377-3.465-3.424c0-1.991,1.418-3.479,3.356-3.479c1.896,0,3.151,1.337,3.151,3.302
		v0.108c0,0.287-0.095,0.396-0.409,0.396h-4.829C180.434,298.555,181.321,299.387,182.562,299.387z M184.267,296.441
		c-0.068-1.133-0.764-1.869-1.855-1.869c-1.078,0-1.91,0.777-2.074,1.869H184.267z"/>
	<path fill="#F5F1D8" d="M190.348,293.548c1.732,0,2.537,1.188,2.537,2.811v3.328c0,0.491-0.259,0.642-0.6,0.642h-0.15
		c-0.354,0-0.6-0.15-0.6-0.642v-3.164c0-1.105-0.56-1.787-1.514-1.787c-0.859,0-1.515,0.464-1.842,1.146v3.806
		c0,0.491-0.259,0.642-0.6,0.642h-0.15c-0.354,0-0.6-0.15-0.6-0.642v-5.893c0-0.041,0.218-0.15,0.491-0.15
		c0.396,0,0.805,0.205,0.846,1.064C188.615,294.026,189.352,293.548,190.348,293.548z"/>
	<path fill="#F5F1D8" d="M194.082,296.986c0-1.991,1.446-3.438,3.41-3.438c1.951,0,2.81,1.201,2.81,1.814
		c0,0.56-0.764,0.669-0.805,0.601c-0.3-0.724-0.859-1.282-1.978-1.282c-1.228,0-2.155,0.969-2.155,2.305
		c0,1.352,0.914,2.333,2.155,2.333c1.105,0,1.678-0.56,1.978-1.282c0.041-0.068,0.805,0.027,0.805,0.614c0,0.6-0.873,1.8-2.81,1.8
		C195.514,300.451,194.082,299.005,194.082,296.986z"/>
	<path fill="#F5F1D8" d="M204.609,299.387c1.146,0,1.719-0.505,2.06-1.091c0.027-0.027,0.709,0.095,0.709,0.668
		s-1.009,1.486-2.796,1.486c-2.073,0-3.465-1.377-3.465-3.424c0-1.991,1.419-3.479,3.356-3.479c1.896,0,3.151,1.337,3.151,3.302
		v0.108c0,0.287-0.095,0.396-0.409,0.396h-4.829C202.481,298.555,203.368,299.387,204.609,299.387z M206.314,296.441
		c-0.068-1.133-0.764-1.869-1.855-1.869c-1.078,0-1.91,0.777-2.074,1.869H206.314z"/>
	<path fill="#F5F1D8" d="M211.425,299.687v-7.652c0-0.423,0.205-0.642,0.6-0.642h0.191c0.409,0,0.614,0.219,0.614,0.642v7.652
		c0,0.423-0.205,0.642-0.614,0.642h-0.191C211.63,300.329,211.425,300.11,211.425,299.687z"/>
	<path fill="#F5F1D8" d="M214.779,299.687v-8.635c0-0.041,0.232-0.15,0.491-0.15c0.423,0,0.859,0.219,0.859,1.16v7.625
		c0,0.491-0.246,0.642-0.601,0.642h-0.136C215.039,300.329,214.779,300.178,214.779,299.687z"/>
	<path fill="#F5F1D8" d="M217.915,299.687v-8.635c0-0.041,0.232-0.15,0.491-0.15c0.423,0,0.859,0.219,0.859,1.16v7.625
		c0,0.491-0.246,0.642-0.601,0.642h-0.136C218.174,300.329,217.915,300.178,217.915,299.687z"/>
	<path fill="#F5F1D8" d="M223.466,300.438c-1.732,0-2.524-1.174-2.524-2.811v-3.328c0-0.491,0.246-0.655,0.587-0.655h0.15
		c0.354,0,0.6,0.15,0.6,0.655v3.165c0,1.132,0.573,1.8,1.569,1.8c0.818,0,1.459-0.464,1.801-1.159v-3.806
		c0-0.491,0.246-0.655,0.586-0.655h0.15c0.355,0,0.601,0.15,0.601,0.655v5.879c0,0.041-0.218,0.15-0.478,0.15
		c-0.409,0-0.818-0.205-0.859-1.037C225.198,299.96,224.475,300.438,223.466,300.438z"/>
	<path fill="#F5F1D8" d="M228.168,299.046c0-0.423,0.491-0.642,0.532-0.614c0.437,0.56,1.174,0.982,2.21,0.982
		c0.928,0,1.446-0.341,1.446-0.887c0-0.669-0.614-0.791-1.691-1.023c-0.969-0.204-2.306-0.505-2.306-1.896
		c0-1.229,1.022-2.061,2.619-2.061c1.678,0,2.523,0.71,2.523,1.323c0,0.423-0.519,0.669-0.546,0.628
		c-0.409-0.546-1.092-0.928-1.924-0.928c-0.927,0-1.418,0.354-1.418,0.9c0,0.601,0.572,0.736,1.637,0.969
		c1.01,0.218,2.414,0.518,2.414,1.937c0,1.255-1.036,2.061-2.728,2.061C229.109,300.438,228.168,299.673,228.168,299.046z"/>
	<path fill="#F5F1D8" d="M234.985,294.818c-0.422,0-0.586-0.178-0.586-0.505v-0.096c0-0.327,0.164-0.505,0.586-0.505h0.479v-1.01
		c0-0.463,0.231-0.641,0.6-0.641h0.137c0.354,0,0.586,0.137,0.586,0.641v1.01h1.487c0.423,0,0.573,0.164,0.573,0.491v0.096
		c0,0.341-0.164,0.519-0.587,0.519h-1.487v3.314c0,0.818,0.232,1.214,0.873,1.214c0.424,0,0.724-0.19,0.928-0.464
		c0.041-0.041,0.383,0.15,0.383,0.573c0,0.505-0.56,0.995-1.528,0.995c-1.351,0-1.964-0.75-1.964-2.168v-3.465H234.985z"/>
	<path fill="#F5F1D8" d="M243.031,293.548c0.683,0,1.078,0.328,1.078,0.873c0,0.519-0.382,0.724-0.409,0.696
		c-0.205-0.164-0.464-0.286-0.832-0.286c-1.064,0-1.487,1.036-1.487,2.551v2.305c0,0.491-0.259,0.642-0.601,0.642h-0.15
		c-0.354,0-0.6-0.15-0.6-0.642v-5.893c0-0.041,0.219-0.15,0.491-0.15c0.409,0,0.832,0.219,0.846,1.146
		C241.653,293.986,242.199,293.548,243.031,293.548z"/>
	<path fill="#F5F1D8" d="M249.222,296.195c0-0.995-0.572-1.541-1.623-1.541c-0.996,0-1.582,0.519-1.883,1.118
		c0,0.015-0.832,0-0.832-0.654c0-0.628,0.955-1.569,2.811-1.569s2.865,0.955,2.865,2.619v4.024c0,0.068-0.246,0.15-0.492,0.15
		c-0.477,0-0.818-0.259-0.832-1.064c-0.49,0.71-1.35,1.146-2.359,1.146c-1.405,0-2.237-0.751-2.237-1.869
		c0-1.515,1.446-2.169,4.406-2.224h0.177V296.195z M249.222,297.682v-0.505l-0.367,0.014c-1.91,0.068-2.893,0.423-2.893,1.31
		c0,0.587,0.464,0.955,1.241,0.955C248.376,299.456,249.222,298.718,249.222,297.682z"/>
	<path fill="#F5F1D8" d="M252.029,294.818c-0.423,0-0.587-0.178-0.587-0.505v-0.096c0-0.327,0.164-0.505,0.587-0.505h0.478v-1.01
		c0-0.463,0.232-0.641,0.6-0.641h0.137c0.355,0,0.587,0.137,0.587,0.641v1.01h1.487c0.422,0,0.572,0.164,0.572,0.491v0.096
		c0,0.341-0.164,0.519-0.586,0.519h-1.487v3.314c0,0.818,0.231,1.214,0.873,1.214c0.423,0,0.724-0.19,0.928-0.464
		c0.041-0.041,0.382,0.15,0.382,0.573c0,0.505-0.56,0.995-1.527,0.995c-1.352,0-1.965-0.75-1.965-2.168v-3.465H252.029z"/>
	<path fill="#F5F1D8" d="M257.006,291.557c0-0.491,0.3-0.764,0.818-0.764c0.505,0,0.791,0.272,0.791,0.764s-0.286,0.75-0.805,0.75
		C257.306,292.307,257.006,292.035,257.006,291.557z M257.128,299.687v-5.388c0-0.491,0.26-0.655,0.614-0.655h0.137
		c0.354,0,0.601,0.15,0.601,0.655v5.388c0,0.491-0.246,0.642-0.601,0.642h-0.137C257.388,300.329,257.128,300.178,257.128,299.687z"
		/>
	<path fill="#F5F1D8" d="M259.814,296.986c0-2.005,1.419-3.438,3.451-3.438c2.005,0,3.424,1.446,3.424,3.465
		c0,2.006-1.419,3.438-3.438,3.438C261.22,300.451,259.814,299.019,259.814,296.986z M265.435,297.013
		c0-1.363-0.914-2.359-2.183-2.359c-1.255,0-2.196,0.982-2.196,2.332c0,1.352,0.941,2.36,2.196,2.36
		S265.435,298.351,265.435,297.013z"/>
	<path fill="#F5F1D8" d="M271.474,293.548c1.732,0,2.537,1.188,2.537,2.811v3.328c0,0.491-0.259,0.642-0.6,0.642h-0.15
		c-0.354,0-0.6-0.15-0.6-0.642v-3.164c0-1.105-0.561-1.787-1.515-1.787c-0.859,0-1.515,0.464-1.842,1.146v3.806
		c0,0.491-0.259,0.642-0.601,0.642h-0.15c-0.354,0-0.6-0.15-0.6-0.642v-5.893c0-0.041,0.219-0.15,0.491-0.15
		c0.396,0,0.805,0.205,0.846,1.064C269.741,294.026,270.478,293.548,271.474,293.548z"/>
	<path fill="#F5F1D8" d="M274.84,302.429c0-0.219,0.163-0.45,0.204-0.464c1.828-0.423,2.879-2.414,2.879-4.802
		c0-2.305-1.051-4.352-2.879-4.761c-0.041-0.027-0.204-0.259-0.204-0.478c0-0.368,0.231-0.546,0.628-0.546
		c1.691,0,3.832,2.401,3.832,5.798c0,3.506-2.141,5.798-3.832,5.798C275.071,302.975,274.84,302.797,274.84,302.429z"/>
</g>
</svg>
