<?xml version="1.0" encoding="utf-8"?>
<!-- Generator: Adobe Illustrator 17.0.0, SVG Export Plug-In . SVG Version: 6.00 Build 0)  -->
<!DOCTYPE svg PUBLIC "-//W3C//DTD SVG 1.1//EN" "http://www.w3.org/Graphics/SVG/1.1/DTD/svg11.dtd">
<svg version="1.1" id="Layer_1" xmlns="http://www.w3.org/2000/svg" xmlns:xlink="http://www.w3.org/1999/xlink" x="0px" y="0px"
	 width="65px" height="65px" viewBox="0 0 65 65" enable-background="new 0 0 65 65" xml:space="preserve">
<g>
	<path fill="#BDBBBC" d="M65,8.425C65,3.772,61.228,0,56.575,0H8.425C3.772,0,0,3.772,0,8.425v48.149C0,61.228,3.772,65,8.425,65
		h48.149C61.228,65,65,61.228,65,56.575V8.425z M48,48.019C48,49.992,46.978,52,45.004,52H20.878C18.905,52,17,49.992,17,48.019
		V19.462C17,17.488,18.905,15,20.878,15H29v-1.583c-2,0-3.066-0.845-3.066-1.676c0-0.987,0.487-1.741,3.214-1.741h6.382
		c2.807,0,3.875,0.753,3.875,1.741c0,0.831-0.405,1.676-2.405,1.676V15h8.004C46.978,15,48,17.488,48,19.462V48.019z"/>
	<g>
		<polygon fill="#BDBBBC" points="34.975,28.637 32.437,31.175 29.9,28.637 29.054,29.484 31.592,32.021 29.054,34.558 29.9,35.404 
			32.437,32.866 34.975,35.404 35.82,34.558 33.283,32.021 35.82,29.484 		"/>
		<polygon fill="#BDBBBC" points="26.602,28.637 24.065,31.175 21.527,28.637 20.682,29.484 23.219,32.021 20.682,34.558 
			21.527,35.404 24.065,32.866 26.602,35.404 27.448,34.558 24.91,32.021 27.448,29.484 		"/>
		<polygon fill="#BDBBBC" points="44.193,29.484 43.347,28.637 40.81,31.175 38.273,28.637 37.427,29.484 39.964,32.021 
			37.427,34.558 38.273,35.404 40.81,32.866 43.347,35.404 44.193,34.558 41.656,32.021 		"/>
	</g>
</g>
</svg>
