<?xml version="1.0" encoding="utf-8"?>
<!-- Generator: Adobe Illustrator 17.0.0, SVG Export Plug-In . SVG Version: 6.00 Build 0)  -->
<!DOCTYPE svg PUBLIC "-//W3C//DTD SVG 1.1//EN" "http://www.w3.org/Graphics/SVG/1.1/DTD/svg11.dtd">
<svg version="1.1" id="Layer_1" xmlns="http://www.w3.org/2000/svg" xmlns:xlink="http://www.w3.org/1999/xlink" x="0px" y="0px"
	 width="65px" height="65px" viewBox="0 0 65 65" enable-background="new 0 0 65 65" xml:space="preserve">
<g>
	<path fill="#BDBBBC" enable-background="new    " d="M65,8.43C65,3.774,61.226,0,56.57,0H8.43C3.774,0,0,3.774,0,8.43v48.14
		C0,61.226,3.774,65,8.43,65h48.14c4.656,0,8.43-3.774,8.43-8.43V8.43z M37.864,20.359c0,3.96-2.28,5.985-4.56,7.755
		c-0.71,0.69-1.52,1.522-1.52,2.692c0,1.18,0.81,1.861,1.41,2.341l1.95,1.521c2.39,1.98,4.57,3.81,4.57,7.5
		c0,5.03-5.1,10.16-14.44,10.16c-7.87,0-11.52-3.73-11.52-7.69c0-1.93,0.98-4.66,4.18-6.53c3.37-2.03,7.93-2.3,10.37-2.46
		c-0.76-0.97-1.63-1.98-1.63-3.64c0-0.91,0.28-1.44,0.55-2.09c-0.6,0.06-1.2,0.11-1.74,0.11c-5.75,0-9.01-4.229-9.01-8.4
		c0-2.46,0.76-5.36,3.09-7.34c3.1-2.52,7.06-2.82,9.99-2.82l11.32-0.31L37.354,13h-3.21C35.384,15,37.864,16.29,37.864,20.359z
		 M54,33h-5v5h-3v-5h-5v-3h5v-5h3v5h5V33z"/>
	<path fill="#BDBBBC" enable-background="new    " d="M28.894,37.148c-0.48,0-3.42,0.1-5.7,0.85c-1.19,0.43-4.67,1.71-4.67,5.51
		s3.75,6.53,9.56,6.53c5.21,0,7.98-2.46,7.98-5.78c0-2.73-1.79-4.17-5.92-7.06C29.714,37.148,29.444,37.148,28.894,37.148z"/>
	<path fill="#BDBBBC" enable-background="new    " d="M26.244,13.418c-1.41,0-2.93,0.56-3.8,1.63c-0.93,1.13-1.2,2.7-1.2,4.1
		c0,3.58,2.12,9.52,6.79,9.52c1.36,0,2.82-0.78,3.69-1.63c1.25-1.24,1.36-2.81,1.36-3.78C33.084,19.409,30.754,13.418,26.244,13.418
		z"/>
</g>
</svg>
