<?xml version="1.0" encoding="utf-8"?>
<!-- Generator: Adobe Illustrator 17.0.0, SVG Export Plug-In . SVG Version: 6.00 Build 0)  -->
<!DOCTYPE svg PUBLIC "-//W3C//DTD SVG 1.1//EN" "http://www.w3.org/Graphics/SVG/1.1/DTD/svg11.dtd">
<svg version="1.1" id="Layer_1" xmlns="http://www.w3.org/2000/svg" xmlns:xlink="http://www.w3.org/1999/xlink" x="0px" y="0px"
	 width="65px" height="65px" viewBox="0 0 65 65" enable-background="new 0 0 65 65" xml:space="preserve">
<path fill="#FFFFFF" d="M65,8.425C65,3.772,61.228,0,56.575,0H8.425C3.772,0,0,3.772,0,8.425v48.149C0,61.228,3.772,65,8.425,65
	h48.149C61.228,65,65,61.228,65,56.575V8.425z M44.781,35H38v17H28V35h-3v-8h3c0,0,0-4.068,0-7.438
	c0-5.236,4.047-9.745,11.515-9.745C42.532,9.816,45,9.877,45,9.877V16c0,0-1.295,0-3.778,0C38.53,16,38,18.412,38,20.503
	C38,20.71,38,27,38,27h7.671L44.781,35z"/>
</svg>
