<?xml version="1.0" encoding="utf-8"?>
<!-- Generator: Adobe Illustrator 16.0.0, SVG Export Plug-In . SVG Version: 6.00 Build 0)  -->
<!DOCTYPE svg PUBLIC "-//W3C//DTD SVG 1.1//EN" "http://www.w3.org/Graphics/SVG/1.1/DTD/svg11.dtd">
<svg version="1.1" id="Layer_1" xmlns="http://www.w3.org/2000/svg" xmlns:xlink="http://www.w3.org/1999/xlink" x="0px" y="0px"
	 width="61.873px" height="61.872px" viewBox="0 0 61.873 61.872" enable-background="new 0 0 61.873 61.872" xml:space="preserve">
<path fill="#FFFFFF" d="M61.873,30.937c0,17.085-13.851,30.935-30.937,30.935S0,48.022,0,30.937C0,13.851,13.851,0,30.937,0
	S61.873,13.851,61.873,30.937"/>
<path fill="#2CC0F0" d="M30.919,3.602c-15.129,0-27.657,12.264-27.657,27.393c0,13.309,10.81,24.389,21.81,26.865V39.817h-4v-9h4
	V23.56c0-5.254,4.226-10.074,12.057-10.074c3.162,0,5.926,0.294,5.926,0.294l0.019,7.317c0,0-1.754-0.023-4.356-0.023
	c-2.823,0-2.645,1.297-2.645,3.46v0.332v5.952h7.439l-0.372,9h-7.067v18.05c13-2.46,22.178-13.552,22.178-26.872
	C58.249,15.866,46.049,3.602,30.919,3.602"/>
</svg>
