<?xml version="1.0" encoding="utf-8"?>
<!-- Generator: Adobe Illustrator 16.0.0, SVG Export Plug-In . SVG Version: 6.00 Build 0)  -->
<!DOCTYPE svg PUBLIC "-//W3C//DTD SVG 1.1//EN" "http://www.w3.org/Graphics/SVG/1.1/DTD/svg11.dtd">
<svg version="1.1" id="Layer_1" xmlns="http://www.w3.org/2000/svg" xmlns:xlink="http://www.w3.org/1999/xlink" x="0px" y="0px"
	 width="61.873px" height="61.871px" viewBox="0 0 61.873 61.871" enable-background="new 0 0 61.873 61.871" xml:space="preserve">
<path fill="#FFFFFF" d="M61.873,30.936c0,17.085-13.852,30.936-30.937,30.936C13.851,61.871,0,48.021,0,30.936
	C0,13.85,13.851,0,30.937,0C48.021,0,61.873,13.85,61.873,30.936"/>
<path fill="#2CC0F0" d="M30.938,3.544c-15.129,0-27.394,12.265-27.394,27.394c0,15.126,12.265,27.39,27.394,27.39
	c15.129,0,27.391-12.264,27.391-27.39C58.329,15.809,46.067,3.544,30.938,3.544"/>
<path fill="#FFFFFF" d="M41.226,43.781c-0.801,0.381-2.33,0.713-3.471,0.742c-3.441,0.092-4.107-2.418-4.139-4.24V26.899h8.635
	v-6.509h-8.602V9.437H27.35c-0.104,0-0.284,0.091-0.31,0.322c-0.368,3.352-1.938,9.236-8.46,11.587v5.554h4.351v14.05
	c0,4.81,3.55,11.643,12.916,11.482c3.16-0.055,6.67-1.377,7.445-2.518L41.226,43.781z"/>
</svg>
