<?xml version="1.0" encoding="utf-8"?>
<!-- Generator: Adobe Illustrator 16.0.0, SVG Export Plug-In . SVG Version: 6.00 Build 0)  -->
<!DOCTYPE svg PUBLIC "-//W3C//DTD SVG 1.1//EN" "http://www.w3.org/Graphics/SVG/1.1/DTD/svg11.dtd">
<svg version="1.1" id="Layer_1" xmlns="http://www.w3.org/2000/svg" xmlns:xlink="http://www.w3.org/1999/xlink" x="0px" y="0px"
	 width="339.794px" height="546.917px" viewBox="0 0 339.794 546.917" enable-background="new 0 0 339.794 546.917"
	 xml:space="preserve">
<path fill="none" stroke="#FBE750" stroke-miterlimit="10" d="M43.311,88.992c-5,2.8-51,25.801-28,72.471
	c23,46.669,27,79.338,10,103.606c-17,24.269-19,30.802-10,54.138c9,23.334,25,58.803,6,84.004c-19,25.203-32,64.405-7,86.807
	c25,22.4,43,11.201,47,32.668c4,21.469,108,38.27,142,4.667s121,18.64,136-37.36"/>
<path fill="none" stroke="#FBE750" stroke-width="2" stroke-linecap="round" stroke-linejoin="round" stroke-miterlimit="10" d="
	M41.201,77.585c3.523-2.689,6.513-3.987,9.16-6.561c2.649-2.574,5.854-8.81,6.362-9.356"/>
<path fill="none" stroke="#FBE750" stroke-width="2" stroke-linecap="round" stroke-linejoin="round" stroke-miterlimit="10" d="
	M59.976,63.349c3.133,7.792,6.443,15.814,9.299,21.911"/>
<path fill="none" stroke="#FBE750" stroke-width="2" stroke-linecap="round" stroke-linejoin="round" stroke-miterlimit="10" d="
	M72.865,63.961c2.137,3.978,4.272,7.955,6.41,11.933"/>
<path fill="none" stroke="#FBE750" stroke-width="2" stroke-linecap="round" stroke-linejoin="round" stroke-miterlimit="10" d="
	M83.637,55.7c-7.349-4.885-7.168,5.631-0.68,4.846c6.487-0.785,7.841,5.461,6.465,7.108c-1.377,1.648-5.096,2.978-6.978,1.944"/>
<path fill="none" stroke="#FBE750" stroke-width="2" stroke-linecap="round" stroke-linejoin="round" stroke-miterlimit="10" d="
	M68.691,57.146c-0.443-0.885-0.886-1.769-1.33-2.653"/>
<path fill="none" stroke="#FBE750" stroke-width="2" stroke-linecap="round" stroke-linejoin="round" stroke-miterlimit="10" d="
	M109.507,36.225c-2.391-2.273-6.99-5.395-9.19-2.156c-5.543,8.152,0.888,19.506,3.823,22.217c2.936,2.71,7.586,3.78,11.058,1.802
	c3.281-1.871,4.733-5.774,5.797-9.399c0.326-1.115,0.643-2.286,0.412-3.425c-0.23-1.139-1.189-2.219-2.351-2.178
	c-0.68,0.024-1.287,0.411-1.854,0.785c-3.749,2.47-7.499,4.938-11.248,7.408"/>
<path fill="none" stroke="#FBE750" stroke-width="2" stroke-linecap="round" stroke-linejoin="round" stroke-miterlimit="10" d="
	M121.716,35.485c1.981,2.616,3.962,5.232,5.943,7.849c2.007,1.676,3.856,4.015,7.35,0.712c3.492-3.304-0.876-6.702-1.313-10.053
	c-1.354-2.076-2.709-4.151-4.064-6.227c2.354,5.022,6.406,9.229,11.338,11.766"/>
<path fill="none" stroke="#FBE750" stroke-width="2" stroke-linecap="round" stroke-linejoin="round" stroke-miterlimit="10" d="
	M146.814,10.908c-0.596,13.83-1.662,33.332-2.258,47.162"/>
<path fill="none" stroke="#FBE750" stroke-width="2" stroke-linecap="round" stroke-linejoin="round" stroke-miterlimit="10" d="
	M145.047,30.775c-3.917-4.734-9.14-8.376-14.936-10.418"/>
<path fill="none" stroke="#FBE750" stroke-width="2" stroke-linecap="round" stroke-linejoin="round" stroke-miterlimit="10" d="
	M49.88,72.396c3.224,5.878,6.447,11.756,9.672,17.634"/>
<path fill="none" stroke="#FBE750" stroke-width="2" stroke-linecap="round" stroke-linejoin="round" stroke-miterlimit="10" d="
	M66.969,78.04c0.223-2.197,1.846-12.568,3.414-8.794c1.568,3.774,6.191,9.075,7.345,11.834"/>
<path fill="none" stroke="#FBE750" stroke-width="2" stroke-linecap="round" stroke-linejoin="round" stroke-miterlimit="10" d="
	M95.714,94.375c-4.879-9.532-12.52,0.867-7.066,4.44c5.453,3.574,15.002-0.049,9.591,8.035c-1.677,2.506-5.453,3.235-8.085,1.765"/>
<path fill="none" stroke="#FBE750" stroke-width="2" stroke-linecap="round" stroke-linejoin="round" stroke-miterlimit="10" d="
	M119.114,97.015c-1.819-2.205-3.639-4.409-5.457-6.614c-2.062-2.498-4.884-5.266-8.02-4.454c-9.844,1.963,1.671,19.619,7.345,11.073
	c1.454-2.19,1.634-5.174,0.404-7.498"/>
<path fill="none" stroke="#FBE750" stroke-width="2" stroke-linecap="round" stroke-linejoin="round" stroke-miterlimit="10" d="
	M119.52,79.259c2.637,4.802,4.416,9.733,5.791,14.733"/>
<path fill="none" stroke="#FBE750" stroke-width="2" stroke-linecap="round" stroke-linejoin="round" stroke-miterlimit="10" d="
	M114.521,67.263c0.39,1.635,0.779,3.271,1.168,4.906"/>
<path fill="none" stroke="#FBE750" stroke-width="2" stroke-linecap="round" stroke-linejoin="round" stroke-miterlimit="10" d="
	M143.963,85.876c3.598-6.01,1.29-9.139-1.652-11.885c-5.625-5.25-13,2-12,8S140.365,91.887,143.963,85.876z"/>
<path fill="none" stroke="#FBE750" stroke-width="2" stroke-linecap="round" stroke-linejoin="round" stroke-miterlimit="10" d="
	M128.248,52.345c7.838,12.077,15.675,24.155,23.513,36.232"/>
<path fill="none" stroke="#FBE750" stroke-width="2" stroke-linecap="round" stroke-linejoin="round" stroke-miterlimit="10" d="
	M154.92,55.537c0.43,1.807,0.86,3.614,1.291,5.421"/>
<path fill="none" stroke="#FBE750" stroke-width="2" stroke-linecap="round" stroke-linejoin="round" stroke-miterlimit="10" d="
	M157.25,70.365c0.892,3.604,1.781,7.207,2.672,10.81c0.371,0.186,0.743,0.372,1.114,0.558"/>
<path fill="none" stroke="#FBE750" stroke-width="2" stroke-linecap="round" stroke-linejoin="round" stroke-miterlimit="10" d="
	M166.189,50.378c1.6,8.685,3.201,17.37,4.801,26.055c0.799,0.07,1.379,1.027,1.073,1.768"/>
<path fill="none" stroke="#FBE750" stroke-width="2" stroke-linecap="round" stroke-linejoin="round" stroke-miterlimit="10" d="
	M163.025,62.391c4.219-0.239,8.436-2.754,12.655-2.994"/>
<path fill="none" stroke="#FBE750" stroke-width="2" stroke-linecap="round" stroke-linejoin="round" stroke-miterlimit="10" d="
	M194.155,36.257c1.406,11.296,2.814,22.591,4.222,33.887"/>
<path fill="none" stroke="#FBE750" stroke-width="2" stroke-linecap="round" stroke-linejoin="round" stroke-miterlimit="10" d="
	M189.7,41.743c3.182-2.126,6.523-4.314,10.326-4.749c3.802-0.434,7.839,1.61,9.148,5.206c2.974,8.165-8.063,10.955-10.854,11.98
	c9.055-1.741,17.748-6.46,19.893,2.632c2.145,9.092-16.343,12.665-26.056,14.251"/>
<path fill="none" stroke="#FBE750" stroke-width="2" stroke-linecap="round" stroke-linejoin="round" stroke-miterlimit="10" d="
	M223.059,46.007c2.427-0.543,4.976-1.148,6.802-2.836c1.827-1.688,2.552-4.838,0.852-6.652c-1.895-2.018-11.768,0.315-12.337,8.21
	c-0.571,7.896,11.735,9.867,20.245-1.498"/>
<path fill="none" stroke="#FBE750" stroke-width="2" stroke-linecap="round" stroke-linejoin="round" stroke-miterlimit="10" d="
	M249.492,26.746c-0.786-2.605-2.079-6.537-7.529-3.28c-5.45,3.256,4.179,7.301,7.938,10.094s6.411,14.266-8.168,7.166"/>
<path fill="none" stroke="#FBE750" stroke-width="2" stroke-linecap="round" stroke-linejoin="round" stroke-miterlimit="10" d="
	M253.589,1c1.08,11.725,7.757,26.204,8.837,37.929"/>
<path fill="none" stroke="#FBE750" stroke-width="2" stroke-linecap="round" stroke-linejoin="round" stroke-miterlimit="10" d="
	M245.183,14.369c7.96,0.104,15.086-5.203,23.046-5.099"/>
<line fill="none" stroke="#FBE750" stroke-width="2" stroke-linecap="round" stroke-linejoin="round" stroke-miterlimit="10" x1="111.311" y1="87.992" x2="108.311" y2="80.992"/>
</svg>
