<?xml version="1.0" encoding="utf-8"?>
<!-- Generator: Adobe Illustrator 16.0.0, SVG Export Plug-In . SVG Version: 6.00 Build 0)  -->
<!DOCTYPE svg PUBLIC "-//W3C//DTD SVG 1.1//EN" "http://www.w3.org/Graphics/SVG/1.1/DTD/svg11.dtd">
<svg version="1.1" id="Layer_1" xmlns="http://www.w3.org/2000/svg" xmlns:xlink="http://www.w3.org/1999/xlink" x="0px" y="0px"
	 width="61.873px" height="61.873px" viewBox="0 0 61.873 61.873" enable-background="new 0 0 61.873 61.873" xml:space="preserve">
<path fill="#FFFFFF" d="M61.873,30.937c0,17.085-13.852,30.936-30.937,30.936C13.851,61.873,0,48.022,0,30.937
	C0,13.851,13.851,0,30.937,0C48.021,0,61.873,13.851,61.873,30.937"/>
<path fill="#2CC0F0" d="M30.948,3.602c-15.129,0-27.394,12.264-27.394,27.394c0,15.126,12.265,27.39,27.394,27.39
	c15.13,0,27.391-12.264,27.391-27.39C58.339,15.866,46.078,3.602,30.948,3.602 M45.72,25.313c0.017,0.328,0.025,0.656,0.025,0.986
	c0,10.056-7.653,21.649-21.649,21.649c-4.296,0-8.297-1.258-11.664-3.42c0.595,0.071,1.202,0.106,1.817,0.106
	c3.564,0,6.847-1.213,9.448-3.256c-3.327-0.062-6.139-2.26-7.107-5.283c0.462,0.088,0.941,0.138,1.433,0.138
	c0.693,0,0.805-0.095,1.441-0.267c-3.48-0.701-6.662-3.777-6.662-7.463v-0.096c0,0.568,2.757,0.912,4.006,0.952
	c-2.04-1.364-3.105-3.694-3.105-6.33c0-1.397,0.518-2.705,1.171-3.828c3.755,4.604,9.431,7.633,15.753,7.949
	c-0.128-0.556-0.162-1.137-0.162-1.734c0-4.202,3.426-7.608,7.627-7.608c2.188,0,4.175,0.924,5.563,2.403
	c1.735-0.337,3.363-0.974,4.837-1.844c-0.569,1.774-1.776,3.265-3.345,4.206c1.538-0.183,3.007-0.59,4.372-1.199
	C48.497,22.902,47.21,24.243,45.72,25.313"/>
</svg>
