<?xml version="1.0" encoding="utf-8"?>
<!-- Generator: Adobe Illustrator 16.0.0, SVG Export Plug-In . SVG Version: 6.00 Build 0)  -->
<!DOCTYPE svg PUBLIC "-//W3C//DTD SVG 1.1//EN" "http://www.w3.org/Graphics/SVG/1.1/DTD/svg11.dtd">
<svg version="1.1" id="Layer_1" xmlns="http://www.w3.org/2000/svg" xmlns:xlink="http://www.w3.org/1999/xlink" x="0px" y="0px"
	 width="29.432px" height="29.433px" viewBox="0 0 29.432 29.433" enable-background="new 0 0 29.432 29.433" xml:space="preserve">
<path fill="#FFFFFF" d="M29.432,14.716c0,8.127-6.589,14.717-14.716,14.717C6.588,29.433,0,22.843,0,14.716
	C0,6.589,6.588,0,14.716,0C22.843,0,29.432,6.589,29.432,14.716"/>
<path fill="#4794A6" d="M14.716,1.686c-7.196,0-13.03,5.834-13.03,13.031s5.834,13.031,13.03,13.031
	c7.197,0,13.03-5.834,13.03-13.031S21.913,1.686,14.716,1.686"/>
<path fill="#FFFFFF" d="M19.052,20.128c-0.338,0.16-0.982,0.3-1.463,0.313c-1.449,0.039-1.73-1.02-1.744-1.787v-5.64h3.639v-2.743
	h-3.625V5.656h-2.654c-0.043,0-0.119,0.039-0.131,0.136c-0.154,1.413-0.816,3.892-3.564,4.883v2.34h1.834v5.921
	c0,2.025,1.495,4.906,5.441,4.839c1.332-0.024,2.811-0.582,3.139-1.062L19.052,20.128z"/>
</svg>
