<?xml version="1.0" encoding="utf-8"?>
<!-- Generator: Adobe Illustrator 17.0.0, SVG Export Plug-In . SVG Version: 6.00 Build 0)  -->
<!DOCTYPE svg PUBLIC "-//W3C//DTD SVG 1.1//EN" "http://www.w3.org/Graphics/SVG/1.1/DTD/svg11.dtd">
<svg version="1.1" id="Layer_1" xmlns="http://www.w3.org/2000/svg" xmlns:xlink="http://www.w3.org/1999/xlink" x="0px" y="0px"
	 width="195.023px" height="219.232px" viewBox="0 0 195.023 219.232" enable-background="new 0 0 195.023 219.232"
	 xml:space="preserve">
<g opacity="0.6">
	<circle fill="none" stroke="#231F20" stroke-width="4" stroke-miterlimit="10" cx="97.554" cy="94.969" r="92.969"/>
	<g>
		<g>
			<path fill="#231F20" d="M64.834,62.929h2.1c0.7,4.301,1.18,8.562,1.56,12.883h-1.52c-0.08-1.22-0.16-2.261-0.24-3.201h-5.161
				c-0.48,1.06-0.96,2.12-1.42,3.201h-1.56C60.533,71.491,62.634,67.23,64.834,62.929z M66.614,71.311
				c-0.24-2.341-0.52-4.741-0.9-7.202h-0.06c-1.2,2.38-2.38,4.781-3.501,7.202H66.614z"/>
			<path fill="#231F20" d="M78.693,65.55c1.18-2.101,2.841-2.821,4.941-2.821c0.98,0,2.1,0.16,3.121,0.4l-0.26,1.26
				c-0.86-0.2-2-0.36-2.881-0.36c-1.66,0-2.801,0.58-3.661,2.221c-0.82,1.56-1.18,3.821-1.18,5.221c0,2.36,1.04,3.24,2.841,3.24
				c1.08,0,2.281-0.32,3.261-0.78l0.44,1.16c-1.1,0.52-2.48,0.92-3.881,0.92c-2.701,0-4.161-1.48-4.161-4.581
				C77.273,69.771,77.693,67.35,78.693,65.55z"/>
			<path fill="#231F20" d="M90.553,62.929h1.48l-2.26,12.883h-1.48L90.553,62.929z"/>
			<path fill="#231F20" d="M96.473,63.049c1.14-0.18,2.821-0.3,3.761-0.3c2.34,0,3.701,0.76,3.701,3.041
				c0,1.121-0.34,2.201-0.98,2.981c-0.6,0.74-1.46,1.22-2.621,1.44c0.58,1.76,1.26,3.581,2.141,5.601h-1.68
				c-0.7-1.8-1.36-3.601-1.88-5.441c-0.82,0-1.86-0.02-2.24-0.04l-0.96,5.481h-1.48L96.473,63.049z M98.454,69.191
				c1.7,0,2.681-0.4,3.241-1.08c0.54-0.64,0.74-1.5,0.74-2.221c0-1.4-0.76-1.84-2.401-1.84c-0.5,0-1.52,0.04-2.281,0.12l-0.86,4.981
				C97.394,69.171,98.093,69.191,98.454,69.191z"/>
			<path fill="#231F20" d="M107.633,65.55c1.18-2.101,2.841-2.821,4.941-2.821c0.98,0,2.1,0.16,3.121,0.4l-0.26,1.26
				c-0.86-0.2-2-0.36-2.881-0.36c-1.66,0-2.801,0.58-3.661,2.221c-0.82,1.56-1.18,3.821-1.18,5.221c0,2.36,1.04,3.24,2.841,3.24
				c1.08,0,2.281-0.32,3.261-0.78l0.44,1.16c-1.1,0.52-2.48,0.92-3.881,0.92c-2.701,0-4.161-1.48-4.161-4.581
				C106.213,69.771,106.633,67.35,107.633,65.55z"/>
			<path fill="#231F20" d="M119.493,62.929h1.48l-2.041,11.583h5.401l-0.22,1.3h-6.882L119.493,62.929z"/>
			<path fill="#231F20" d="M129.673,62.929h6.922l-0.22,1.3h-5.481l-0.74,4.261h4.441l-0.22,1.3h-4.441l-0.84,4.721h5.481l-0.22,1.3
				h-6.942L129.673,62.929z"/>
			<path fill="#231F20" d="M23.924,86.929h6.882l-0.22,1.3h-5.421l-0.8,4.581h4.401l-0.22,1.3h-4.401l-1,5.701h-1.48L23.924,86.929z
				"/>
			<path fill="#231F20" d="M33.644,89.73c1.06-1.98,2.641-3.001,5.021-3.001c2.781,0,4.121,1.38,4.121,4.241
				c0,1.56-0.4,4.121-1.42,6.041c-1.02,1.9-2.581,3-5.041,3c-2.74,0-4.101-1.38-4.101-4.281
				C32.224,94.251,32.584,91.71,33.644,89.73z M36.465,98.712c1.84,0,2.841-0.84,3.581-2.32c0.74-1.48,1.24-3.661,1.24-5.301
				c0-2.26-0.96-3.061-2.741-3.061c-1.8,0-2.841,0.82-3.581,2.321c-0.74,1.48-1.24,3.661-1.24,5.301
				C33.724,97.912,34.684,98.712,36.465,98.712z"/>
			<path fill="#231F20" d="M47.424,87.049c1.14-0.18,2.821-0.3,3.761-0.3c2.34,0,3.701,0.76,3.701,3.041
				c0,1.121-0.34,2.201-0.98,2.981c-0.6,0.74-1.46,1.22-2.621,1.44c0.58,1.76,1.26,3.581,2.141,5.601h-1.68
				c-0.7-1.8-1.36-3.601-1.88-5.441c-0.82,0-1.86-0.02-2.24-0.04l-0.96,5.481h-1.48L47.424,87.049z M49.405,93.191
				c1.7,0,2.681-0.4,3.241-1.08c0.54-0.64,0.74-1.5,0.74-2.221c0-1.4-0.76-1.84-2.401-1.84c-0.5,0-1.52,0.04-2.281,0.12l-0.86,4.981
				C48.344,93.171,49.044,93.191,49.405,93.191z"/>
			<path fill="#231F20" d="M67.104,88.23h-3.741l0.22-1.3h8.962l-0.22,1.3h-3.741l-2.04,11.583h-1.48L67.104,88.23z"/>
			<path fill="#231F20" d="M75.924,86.929h1.48l-0.98,5.561h5.761l0.98-5.561h1.48l-2.26,12.883h-1.48l1.06-6.021h-5.761
				l-1.06,6.021h-1.48L75.924,86.929z"/>
			<path fill="#231F20" d="M89.124,86.929h6.922l-0.22,1.3h-5.481l-0.74,4.261h4.441l-0.22,1.3h-4.441l-0.84,4.721h5.481l-0.22,1.3
				h-6.942L89.124,86.929z"/>
			<path fill="#231F20" d="M102.403,98.272c0.94,0.22,1.98,0.44,3.041,0.44c1.04,0,2.061-0.22,2.721-0.92
				c0.44-0.46,0.72-1.12,0.72-1.88c0-1.4-0.96-1.661-2.381-2.201c-1.66-0.64-2.801-1.32-2.801-3.141c0-1.28,0.56-2.22,1.28-2.82
				c0.88-0.74,2.06-1.021,3.401-1.021c0.94,0,1.98,0.14,2.881,0.32l-0.22,1.32c-0.74-0.16-1.92-0.34-2.76-0.34
				c-0.92,0-1.74,0.22-2.281,0.68c-0.5,0.42-0.8,1.08-0.8,1.8c0,1.26,0.92,1.48,2.48,2.121c1.561,0.64,2.701,1.36,2.701,3.241
				c0,1.12-0.4,2.22-1.26,3c-0.9,0.82-2.12,1.14-3.661,1.14c-1.14,0-2.36-0.18-3.321-0.42L102.403,98.272z"/>
			<path fill="#231F20" d="M118.144,86.929h2.1c0.7,4.301,1.18,8.562,1.56,12.883h-1.52c-0.08-1.22-0.16-2.261-0.24-3.201h-5.161
				c-0.48,1.06-0.96,2.12-1.42,3.201h-1.56C113.843,95.491,115.944,91.23,118.144,86.929z M119.924,95.311
				c-0.24-2.341-0.52-4.741-0.9-7.202h-0.06c-1.2,2.38-2.38,4.781-3.501,7.202H119.924z"/>
			<path fill="#231F20" d="M127.303,86.929h1.48l-1,5.621c1.88-1.6,4.141-3.721,6.021-5.621h1.9c-2.36,2.3-4.521,4.281-6.361,5.881
				c1.28,2.32,2.721,4.601,4.381,7.001h-1.88c-1.16-1.721-2.641-4.241-3.661-6.182h-0.58l-1.08,6.182h-1.48L127.303,86.929z"/>
			<path fill="#231F20" d="M138.943,86.929h6.922l-0.22,1.3h-5.481l-0.74,4.261h4.441l-0.22,1.3h-4.441l-0.84,4.721h5.481l-0.22,1.3
				h-6.942L138.943,86.929z"/>
			<path fill="#231F20" d="M154.322,89.73c1.06-1.98,2.641-3.001,5.021-3.001c2.781,0,4.121,1.38,4.121,4.241
				c0,1.56-0.4,4.121-1.42,6.041c-1.02,1.9-2.581,3-5.041,3c-2.74,0-4.101-1.38-4.101-4.281
				C152.902,94.251,153.262,91.71,154.322,89.73z M157.143,98.712c1.84,0,2.841-0.84,3.581-2.32c0.74-1.48,1.24-3.661,1.24-5.301
				c0-2.26-0.96-3.061-2.74-3.061c-1.8,0-2.841,0.82-3.581,2.321c-0.74,1.48-1.24,3.661-1.24,5.301
				C154.403,97.912,155.363,98.712,157.143,98.712z"/>
			<path fill="#231F20" d="M168.122,86.929h6.882l-0.22,1.3h-5.421l-0.8,4.581h4.401l-0.22,1.3h-4.401l-1,5.701h-1.48
				L168.122,86.929z"/>
			<path fill="#231F20" d="M49.394,122.272c0.94,0.22,1.98,0.44,3.041,0.44c1.04,0,2.061-0.22,2.721-0.92
				c0.44-0.46,0.72-1.12,0.72-1.88c0-1.4-0.96-1.661-2.381-2.201c-1.66-0.64-2.801-1.32-2.801-3.141c0-1.28,0.56-2.22,1.28-2.82
				c0.88-0.74,2.06-1.021,3.401-1.021c0.94,0,1.98,0.14,2.881,0.32l-0.22,1.32c-0.74-0.16-1.92-0.34-2.76-0.34
				c-0.92,0-1.74,0.22-2.281,0.68c-0.5,0.42-0.8,1.08-0.8,1.8c0,1.26,0.92,1.48,2.48,2.121c1.561,0.64,2.701,1.36,2.701,3.241
				c0,1.12-0.4,2.22-1.26,3c-0.9,0.82-2.12,1.14-3.661,1.14c-1.14,0-2.36-0.18-3.321-0.42L49.394,122.272z"/>
			<path fill="#231F20" d="M63.814,119.311c-1.12-2.681-2.041-5.341-2.661-8.382h1.521c0.5,2.4,1.22,4.981,2,7.001h0.04
				c1.52-2.061,3.181-4.641,4.481-7.001h1.64c-1.68,3.041-3.521,5.701-5.561,8.382l-0.78,4.501h-1.48L63.814,119.311z"/>
			<path fill="#231F20" d="M74.394,110.929h2.181l1.44,8.882h0.06l4.561-8.882h2.24c-0.5,4.321-1.08,8.562-1.66,12.883h-1.5
				c0.52-3.741,1.02-7.362,1.48-11.042h-0.06l-4.521,8.722h-1.72l-1.44-8.722h-0.06c-0.86,3.781-1.64,7.441-2.38,11.042h-1.44
				C72.453,119.511,73.413,115.25,74.394,110.929z"/>
			<path fill="#231F20" d="M89.993,110.929h2.181l1.44,8.882h0.06l4.561-8.882h2.24c-0.5,4.321-1.08,8.562-1.66,12.883h-1.5
				c0.52-3.741,1.02-7.362,1.48-11.042h-0.06l-4.521,8.722h-1.72l-1.44-8.722h-0.06c-0.86,3.781-1.64,7.441-2.38,11.042h-1.44
				C88.053,119.511,89.013,115.25,89.993,110.929z"/>
			<path fill="#231F20" d="M105.273,110.929h6.922l-0.22,1.3h-5.481l-0.74,4.261h4.441l-0.22,1.3h-4.441l-0.84,4.721h5.481
				l-0.22,1.3h-6.942L105.273,110.929z"/>
			<path fill="#231F20" d="M118.354,112.23h-3.741l0.22-1.3h8.962l-0.22,1.3h-3.741l-2.04,11.583h-1.48L118.354,112.23z"/>
			<path fill="#231F20" d="M127.153,111.049c1.14-0.18,2.821-0.3,3.761-0.3c2.34,0,3.701,0.76,3.701,3.041
				c0,1.121-0.34,2.201-0.98,2.981c-0.6,0.74-1.46,1.22-2.621,1.44c0.58,1.76,1.26,3.581,2.141,5.601h-1.68
				c-0.7-1.8-1.36-3.601-1.88-5.441c-0.82,0-1.86-0.02-2.24-0.04l-0.96,5.481h-1.48L127.153,111.049z M129.133,117.191
				c1.7,0,2.681-0.4,3.241-1.08c0.54-0.64,0.74-1.5,0.74-2.221c0-1.4-0.76-1.84-2.401-1.84c-0.5,0-1.52,0.04-2.281,0.12l-0.86,4.981
				C128.073,117.171,128.773,117.191,129.133,117.191z"/>
			<path fill="#231F20" d="M140.013,119.311c-1.12-2.681-2.041-5.341-2.661-8.382h1.52c0.5,2.4,1.22,4.981,2,7.001h0.04
				c1.52-2.061,3.181-4.641,4.481-7.001h1.64c-1.68,3.041-3.521,5.701-5.561,8.382l-0.78,4.501h-1.48L140.013,119.311z"/>
		</g>
	</g>
	<g>
		<g>
			<path fill="#231F20" d="M6.163,210.322c-0.308-0.14-0.63-0.21-1.009-0.21c-1.639,0-2.857,1.233-2.857,3.754
				c0,2.536,1.219,3.712,2.914,3.712c0.728,0,1.933-0.196,2.857-0.533c0.042,0.393-0.112,1.065-0.336,1.429
				c-0.812,0.42-1.919,0.742-3.011,0.742c-2.844,0-4.721-2.143-4.721-5.155c0-3.348,2.367-5.337,5.281-5.337
				c1.064,0,2.087,0.266,2.872,0.658c0,0.841-0.112,2.003-0.266,2.718c-0.532,0-1.317-0.182-1.723-0.406V210.322z"/>
			<path fill="#231F20" d="M11.747,210.463c-0.294-0.028-0.7-0.098-0.925-0.168c-0.056-0.406-0.098-0.84-0.014-1.289h4.552
				c0.056,0.28,0.042,0.995-0.042,1.289c-0.322,0.07-1.037,0.14-1.415,0.154v7.116h2.844c0.028-0.378,0.14-1.064,0.21-1.373
				c0.434-0.154,1.233-0.238,1.695-0.238v2.983H10.5c0.028-0.35,0.154-0.98,0.28-1.261c0.21-0.084,0.714-0.182,0.967-0.224V210.463z
				"/>
			<path fill="#231F20" d="M20.65,218.937c0.028-0.35,0.154-0.98,0.28-1.261c0.21-0.084,0.714-0.182,0.967-0.224v-6.99
				c-0.294-0.028-0.7-0.098-0.925-0.168c-0.056-0.406-0.098-0.84-0.014-1.289h4.146c0.056,0.28,0.042,0.995-0.028,1.289
				c-0.238,0.07-0.742,0.14-1.022,0.154v7.003c0.35,0.028,0.826,0.112,1.121,0.196c0.056,0.196,0.084,0.56,0.084,0.869
				c0,0.168-0.014,0.322-0.028,0.42H20.65z"/>
			<path fill="#231F20" d="M33.645,210.322c-0.308-0.14-0.63-0.21-1.009-0.21c-1.639,0-2.857,1.233-2.857,3.754
				c0,2.536,1.219,3.712,2.914,3.712c0.728,0,1.933-0.196,2.857-0.533c0.042,0.393-0.112,1.065-0.336,1.429
				c-0.812,0.42-1.919,0.742-3.011,0.742c-2.844,0-4.721-2.143-4.721-5.155c0-3.348,2.367-5.337,5.281-5.337
				c1.064,0,2.087,0.266,2.871,0.658c0,0.841-0.112,2.003-0.266,2.718c-0.532,0-1.317-0.182-1.723-0.406V210.322z"/>
			<path fill="#231F20" d="M42.366,213.264l1.499-2.073c0.168-0.238,0.448-0.574,0.672-0.742c-0.224-0.028-0.574-0.098-0.728-0.14
				c-0.098-0.35-0.14-0.967-0.14-1.303h3.936c-0.014,0.378-0.126,1.008-0.252,1.387c-0.266,0.056-0.645,0.084-0.883,0.098
				l-2.549,3.25l3.124,3.768l0.896-0.056c0,0.448-0.154,1.149-0.336,1.499c-0.504,0.126-1.415,0.252-2.017,0.28l-3.53-4.679h-0.672
				v2.899c0.322,0.028,0.742,0.112,1.009,0.196c0.084,0.308,0.112,0.995,0.056,1.289h-4.468c0.028-0.35,0.154-0.98,0.28-1.261
				c0.21-0.084,0.714-0.182,0.967-0.224v-6.99c-0.294-0.028-0.7-0.098-0.925-0.168c-0.056-0.406-0.098-0.84-0.014-1.289h4.034
				c0.056,0.28,0.042,0.995-0.028,1.289c-0.21,0.07-0.658,0.14-0.91,0.154v2.815H42.366z"/>
			<path fill="#231F20" d="M57.023,217.452c0.434,0.028,1.037,0.112,1.401,0.196c0.098,0.308,0.126,0.995,0.07,1.289H53.62
				c0.028-0.35,0.154-0.98,0.28-1.261c0.21-0.084,0.714-0.182,0.967-0.224v-6.99c-0.294-0.028-0.7-0.098-0.925-0.168
				c-0.056-0.406-0.084-0.84-0.014-1.289h7.312v2.661c-0.476,0-1.191-0.098-1.611-0.238c-0.07-0.252-0.168-0.798-0.196-1.107h-2.409
				v3.152h1.933c0.014-0.168,0.07-0.476,0.126-0.672c0.392-0.126,1.022-0.224,1.527-0.224v3.026
				c-0.462,0.042-1.135,0.014-1.541-0.126c-0.056-0.182-0.112-0.518-0.126-0.714h-1.919V217.452z"/>
			<path fill="#231F20" d="M72.916,213.839c0,3.404-1.849,5.379-4.707,5.379c-3.054,0-4.749-1.863-4.749-5.379
				c0-3.152,2.045-5.113,4.749-5.113C71.04,208.726,72.916,210.547,72.916,213.839z M68.21,217.831c1.625,0,2.423-1.513,2.423-3.992
				c0-2.185-0.967-3.74-2.423-3.74c-1.597,0-2.451,1.443-2.451,3.74C65.759,216.276,66.669,217.831,68.21,217.831z"/>
			<path fill="#231F20" d="M76.37,210.519c-0.28,0-0.714-0.042-0.938-0.098c-0.056-0.322-0.07-0.98-0.028-1.358
				c1.107-0.126,2.844-0.196,4.118-0.196c2.339,0,4.048,0.882,4.048,2.956c0,1.331-0.896,2.255-2.017,2.675
				c0.798,1.443,1.779,2.731,2.185,2.984l0.771-0.084c0,0.434-0.126,1.121-0.294,1.457c-0.406,0.126-1.401,0.28-1.863,0.308
				c-0.518-0.364-1.933-2.535-2.76-4.328c-0.42,0-0.798-0.042-1.064-0.098v2.717c0.322,0.028,0.771,0.112,1.037,0.196
				c0.084,0.308,0.112,0.995,0.056,1.289h-4.496c0.028-0.35,0.154-0.98,0.28-1.261c0.21-0.084,0.714-0.182,0.967-0.224V210.519z
				 M78.527,213.46c0.294,0.056,0.784,0.084,1.163,0.084c0.938,0,1.709-0.504,1.709-1.653c0-1.05-0.883-1.681-2.101-1.681
				c-0.266,0-0.561,0.014-0.771,0.042V213.46z"/>
			<path fill="#231F20" d="M96.505,218.937c0.028-0.336,0.196-0.953,0.336-1.274c0.238-0.084,0.63-0.182,0.868-0.224
				c-0.21-0.252-0.378-0.603-0.504-0.925l-0.154-0.392h-3.614l-0.168,0.462c-0.084,0.238-0.252,0.672-0.42,0.91
				c0.294,0.028,0.714,0.098,0.967,0.168c0.126,0.308,0.224,0.924,0.224,1.274h-3.95c0.056-0.434,0.196-0.91,0.336-1.261
				c0.168-0.084,0.462-0.168,0.672-0.21l3.656-8.628h1.611l3.502,8.586c0.224,0.042,0.546,0.126,0.756,0.21
				c0.112,0.378,0.196,0.911,0.224,1.303H96.505z M95.202,210.883c-0.042,0.56-0.378,1.555-0.546,2.003l-0.714,1.933h2.633
				l-0.742-1.961c-0.154-0.42-0.434-1.401-0.462-1.975H95.202z"/>
			<path fill="#231F20" d="M109.971,217.452c0.434,0.028,1.037,0.112,1.401,0.196c0.098,0.308,0.126,0.995,0.07,1.289h-4.875
				c0.028-0.35,0.154-0.98,0.28-1.261c0.21-0.084,0.714-0.182,0.967-0.224v-6.99c-0.294-0.028-0.7-0.098-0.925-0.168
				c-0.056-0.406-0.084-0.84-0.014-1.289h7.312v2.661c-0.476,0-1.191-0.098-1.611-0.238c-0.07-0.252-0.168-0.798-0.196-1.107h-2.409
				v3.152h1.933c0.014-0.168,0.07-0.476,0.126-0.672c0.392-0.126,1.022-0.224,1.527-0.224v3.026
				c-0.462,0.042-1.135,0.014-1.541-0.126c-0.056-0.182-0.112-0.518-0.126-0.714h-1.919V217.452z"/>
			<path fill="#231F20" d="M119.617,215.085c0,1.821,0.644,2.718,2.101,2.718c1.597,0,2.227-1.149,2.227-2.718v-4.623
				c-0.266-0.028-0.644-0.098-0.854-0.168c-0.056-0.308-0.084-0.995-0.014-1.289h3.446c0.028,0.112,0.042,0.308,0.042,0.518
				c0,0.294-0.028,0.603-0.07,0.771c-0.196,0.07-0.63,0.14-0.868,0.154v4.538c0,2.507-1.219,4.23-4.272,4.23
				c-2.689,0-3.894-1.345-3.894-4.02v-4.777c-0.28-0.028-0.672-0.084-0.925-0.154c-0.07-0.308-0.126-0.925-0.126-1.261h4.188
				c0.056,0.28,0.042,0.995-0.028,1.289c-0.224,0.07-0.686,0.14-0.952,0.154V215.085z"/>
			<path fill="#231F20" d="M135.467,214.497c0.336,0.617,0.588,1.373,0.714,2.087h0.168v-6.122
				c-0.336-0.028-0.799-0.098-1.051-0.168c-0.056-0.308-0.084-0.995-0.014-1.289h3.572c0.028,0.112,0.042,0.308,0.042,0.518
				c0,0.294-0.028,0.603-0.07,0.771c-0.21,0.07-0.686,0.14-0.938,0.154v8.601h-2.171l-3.432-6.093
				c-0.308-0.561-0.616-1.415-0.714-2.017h-0.168v6.513c0.336,0.028,0.771,0.112,1.051,0.196c0.084,0.308,0.112,0.995,0.056,1.289
				h-3.922c0.028-0.35,0.14-0.98,0.252-1.261c0.21-0.084,0.645-0.182,0.883-0.224v-6.99c-0.294-0.028-0.7-0.098-0.925-0.168
				c-0.056-0.308-0.084-0.995-0.014-1.289h3.614L135.467,214.497z"/>
			<path fill="#231F20" d="M149.984,216.822c0.07-0.63,0.294-1.4,0.476-1.933l1.009-2.914c0.182-0.504,0.434-1.107,0.714-1.541
				c-0.28-0.014-0.714-0.07-0.994-0.14c-0.112-0.308-0.224-0.938-0.224-1.289h3.866c0,0.378-0.084,1.022-0.21,1.345
				c-0.21,0.056-0.518,0.098-0.757,0.112l-3.334,8.643h-1.779l-3.25-8.656c-0.224-0.028-0.532-0.098-0.742-0.168
				c-0.126-0.336-0.21-0.868-0.238-1.274h4.427c0,0.35-0.14,0.98-0.266,1.345c-0.196,0.056-0.826,0.112-1.064,0.112
				c0.252,0.378,0.546,0.953,0.729,1.471l1.008,2.956c0.182,0.546,0.378,1.289,0.462,1.933H149.984z"/>
			<path fill="#231F20" d="M156.547,218.937c0.028-0.35,0.154-0.98,0.28-1.261c0.21-0.084,0.714-0.182,0.967-0.224v-6.99
				c-0.294-0.028-0.7-0.098-0.925-0.168c-0.056-0.406-0.098-0.84-0.014-1.289h4.146c0.056,0.28,0.042,0.995-0.028,1.289
				c-0.238,0.07-0.742,0.14-1.022,0.154v7.003c0.35,0.028,0.826,0.112,1.121,0.196c0.056,0.196,0.084,0.56,0.084,0.869
				c0,0.168-0.014,0.322-0.028,0.42H156.547z"/>
			<path fill="#231F20" d="M164.457,210.603c-0.28-0.028-0.686-0.084-0.925-0.126c-0.056-0.42-0.098-0.854-0.014-1.317
				c1.037-0.126,3.082-0.252,4.048-0.252c3.25,0,5.463,1.513,5.463,4.875c0,3.656-2.493,5.253-4.917,5.253
				c-1.317,0-3.53-0.042-4.875-0.126c0.028-0.35,0.154-0.98,0.28-1.261c0.21-0.084,0.686-0.168,0.938-0.21V210.603z
				 M166.614,217.607c0.308,0.028,0.784,0.042,1.093,0.042c1.849,0,3.11-1.037,3.11-3.642c0-2.577-1.331-3.726-3.334-3.726
				c-0.238,0-0.63,0.028-0.868,0.056V217.607z"/>
			<path fill="#231F20" d="M174.956,218.937c0.028-0.35,0.154-0.98,0.28-1.261c0.21-0.084,0.714-0.182,0.967-0.224v-6.99
				c-0.294-0.028-0.7-0.098-0.925-0.168c-0.056-0.406-0.084-0.84-0.014-1.289h7.606v2.535c-0.476,0-1.149-0.07-1.583-0.21
				c-0.07-0.252-0.14-0.714-0.168-1.009h-2.76v2.9h2.171c0.014-0.154,0.07-0.435,0.126-0.617c0.392-0.126,1.023-0.21,1.527-0.21
				v2.872c-0.462,0.042-1.135,0.014-1.541-0.112c-0.056-0.168-0.112-0.477-0.126-0.645h-2.157v3.082h2.802
				c0.028-0.364,0.098-0.812,0.182-1.134c0.392-0.126,1.191-0.21,1.667-0.21v2.689H174.956z"/>
			<path fill="#231F20" d="M195.023,213.839c0,3.404-1.849,5.379-4.707,5.379c-3.054,0-4.749-1.863-4.749-5.379
				c0-3.152,2.045-5.113,4.749-5.113C193.146,208.726,195.023,210.547,195.023,213.839z M190.317,217.831
				c1.625,0,2.423-1.513,2.423-3.992c0-2.185-0.967-3.74-2.423-3.74c-1.597,0-2.451,1.443-2.451,3.74
				C187.865,216.276,188.776,217.831,190.317,217.831z"/>
		</g>
	</g>
</g>
</svg>
