<?xml version="1.0" encoding="utf-8"?>
<!-- Generator: Adobe Illustrator 16.0.0, SVG Export Plug-In . SVG Version: 6.00 Build 0)  -->
<!DOCTYPE svg PUBLIC "-//W3C//DTD SVG 1.1//EN" "http://www.w3.org/Graphics/SVG/1.1/DTD/svg11.dtd">
<svg version="1.1" id="Layer_1" xmlns="http://www.w3.org/2000/svg" xmlns:xlink="http://www.w3.org/1999/xlink" x="0px" y="0px"
	 width="29.432px" height="29.433px" viewBox="0 0 29.432 29.433" enable-background="new 0 0 29.432 29.433" xml:space="preserve">
<path fill="#FFFFFF" d="M29.432,14.716c0,8.127-6.589,14.717-14.716,14.717C6.588,29.433,0,22.843,0,14.716S6.588,0,14.716,0
	C22.843,0,29.432,6.589,29.432,14.716"/>
<path fill="#4794A6" d="M14.721,1.713c-7.197,0-13.03,5.834-13.03,13.031c0,7.195,5.833,13.029,13.03,13.029
	s13.03-5.834,13.03-13.029C27.751,7.547,21.918,1.713,14.721,1.713 M21.748,12.041c0.008,0.156,0.012,0.312,0.012,0.469
	c0,4.784-3.64,10.299-10.298,10.299c-2.044,0-3.947-0.6-5.549-1.627c0.283,0.033,0.571,0.05,0.864,0.05
	c1.695,0,3.258-0.577,4.494-1.55c-1.583-0.028-2.92-1.074-3.381-2.512c0.22,0.041,0.448,0.065,0.683,0.065
	c0.328,0,0.457-0.045,0.76-0.128c-1.655-0.333-3.094-1.796-3.094-3.549v-0.046c0,0.271,1.236,0.434,1.83,0.453
	c-0.971-0.649-1.515-1.758-1.515-3.011c0-0.665,0.228-1.287,0.538-1.821c1.787,2.19,4.477,3.631,7.484,3.781
	c-0.061-0.265-0.081-0.541-0.081-0.825c0-1.999,1.627-3.619,3.625-3.619c1.041,0,1.984,0.44,2.645,1.143
	c0.826-0.16,1.601-0.463,2.301-0.877c-0.271,0.844-0.845,1.553-1.591,2.001c0.731-0.087,1.43-0.281,2.079-0.571
	C23.068,10.894,22.457,11.532,21.748,12.041"/>
</svg>
